<svg width="1920" height="1080" viewBox="0 0 1920 1080" fill="none" xmlns="http://www.w3.org/2000/svg">
<g clip-path="url(#clip0_1_4)">
<path d="M1920 0H0V1080H1920V0Z" fill="#3C5F59"/>
<mask id="mask0_1_4" style="mask-type:luminance" maskUnits="userSpaceOnUse" x="0" y="0" width="1920" height="1080">
<path d="M1920 0H0V1080H1920V0Z" fill="white"/>
</mask>
<g mask="url(#mask0_1_4)">
<path d="M-12.7694 -268.018L-349.029 68.2417L-12.7695 404.502L323.491 68.2417L-12.7694 -268.018Z" fill="#AA8149"/>
<path d="M-12.7706 102.589L-124.247 214.066L-12.7706 325.542L98.7058 214.066L-12.7706 102.589Z" fill="#D9AA54"/>
<path d="M98.709 214.067L-12.769 325.544V366L98.709 214.067Z" fill="#997141"/>
<path d="M323.494 68.242L-12.769 404.505V492.073L323.494 68.242Z" fill="#314C47"/>
</g>
<mask id="mask1_1_4" style="mask-type:luminance" maskUnits="userSpaceOnUse" x="0" y="0" width="1920" height="1080">
<path d="M1920 0H0V1080H1920V0Z" fill="white"/>
</mask>
<g mask="url(#mask1_1_4)">
<path d="M1933.8 104.107L1572.72 465.188L1933.8 826.269L2294.88 465.188L1933.8 104.107Z" fill="#D9AA54"/>
<path d="M1465.63 299.887L841.919 923.602L1465.63 1547.32L2089.35 923.602L1465.63 299.887Z" fill="#AA8149"/>
<path d="M1465.63 685.269L1227.3 923.602L1465.63 1161.94L1703.97 923.602L1465.63 685.269Z" fill="#7C5D45"/>
<path d="M1227.31 923.599L1465.65 1161.93H1400L1227.31 923.599Z" fill="#997141"/>
<path d="M1703.99 923.599L1465.65 1161.93H1531.3L1703.99 923.599Z" fill="#997141"/>
<path d="M841.929 923.599L1144.98 1226.65H1074.08L841.929 923.599Z" fill="#314C47"/>
</g>
<path d="M1597.25 259.58L1576.63 280.202L1597.25 300.823L1617.87 280.202L1597.25 259.58Z" fill="#D9AA54"/>
<path d="M120.359 936.021L99.7374 956.642L120.359 977.263L140.98 956.642L120.359 936.021Z" fill="#D9AA54"/>
<path d="M1750.67 432.978L1722.39 461.257L1750.67 489.537L1778.95 461.257L1750.67 432.978Z" fill="#CD6B4A"/>
<path d="M1812.96 447.121L1798.82 461.261L1812.96 475.401L1827.1 461.261L1812.96 447.121Z" fill="#CD6B4A"/>
<path d="M1750.67 373.998L1736.53 388.138L1750.67 402.278L1764.81 388.138L1750.67 373.998Z" fill="#CD6B4A"/>
<path d="M1126.18 984.684L1107.12 1003.74L1126.18 1022.8L1145.24 1003.74L1126.18 984.684Z" fill="#7C5D45"/>
<path d="M924.042 632.775L908.606 648.211L924.042 663.647L939.478 648.211L924.042 632.775Z" fill="#D9AA54"/>
<path d="M81.9692 861.141L66.5332 876.577L81.9692 892.013L97.4052 876.577L81.9692 861.141Z" fill="#D9AA54"/>
<path d="M831.783 733.472L822.442 742.812L831.783 752.152L841.123 742.812L831.783 733.472Z" fill="#D9AA54"/>
<path d="M178.835 975.333L169.495 984.673L178.835 994.013L188.175 984.673L178.835 975.333Z" fill="#D9AA54"/>
<path d="M1691.77 781.026L1685.2 787.598L1691.77 794.17L1698.34 787.598L1691.77 781.026Z" fill="#7C5D45"/>
<path d="M891.686 341.634L859.327 373.993L891.686 406.352L924.045 373.993L891.686 341.634Z" fill="#D9AA54"/>
<path d="M1049.74 829.372L1002.53 876.585L1049.74 923.799L1096.95 876.585L1049.74 829.372Z" fill="#7C5D45"/>
<path d="M994.714 934.474L972.539 956.649L994.714 978.825L1016.89 956.649L994.714 934.474Z" fill="#7C5D45"/>
<path d="M1149.32 233.898L1126.19 257.032L1149.32 280.166L1172.46 257.032L1149.32 233.898Z" fill="#D9AA54"/>
<path d="M1058.19 235.506L1045.05 248.653L1058.19 261.801L1071.34 248.653L1058.19 235.506Z" fill="#D9AA54"/>
<path d="M841.922 186.505L828.774 199.652L841.922 212.8L855.069 199.652L841.922 186.505Z" fill="#D9AA54"/>
<path d="M1714.9 692.747L1691.76 715.881L1714.9 739.015L1738.03 715.881L1714.9 692.747Z" fill="#7C5D45"/>
<path d="M1778.95 774.444L1765.8 787.592L1778.95 800.739L1792.09 787.592L1778.95 774.444Z" fill="#7C5D45"/>
</g>
<defs>
<clipPath id="clip0_1_4">
<rect width="1920" height="1080" fill="white"/>
</clipPath>
</defs>
</svg>
