<svg width="1600" height="900" viewBox="0 0 1600 900" fill="none" xmlns="http://www.w3.org/2000/svg">
<g clip-path="url(#clip0_1_4)">
<mask id="mask0_1_4" style="mask-type:luminance" maskUnits="userSpaceOnUse" x="0" y="0" width="1601" height="900">
<path d="M1600 0H0V900H1600V0Z" fill="white"/>
</mask>
<g mask="url(#mask0_1_4)">
<path d="M1600 0H0V900H1600V0Z" fill="white"/>
<path d="M1620.61 146.633C1620.61 146.633 1379.89 99.045 1194.29 213.917C1038.09 310.592 1062.05 402.755 813.517 492.473C676.787 541.829 600.324 462.015 401.619 488.16C256.924 507.199 236.71 592.459 134.771 610.846C68.1578 622.861 -25.3333 591.687 -25.3333 591.687V842.184H1620.61V146.633Z" fill="#ECFBE7"/>
<path d="M-25.3312 111.874C-25.3312 111.874 257.325 61.344 423.895 168.611C624.905 298.058 616.262 380.914 826.351 470.09C962.451 527.861 994.953 472.108 1193.66 501.971C1338.35 523.717 1358.57 621.103 1460.51 642.105C1527.12 655.83 1620.61 620.221 1620.61 620.221V906.341H-25.3312V111.874Z" fill="#DCEDD8"/>
</g>
<mask id="mask1_1_4" style="mask-type:luminance" maskUnits="userSpaceOnUse" x="0" y="0" width="1601" height="900">
<path d="M1600 0H0V900H1600V0Z" fill="white"/>
</mask>
<g mask="url(#mask1_1_4)">
<path opacity="0.2" d="M1477.61 868.358C1697.41 868.358 1875.59 718.02 1875.59 532.568C1875.59 347.116 1697.41 196.778 1477.61 196.778C1257.82 196.778 1079.64 347.116 1079.64 532.568C1079.64 718.02 1257.82 868.358 1477.61 868.358Z" fill="#F8E565"/>
<path opacity="0.4" d="M1707.55 726.593C1834.55 619.438 1834.55 445.705 1707.55 338.55C1580.55 231.395 1374.65 231.395 1247.65 338.55C1120.65 445.705 1120.65 619.438 1247.65 726.593C1374.65 833.748 1580.55 833.748 1707.55 726.593Z" fill="#F8E565"/>
<path d="M1477.61 734.186C1609.58 734.186 1716.57 643.918 1716.57 532.566C1716.57 421.214 1609.58 330.946 1477.61 330.946C1345.64 330.946 1238.66 421.214 1238.66 532.566C1238.66 643.918 1345.64 734.186 1477.61 734.186Z" fill="url(#paint0_linear_1_4)"/>
<path d="M1684.31 637.355C1684.31 637.355 1544.26 521.345 1377.24 503.163C1182.19 481.93 1070.17 546.48 857.058 542.614C678.342 539.37 559.155 450 366.667 450C101.882 450 -114.432 602.552 -114.432 602.552V931.246H1670.56L1684.31 637.355Z" fill="url(#paint1_linear_1_4)"/>
<path d="M132.188 437.468C142.377 423.914 151.369 410.756 152.457 400.219C154.782 412.519 161.124 424.026 170.63 434.907L162.283 435.071C163.366 442.373 170.903 450.875 179.987 459.661L171.571 460.782C173.419 468.175 183.437 480.326 193.897 492.737L172.399 491.67L178.468 499.779L148.209 495.567L122.135 498.668L127.648 492.467L105.715 494.017C118.074 483.363 127.522 472.455 131.394 461.057L123.332 460.728C131.742 452.144 138.603 443.543 142.048 434.907L132.188 437.468Z" fill="url(#paint2_linear_1_4)"/>
<path d="M201.175 437.938C207.814 429.106 213.673 420.532 214.383 413.667C215.898 421.681 220.03 429.179 226.225 436.27L220.785 436.376C221.491 441.135 226.402 446.674 232.322 452.399L226.837 453.13C228.041 457.947 234.569 465.865 241.385 473.953L227.377 473.258L231.332 478.541L211.616 475.796L194.626 477.815L198.219 473.774L183.927 474.784C191.981 467.842 198.135 460.733 200.659 453.307L195.407 453.092C200.885 447.5 205.357 441.895 207.601 436.268L201.175 437.938Z" fill="url(#paint3_linear_1_4)"/>
<path d="M275.42 437.938C282.059 429.106 287.919 420.532 288.627 413.667C290.142 421.681 294.274 429.179 300.469 436.27L295.029 436.376C295.735 441.135 300.646 446.674 306.566 452.399L301.084 453.13C302.287 457.947 308.815 465.865 315.631 473.953L301.623 473.258L305.579 478.541L285.862 475.796L268.873 477.815L272.465 473.774L258.174 474.784C266.227 467.842 272.382 460.733 274.906 453.307L269.653 453.092C275.132 447.5 279.603 441.895 281.847 436.268L275.42 437.938Z" fill="url(#paint4_linear_1_4)"/>
<path d="M37.0859 491.616C43.7248 482.783 49.5829 474.21 50.2933 467.345C51.808 475.358 55.9403 482.857 62.1355 489.947L56.6955 490.054C57.4016 494.813 62.3125 500.351 68.2325 506.077L62.7499 506.808C63.9531 511.625 70.4811 519.543 77.2971 527.63L63.2896 526.936L67.2448 532.22L47.5285 529.475L30.5387 531.495L34.1312 527.454L19.84 528.464C27.8933 521.521 34.048 514.413 36.5717 506.986L31.3173 506.772C36.7957 501.178 41.2672 495.574 43.5136 489.947L37.0859 491.616Z" fill="url(#paint5_linear_1_4)"/>
<path d="M360.425 459.178C367.063 450.346 372.924 441.772 373.632 434.907C375.147 442.921 379.279 450.419 385.474 457.51L380.034 457.616C380.74 462.375 385.651 467.914 391.571 473.639L386.086 474.37C387.29 479.187 393.818 487.105 400.634 495.193L386.626 494.498L390.581 499.783L370.865 497.038L353.875 499.057L357.468 495.016L343.177 496.026C351.23 489.083 357.385 481.975 359.908 474.548L354.656 474.334C360.134 468.742 364.606 463.136 366.85 457.51L360.425 459.178Z" fill="url(#paint6_linear_1_4)"/>
<path d="M447.034 435.429C453.673 426.596 459.531 418.023 460.241 411.158C461.756 419.171 465.888 426.67 472.083 433.76L466.643 433.867C467.349 438.626 472.26 444.164 478.18 449.888L472.695 450.619C473.899 455.436 480.427 463.354 487.243 471.442L473.235 470.747L477.19 476.032L457.474 473.287L440.484 475.306L444.077 471.265L429.786 472.275C437.839 465.332 443.994 458.224 446.517 450.797L441.265 450.583C446.743 444.991 451.215 439.385 453.459 433.759L447.034 435.429Z" fill="url(#paint7_linear_1_4)"/>
<path d="M1113.38 491.616C1120.02 482.783 1125.88 474.21 1126.59 467.345C1128.1 475.358 1132.23 482.857 1138.43 489.947L1132.99 490.054C1133.7 494.813 1138.61 500.351 1144.53 506.077L1139.04 506.808C1140.25 511.625 1146.78 519.543 1153.59 527.63L1139.58 526.936L1143.54 532.22L1123.82 529.475L1106.83 531.495L1110.43 527.454L1096.13 528.464C1104.19 521.521 1110.34 514.413 1112.87 506.986L1107.61 506.772C1113.09 501.178 1117.56 495.574 1119.81 489.947L1113.38 491.616Z" fill="url(#paint8_linear_1_4)"/>
<path d="M1224.54 532.674C1231.18 523.841 1237.03 515.268 1237.75 508.403C1239.26 516.416 1243.39 523.915 1249.59 531.005L1244.15 531.112C1244.85 535.871 1249.76 541.409 1255.68 547.135L1250.2 547.866C1251.4 552.683 1257.93 560.601 1264.75 568.688L1250.74 567.994L1254.69 573.277L1234.98 570.532L1217.99 572.551L1221.58 568.51L1207.29 569.52C1215.34 562.577 1221.5 555.469 1224.02 548.042L1218.77 547.828C1224.25 542.236 1228.72 536.63 1230.96 531.004L1224.54 532.674Z" fill="url(#paint9_linear_1_4)"/>
<path d="M1459.49 488.662C1467.99 477.353 1475.49 466.375 1476.4 457.583C1478.34 467.845 1483.63 477.446 1491.56 486.526L1484.6 486.662C1485.5 492.755 1491.79 499.847 1499.37 507.179L1492.35 508.115C1493.89 514.283 1502.24 524.421 1510.97 534.776L1493.04 533.885L1498.1 540.652L1472.86 537.138L1451.1 539.725L1455.7 534.55L1437.4 535.844C1447.71 526.955 1455.59 517.853 1458.82 508.343L1452.1 508.068C1459.11 500.906 1464.84 493.729 1467.71 486.524L1459.49 488.662Z" fill="url(#paint10_linear_1_4)"/>
<path d="M1229.37 462.137C1237.88 450.828 1245.38 439.85 1246.28 431.059C1248.22 441.32 1253.51 450.922 1261.45 460.001L1254.48 460.138C1255.39 466.231 1261.68 473.323 1269.26 480.654L1262.23 481.59C1263.78 487.759 1272.13 497.896 1280.86 508.252L1262.92 507.361L1267.99 514.127L1242.74 510.613L1220.99 513.2L1225.59 508.025L1207.29 509.319C1217.6 500.431 1225.48 491.328 1228.71 481.819L1221.99 481.543C1229 474.381 1234.73 467.204 1237.6 459.999L1229.37 462.137Z" fill="url(#paint11_linear_1_4)"/>
<path d="M472.602 439.434C478.025 432.221 482.81 425.219 483.388 419.612C484.625 426.157 488 432.281 493.058 438.071L488.617 438.158C489.193 442.044 493.205 446.567 498.037 451.244L493.56 451.84C494.543 455.774 499.872 462.24 505.44 468.844L493.999 468.275L497.229 472.59L481.126 470.349L467.251 472L470.185 468.7L458.513 469.525C465.09 463.855 470.116 458.05 472.179 451.985L467.889 451.811C472.365 447.242 476.015 442.665 477.85 438.07L472.602 439.434Z" fill="url(#paint12_linear_1_4)"/>
<path d="M542.325 501.547C547.746 494.334 552.533 487.332 553.111 481.725C554.349 488.27 557.724 494.393 562.782 500.184L558.34 500.272C558.918 504.158 562.929 508.682 567.763 513.358L563.285 513.956C564.269 517.889 569.6 524.356 575.166 530.96L563.725 530.393L566.955 534.708L550.852 532.467L536.977 534.118L539.91 530.818L528.239 531.643C534.816 525.973 539.842 520.168 541.905 514.103L537.615 513.929C542.091 509.36 545.741 504.785 547.575 500.188L542.325 501.547Z" fill="url(#paint13_linear_1_4)"/>
<path d="M518.863 450.302C524.286 443.09 529.071 436.088 529.649 430.481C530.886 437.026 534.261 443.149 539.32 448.94L534.878 449.026C535.456 452.912 539.467 457.436 544.301 462.112L539.823 462.708C540.806 466.643 546.138 473.108 551.703 479.713L540.265 479.146L543.494 483.46L527.392 481.219L513.517 482.87L516.45 479.57L504.779 480.395C511.356 474.725 516.382 468.92 518.445 462.856L514.155 462.681C518.63 458.113 522.281 453.537 524.115 448.94L518.863 450.302Z" fill="url(#paint14_linear_1_4)"/>
<path d="M836.813 523.577C841.015 517.988 844.723 512.561 845.171 508.216C846.129 513.288 848.745 518.033 852.666 522.52L849.222 522.589C849.67 525.6 852.779 529.106 856.525 532.73L853.054 533.192C853.815 536.242 857.948 541.253 862.261 546.37L853.395 545.931L855.898 549.275L843.418 547.538L832.666 548.816L834.94 546.259L825.894 546.898C830.991 542.504 834.886 538.006 836.484 533.304L833.158 533.167C836.627 529.627 839.456 526.081 840.877 522.518L836.813 523.577Z" fill="url(#paint15_linear_1_4)"/>
<path d="M649.675 541.399C656.077 532.881 661.728 524.614 662.411 517.991C663.872 525.721 667.857 532.951 673.83 539.789L668.584 539.892C669.265 544.482 674.003 549.823 679.71 555.345L674.421 556.049C675.582 560.695 681.877 568.33 688.45 576.13L674.942 575.46L678.756 580.556L659.742 577.91L643.358 579.857L646.822 575.96L633.041 576.934C640.806 570.24 646.743 563.384 649.178 556.222L644.111 556.015C649.395 550.62 653.707 545.216 655.872 539.789L649.675 541.399Z" fill="url(#paint16_linear_1_4)"/>
<path d="M287.612 485.248C294.014 476.73 299.665 468.463 300.35 461.84C301.811 469.57 305.796 476.8 311.77 483.638L306.524 483.741C307.204 488.331 311.942 493.672 317.649 499.194L312.361 499.898C313.521 504.544 319.817 512.179 326.389 519.979L312.881 519.309L316.695 524.405L297.681 521.759L281.297 523.708L284.762 519.811L270.98 520.785C278.746 514.091 284.683 507.235 287.117 500.072L282.05 499.865C287.334 494.471 291.646 489.067 293.811 483.64L287.612 485.248Z" fill="url(#paint17_linear_1_4)"/>
<path d="M1375.8 487.955C1380 482.366 1383.71 476.939 1384.16 472.594C1385.12 477.666 1387.73 482.411 1391.65 486.898L1388.21 486.965C1388.66 489.976 1391.77 493.483 1395.51 497.106L1392.04 497.569C1392.8 500.618 1396.93 505.629 1401.25 510.746L1392.38 510.305L1394.88 513.65L1382.41 511.913L1371.65 513.191L1373.93 510.633L1364.88 511.272C1369.98 506.878 1373.88 502.38 1375.47 497.678L1372.15 497.542C1375.62 494.001 1378.44 490.455 1379.87 486.893L1375.8 487.955Z" fill="url(#paint18_linear_1_4)"/>
<path d="M1088.87 515.142C1093.07 509.551 1096.78 504.126 1097.22 499.781C1098.18 504.853 1100.8 509.598 1104.72 514.085L1101.28 514.154C1101.72 517.165 1104.83 520.672 1108.58 524.295L1105.11 524.758C1105.87 527.807 1110 532.818 1114.31 537.935L1105.45 537.494L1107.95 540.839L1095.47 539.102L1084.72 540.38L1087 537.822L1077.95 538.461C1083.05 534.067 1086.94 529.569 1088.54 524.867L1085.21 524.731C1088.68 521.19 1091.51 517.644 1092.93 514.082L1088.87 515.142Z" fill="url(#paint19_linear_1_4)"/>
<path d="M1307.55 487.955C1311.75 482.366 1315.46 476.939 1315.91 472.594C1316.86 477.666 1319.48 482.411 1323.4 486.898L1319.96 486.965C1320.41 489.976 1323.51 493.483 1327.26 497.106L1323.79 497.569C1324.55 500.618 1328.68 505.629 1333 510.746L1324.13 510.305L1326.63 513.65L1314.15 511.913L1303.4 513.191L1305.68 510.633L1296.63 511.272C1301.73 506.878 1305.62 502.38 1307.22 497.678L1303.9 497.542C1307.36 494.001 1310.2 490.455 1311.62 486.893L1307.55 487.955Z" fill="url(#paint20_linear_1_4)"/>
<path d="M1265.44 558.999C1269.65 553.408 1273.35 547.983 1273.8 543.638C1274.76 548.71 1277.38 553.455 1281.3 557.942L1277.85 558.011C1278.3 561.022 1281.41 564.529 1285.16 568.152L1281.69 568.615C1282.45 571.664 1286.58 576.675 1290.89 581.792L1282.03 581.353L1284.53 584.698L1272.05 582.961L1261.3 584.239L1263.57 581.681L1254.53 582.32C1259.62 577.926 1263.52 573.428 1265.12 568.726L1261.79 568.589C1265.26 565.049 1268.09 561.503 1269.51 557.941L1265.44 558.999Z" fill="url(#paint21_linear_1_4)"/>
<path d="M1074.91 558.999C1079.11 553.408 1082.82 547.983 1083.27 543.638C1084.22 548.71 1086.84 553.455 1090.76 557.942L1087.32 558.011C1087.77 561.022 1090.87 564.529 1094.62 568.152L1091.15 568.615C1091.91 571.664 1096.04 576.675 1100.36 581.792L1091.49 581.353L1093.99 584.698L1081.51 582.961L1070.76 584.239L1073.04 581.681L1063.99 582.32C1069.09 577.926 1072.98 573.428 1074.58 568.726L1071.26 568.589C1074.72 565.049 1077.55 561.503 1078.97 557.941L1074.91 558.999Z" fill="url(#paint22_linear_1_4)"/>
<path d="M774.549 579.528C778.752 573.937 782.46 568.512 782.908 564.167C783.866 569.239 786.481 573.984 790.402 578.473L786.959 578.542C787.407 581.553 790.515 585.059 794.261 588.683L790.79 589.145C791.552 592.195 795.684 597.206 799.998 602.323L791.132 601.882L793.634 605.227L781.156 603.49L770.404 604.769L772.678 602.212L763.633 602.851C768.73 598.457 772.625 593.959 774.223 589.257L770.897 589.12C774.364 585.58 777.195 582.034 778.615 578.471L774.549 579.528Z" fill="url(#paint23_linear_1_4)"/>
<path d="M713.822 524.324C718.025 518.733 721.732 513.308 722.18 508.963C723.138 514.035 725.754 518.78 729.675 523.267L726.231 523.334C726.679 526.345 729.788 529.852 733.534 533.475L730.063 533.938C730.825 536.987 734.957 541.998 739.27 547.115L730.404 546.674L732.907 550.019L720.427 548.282L709.675 549.56L711.949 547.002L702.903 547.641C708 543.247 711.895 538.749 713.493 534.047L710.167 533.911C713.634 530.37 716.465 526.824 717.886 523.262L713.822 524.324Z" fill="url(#paint24_linear_1_4)"/>
<path d="M731.529 512.748C734.266 509.105 736.683 505.57 736.975 502.738C737.6 506.043 739.305 509.135 741.858 512.059L739.614 512.102C739.906 514.064 741.931 516.348 744.371 518.71L742.11 519.01C742.607 520.997 745.299 524.263 748.109 527.598L742.332 527.312L743.962 529.492L735.831 528.359L728.826 529.193L730.306 527.526L724.412 527.942C727.733 525.078 730.272 522.148 731.313 519.084L729.146 518.996C731.405 516.688 733.25 514.379 734.176 512.057L731.529 512.748Z" fill="url(#paint25_linear_1_4)"/>
<path d="M1020.36 526.124C1023.1 522.482 1025.52 518.945 1025.81 516.114C1026.44 519.419 1028.14 522.511 1030.69 525.434L1028.45 525.478C1028.74 527.44 1030.77 529.724 1033.21 532.085L1030.95 532.386C1031.45 534.373 1034.14 537.638 1036.95 540.972L1031.17 540.686L1032.8 542.866L1024.67 541.733L1017.67 542.567L1019.15 540.9L1013.25 541.318C1016.57 538.454 1019.11 535.523 1020.15 532.46L1017.99 532.372C1020.25 530.066 1022.09 527.755 1023.02 525.433L1020.36 526.124Z" fill="url(#paint26_linear_1_4)"/>
<path d="M1454.28 526.124C1457.02 522.482 1459.43 518.945 1459.72 516.114C1460.35 519.419 1462.05 522.511 1464.61 525.434L1462.36 525.478C1462.66 527.44 1464.68 529.724 1467.12 532.085L1464.86 532.386C1465.36 534.373 1468.05 537.638 1470.86 540.972L1465.08 540.686L1466.71 542.866L1458.58 541.733L1451.58 542.567L1453.06 540.9L1447.16 541.318C1450.48 538.454 1453.02 535.523 1454.06 532.46L1451.9 532.372C1454.15 530.066 1456 527.755 1456.92 525.433L1454.28 526.124Z" fill="url(#paint27_linear_1_4)"/>
<path d="M1396.51 590.564C1399.25 586.922 1401.67 583.385 1401.96 580.554C1402.59 583.859 1404.29 586.951 1406.84 589.874L1404.6 589.919C1404.89 591.881 1406.92 594.166 1409.36 596.527L1407.1 596.828C1407.59 598.815 1410.28 602.08 1413.09 605.414L1407.32 605.128L1408.95 607.307L1400.82 606.175L1393.81 607.009L1395.29 605.342L1389.4 605.759C1392.72 602.896 1395.26 599.965 1396.3 596.902L1394.13 596.813C1396.39 594.508 1398.23 592.196 1399.16 589.874L1396.51 590.564Z" fill="url(#paint28_linear_1_4)"/>
<path d="M1148.86 566.912C1151.59 563.269 1154.01 559.733 1154.3 556.902C1154.93 560.207 1156.63 563.299 1159.18 566.222L1156.94 566.267C1157.24 568.229 1159.26 570.514 1161.7 572.875L1159.44 573.176C1159.94 575.163 1162.63 578.428 1165.44 581.764L1159.66 581.477L1161.29 583.657L1153.16 582.525L1146.16 583.358L1147.64 581.692L1141.74 582.107C1145.06 579.245 1147.6 576.313 1148.64 573.25L1146.48 573.161C1148.74 570.856 1150.58 568.544 1151.51 566.222L1148.86 566.912Z" fill="url(#paint29_linear_1_4)"/>
<path d="M1048.6 565.727C1051.14 562.343 1053.39 559.057 1053.66 556.427C1054.24 559.498 1055.82 562.37 1058.2 565.088L1056.11 565.13C1056.38 566.953 1058.27 569.075 1060.53 571.27L1058.43 571.55C1058.89 573.397 1061.4 576.43 1064.01 579.53L1058.64 579.263L1060.16 581.288L1052.6 580.237L1046.09 581.011L1047.46 579.463L1041.99 579.85C1045.08 577.19 1047.43 574.466 1048.4 571.621L1046.39 571.538C1048.49 569.394 1050.2 567.247 1051.06 565.09L1048.6 565.727Z" fill="url(#paint30_linear_1_4)"/>
<path d="M593.052 482.603C595.789 478.962 598.206 475.425 598.498 472.594C599.123 475.898 600.828 478.991 603.381 481.914L601.137 481.959C601.429 483.921 603.454 486.205 605.894 488.567L603.633 488.867C604.13 490.855 606.822 494.12 609.632 497.453L603.855 497.167L605.485 499.347L597.355 498.215L590.349 499.048L591.829 497.381L585.935 497.799C589.257 494.935 591.795 492.005 592.836 488.941L590.669 488.853C592.928 486.547 594.771 484.236 595.697 481.914L593.052 482.603Z" fill="url(#paint31_linear_1_4)"/>
<path d="M568.171 495.751C570.908 492.109 573.325 488.572 573.617 485.741C574.242 489.046 575.947 492.138 578.5 495.061L576.256 495.104C576.548 497.066 578.573 499.351 581.013 501.712L578.752 502.013C579.249 504 581.941 507.265 584.751 510.601L578.974 510.314L580.604 512.494L572.474 511.362L565.468 512.195L566.948 510.529L561.054 510.944C564.375 508.082 566.914 505.15 567.955 502.087L565.788 501.998C568.047 499.693 569.89 497.381 570.816 495.059L568.171 495.751Z" fill="url(#paint32_linear_1_4)"/>
<path d="M435.836 538.627C438.573 534.985 440.99 531.448 441.282 528.617C441.907 531.922 443.612 535.014 446.165 537.937L443.923 537.982C444.216 539.944 446.24 542.228 448.681 544.59L446.419 544.891C446.916 546.878 449.609 550.143 452.418 553.478L446.641 553.192L448.271 555.372L440.141 554.24L433.135 555.073L434.616 553.406L428.721 553.822C432.043 550.96 434.581 548.028 435.622 544.964L433.455 544.876C435.714 542.57 437.56 540.259 438.483 537.937L435.836 538.627Z" fill="url(#paint33_linear_1_4)"/>
<path d="M344.604 489.755C347.341 486.113 349.758 482.576 350.05 479.745C350.675 483.05 352.38 486.142 354.933 489.067L352.691 489.11C352.983 491.072 355.008 493.357 357.449 495.718L355.187 496.019C355.684 498.006 358.377 501.271 361.186 504.605L355.409 504.319L357.041 506.498L348.909 505.366L341.903 506.2L343.383 504.533L337.489 504.95C340.811 502.087 343.349 499.156 344.39 496.093L342.223 496.004C344.482 493.699 346.327 491.387 347.251 489.065L344.604 489.755Z" fill="url(#paint34_linear_1_4)"/>
<path d="M152.772 483.844C155.509 480.202 157.926 476.665 158.219 473.834C158.844 477.139 160.548 480.231 163.102 483.154L160.858 483.197C161.15 485.159 163.174 487.444 165.615 489.805L163.354 490.106C163.851 492.093 166.541 495.358 169.353 498.694L163.575 498.407L165.207 500.587L157.075 499.455L150.069 500.288L151.55 498.622L145.655 499.039C148.977 496.177 151.516 493.245 152.557 490.181L150.389 490.093C152.649 487.787 154.494 485.474 155.418 483.154L152.772 483.844Z" fill="url(#paint35_linear_1_4)"/>
<path d="M410.477 440.228C413.214 436.586 415.631 433.049 415.923 430.218C416.548 433.523 418.253 436.615 420.806 439.54L418.564 439.583C418.857 441.545 420.881 443.83 423.322 446.191L421.06 446.492C421.557 448.479 424.247 451.744 427.059 455.078L421.282 454.792L422.912 456.971L414.782 455.839L407.776 456.673L409.257 455.006L403.362 455.423C406.684 452.561 409.222 449.629 410.263 446.566L408.096 446.477C410.355 444.172 412.201 441.86 413.124 439.538L410.477 440.228Z" fill="url(#paint36_linear_1_4)"/>
<path d="M453.781 469.226C456.518 465.583 458.935 462.047 459.228 459.216C459.853 462.521 461.557 465.613 464.111 468.538L461.867 468.581C462.159 470.543 464.183 472.828 466.624 475.189L464.363 475.49C464.86 477.477 467.552 480.742 470.362 484.078L464.585 483.791L466.217 485.971L458.084 484.839L451.078 485.672L452.559 484.006L446.665 484.423C449.986 481.559 452.525 478.629 453.566 475.565L451.398 475.477C453.658 473.171 455.503 470.86 456.427 468.538L453.781 469.226Z" fill="url(#paint37_linear_1_4)"/>
<path d="M1553.28 544.106C1557.48 538.517 1561.19 533.09 1561.64 528.745C1562.6 533.817 1565.21 538.562 1569.13 543.049L1565.69 543.118C1566.14 546.129 1569.25 549.635 1572.99 553.259L1569.52 553.721C1570.28 556.771 1574.42 561.782 1578.73 566.899L1569.86 566.46L1572.37 569.804L1559.89 568.067L1549.14 569.345L1551.41 566.788L1542.37 567.427C1547.46 563.033 1551.36 558.535 1552.96 553.833L1549.63 553.696C1553.1 550.156 1555.93 546.61 1557.35 543.047L1553.28 544.106Z" fill="url(#paint38_linear_1_4)"/>
<path d="M1430.13 565.11C1434.34 559.519 1438.04 554.094 1438.49 549.749C1439.45 554.821 1442.07 559.566 1445.99 564.053L1442.54 564.122C1442.99 567.133 1446.1 570.64 1449.85 574.263L1446.37 574.726C1447.14 577.775 1451.27 582.786 1455.58 587.903L1446.72 587.462L1449.22 590.807L1436.74 589.07L1425.99 590.35L1428.26 587.792L1419.21 588.431C1424.31 584.037 1428.21 579.539 1429.8 574.837L1426.48 574.7C1429.95 571.16 1432.78 567.614 1434.2 564.052L1430.13 565.11Z" fill="url(#paint39_linear_1_4)"/>
<path d="M300.794 440.228C303.531 436.586 305.948 433.049 306.24 430.218C306.865 433.523 308.57 436.615 311.123 439.54L308.881 439.583C309.173 441.545 311.198 443.83 313.638 446.191L311.377 446.492C311.874 448.479 314.566 451.744 317.376 455.078L311.599 454.792L313.231 456.971L305.101 455.839L298.095 456.673L299.575 455.006L293.681 455.423C297.003 452.561 299.541 449.629 300.582 446.566L298.417 446.477C300.676 444.172 302.519 441.86 303.445 439.538L300.794 440.228Z" fill="url(#paint40_linear_1_4)"/>
<path d="M253.438 469.226C256.175 465.583 258.592 462.047 258.884 459.216C259.509 462.521 261.214 465.613 263.767 468.538L261.523 468.581C261.815 470.543 263.84 472.828 266.281 475.189L264.019 475.49C264.516 477.477 267.206 480.742 270.018 484.078L264.241 483.791L265.873 485.971L257.743 484.839L250.737 485.672L252.218 484.006L246.323 484.423C249.645 481.559 252.183 478.629 253.225 475.565L251.057 475.477C253.316 473.171 255.159 470.86 256.085 468.538L253.438 469.226Z" fill="url(#paint41_linear_1_4)"/>
<path d="M1324.17 518.288C1332.67 506.979 1340.18 496.001 1341.08 487.21C1343.02 497.471 1348.31 507.073 1356.25 516.152L1349.28 516.289C1350.19 522.382 1356.48 529.474 1364.06 536.805L1357.03 537.741C1358.57 543.91 1366.93 554.047 1375.66 564.403L1357.72 563.512L1362.79 570.278L1337.54 566.764L1315.79 569.351L1320.39 564.176L1302.09 565.47C1312.4 556.582 1320.28 547.479 1323.51 537.97L1316.78 537.694C1323.8 530.532 1329.53 523.355 1332.4 516.15L1324.17 518.288Z" fill="url(#paint42_linear_1_4)"/>
<path opacity="0.5" d="M875.409 542.776C875.409 542.776 899.966 597.899 971.635 612.22C1063.31 630.538 1246.62 652.822 1173.29 703.094C1099.96 753.365 815.81 799.769 971.635 913.846L1251.2 929.313C1251.2 929.313 1047.26 850.039 1171 776.567C1294.74 703.094 1238.14 644.076 1132.03 626.114C1018.89 606.964 930.4 584.528 935.164 541.001L875.409 542.776Z" fill="#6FB8A2"/>
<path d="M52.6422 308.302H305.779C305.779 308.302 297.079 276.602 263.354 283.991C245.216 287.966 255.526 251.224 224.828 250.177C195.932 249.192 192.495 277.663 192.495 277.663C192.495 277.663 177.385 253.84 151.648 261.688C130.978 267.991 129.094 290.284 129.094 290.284C129.094 290.284 69.423 294.853 52.6422 308.302Z" fill="white"/>
<path d="M1193.43 432.403H1356.17C1356.17 432.403 1342.2 421.636 1329.87 421.636C1329.87 421.636 1325.76 402.217 1310.14 400.136C1294.53 398.056 1291.24 416.27 1291.24 416.27C1291.24 416.27 1283.02 406.377 1274.8 407.765C1266.58 409.153 1266.58 421.636 1266.58 421.636L1193.43 432.403Z" fill="white"/>
<path d="M1321.92 279.227H1688.17C1688.17 279.227 1677.71 258.599 1649.61 258.084C1624.27 257.62 1620.7 268.506 1620.7 268.506H1543.6C1543.6 268.506 1533.78 234.963 1505.05 231.295C1471.75 227.045 1456.86 252.391 1456.86 252.391C1456.86 252.391 1430.91 245.558 1414.45 252.356C1402.05 257.479 1395.17 269.467 1395.17 269.467C1395.17 269.467 1335.42 269.469 1321.92 279.227Z" fill="white"/>
<path d="M275.462 405.419H384.169C384.169 405.419 374.835 398.227 366.601 398.227C366.601 398.227 363.855 385.256 353.425 383.866C342.993 382.477 340.798 394.643 340.798 394.643C340.798 394.643 335.307 388.035 329.818 388.962C324.326 389.889 324.326 398.227 324.326 398.227L275.462 405.419Z" fill="white"/>
<path d="M1727.97 598.325C1727.97 598.325 1574.78 567.005 1390.77 672.516C1066.06 858.706 889.638 649.381 694.532 639.288C541.664 631.381 453.826 705.08 261.335 705.08C-3.4496 705.08 -118.498 559.534 -118.498 559.534L-114.434 931.244H1727.97L1727.97 598.325Z" fill="url(#paint43_linear_1_4)"/>
<path d="M1153.04 748.753C1153.04 748.753 1350.14 770.211 1366.4 819.916C1382.65 869.621 1090.13 870.41 1071.85 913.846H1465.93C1465.93 913.846 1521.61 868.889 1500.46 831.299C1463.34 765.322 1232.51 737.226 1232.51 737.226C1212.38 740.011 1184.26 746.471 1153.04 748.753Z" fill="#6FB8A2"/>
<path d="M1500.46 831.298C1463.35 765.32 1232.51 737.224 1232.51 737.224C1231.34 737.386 1230.13 737.564 1228.9 737.75C1259.92 741.875 1458.57 770.506 1492.77 831.298C1513.92 868.887 1458.24 913.844 1458.24 913.844H1465.93C1465.93 913.844 1521.61 868.887 1500.46 831.298Z" fill="#497C74"/>
<path d="M1727.97 736.583C1727.97 736.583 1568.72 733.675 1375.66 789.626C886.993 931.246 481.988 763.767 305.527 738.664C176.762 720.346 -59.6181 709.123 -59.6181 709.123L-55.5563 931.248H1727.97V736.583Z" fill="url(#paint44_linear_1_4)"/>
<path d="M575.166 855.205L613.346 825.961L648.326 818.285L697.077 813.089L763.633 850.023L575.166 855.205Z" fill="#BC9F70"/>
<path d="M697.493 815.15L677.54 822.893L694.099 832.748H716.597L740.371 841.345L697.493 815.15Z" fill="#A68158"/>
<path d="M1338.87 860.479C1241.98 888.557 1075.2 906.435 942.645 881.833C932.486 879.593 921.719 877.259 910.532 874.885C910.524 874.883 910.513 874.881 910.504 874.877C858.835 863.914 798.298 852.143 748.111 845.388C635.637 830.246 474.628 865.67 415.211 863.957C355.793 862.243 295.147 843.406 226.458 820.667C113.382 783.23 -25.3312 845.323 -25.3312 845.323L-45.3973 900.855L1643.81 906.341L1655.14 857.808C1655.14 857.808 1542.37 801.515 1338.87 860.479Z" fill="url(#paint45_linear_1_4)"/>
<path d="M44.3243 675.499L32.6976 683.878L48.0576 666.317C32.896 630.801 10.4832 619.349 10.4832 619.349C-76.3669 725.389 36.7104 874.784 36.7104 874.784C68.736 778.291 65.1947 716.269 52.2944 677.531C51.3173 674.604 47.0677 673.524 44.3243 675.499Z" fill="#3C5634"/>
<path d="M15.2917 648.752L40.0363 913.097" stroke="#9AB892" stroke-width="0.6609" stroke-miterlimit="10"/>
<path d="M-5.6832 682.988L20.096 702.659" stroke="#9AB892" stroke-width="0.6609" stroke-miterlimit="10"/>
<path d="M-2.6944 727.994L24.3072 747.085" stroke="#9AB892" stroke-width="0.6609" stroke-miterlimit="10"/>
<path d="M4.37122 779.841L29.0176 796.81" stroke="#9AB892" stroke-width="0.6609" stroke-miterlimit="10"/>
<path d="M45.3269 750.721L27.4603 780.377" stroke="#9AB892" stroke-width="0.6609" stroke-miterlimit="10"/>
<path d="M38.5664 698.881L22.3701 726.649" stroke="#9AB892" stroke-width="0.6609" stroke-miterlimit="10"/>
<path d="M28.5206 661.028L17.9563 680.065" stroke="#9AB892" stroke-width="0.6609" stroke-miterlimit="10"/>
<path d="M127.578 795.474L119.895 796.147L132.247 792.558C138.003 774.121 132.572 763.938 132.572 763.938C60.4331 787.043 56.7253 876.521 56.7253 876.521C102.818 844.132 122.411 817.479 130.202 798.248C130.79 796.792 129.391 795.316 127.578 795.474Z" fill="#3C5634"/>
<path d="M124.587 777.33L45.0966 893.259" stroke="#9AB892" stroke-width="0.3338" stroke-miterlimit="10"/>
<path d="M104.237 786.497L108.277 800.912" stroke="#9AB892" stroke-width="0.3338" stroke-miterlimit="10"/>
<path d="M90.1931 805.939L94.9397 820.408" stroke="#9AB892" stroke-width="0.3338" stroke-miterlimit="10"/>
<path d="M75.5222 829.211L80.0107 842.227" stroke="#9AB892" stroke-width="0.3338" stroke-miterlimit="10"/>
<path d="M102.447 827.003L84.943 835.016" stroke="#9AB892" stroke-width="0.3338" stroke-miterlimit="10"/>
<path d="M117.242 803.806L101.075 811.44" stroke="#9AB892" stroke-width="0.3338" stroke-miterlimit="10"/>
<path d="M125.92 785.633L115.061 790.997" stroke="#9AB892" stroke-width="0.3338" stroke-miterlimit="10"/>
<path d="M-11.1872 905.913H202.94C202.94 905.913 186.219 880.412 174.187 874.881C162.155 869.35 139.473 847.327 139.473 847.327C139.473 847.327 118.349 834.939 105.717 833.861C93.088 832.783 -5.7728 798.428 -11.1893 799.609C-16.6059 800.789 -11.1872 905.913 -11.1872 905.913Z" fill="#BC9F70"/>
<path d="M36.7979 757.499C43.3024 767.504 52.096 774.662 52.1835 774.754C52.1856 774.9 54.8011 763.481 47.3664 752.083C39.9531 740.691 26.912 736.128 27.0656 736.223C27.1467 736.331 30.4533 747.466 36.7979 757.499Z" fill="#82CAA7"/>
<path d="M58.3872 760.824C56.9387 771.707 59.2149 783.839 59.1275 783.925C59.0016 783.877 68.5931 780.73 71.5093 769.493C74.5856 758.149 66.9888 743.737 66.8437 743.866C66.7136 743.825 59.9317 749.885 58.3872 760.824Z" fill="#82CAA7"/>
<path d="M68.6507 792.416C63.7611 802.339 62.2208 814.442 62.112 814.509C62.0117 814.442 72.2133 813.481 78.5408 803.435C85.0347 793.31 82.4427 778.221 82.2805 778.327C82.176 778.27 73.6491 782.455 68.6507 792.416Z" fill="#82CAA7"/>
<path d="M68.7061 824.719C60.96 833.195 55.8357 844.63 55.7077 844.675C55.6309 844.594 65.7749 845.836 74.9184 837.486C84.2347 829.084 86.3616 814.095 86.1824 814.172C86.1013 814.1 76.5675 816.228 68.7061 824.719Z" fill="#82CAA7"/>
<path d="M58.9973 856.031C48.9621 862.628 40.4821 872.748 40.3392 872.764C40.2859 872.671 49.7472 876.031 61.1349 869.821C72.7019 863.591 79.2555 849.49 79.0635 849.535C79.0059 849.451 69.1584 849.445 58.9973 856.031Z" fill="#82CAA7"/>
<path d="M128.299 865.019C124.39 871.031 119.106 875.331 119.055 875.387C119.053 875.475 117.483 868.613 121.95 861.764C126.404 854.919 134.24 852.178 134.148 852.235C134.097 852.3 132.111 858.991 128.299 865.019Z" fill="#82CAA7"/>
<path d="M115.326 867.017C116.196 873.556 114.829 880.846 114.882 880.897C114.957 880.868 109.195 878.978 107.443 872.224C105.596 865.408 110.159 856.748 110.246 856.827C110.323 856.802 114.398 860.445 115.326 867.017Z" fill="#82CAA7"/>
<path d="M109.158 886C112.096 891.963 113.022 899.233 113.086 899.275C113.146 899.235 107.017 898.657 103.215 892.62C99.3131 886.536 100.87 877.469 100.969 877.532C101.033 877.498 106.157 880.015 109.158 886Z" fill="#82CAA7"/>
<path d="M109.126 905.409C113.779 910.501 116.86 917.374 116.937 917.401C116.981 917.352 110.886 918.099 105.393 913.081C99.7952 908.032 98.5173 899.026 98.624 899.073C98.6731 899.028 104.401 900.308 109.126 905.409Z" fill="#82CAA7"/>
<path d="M127.249 871.803C121.312 874.717 118.65 881.798 118.754 881.766C118.78 881.822 124.555 882.101 129.764 878.998C134.901 875.914 138.513 870.937 138.592 870.916C138.609 870.975 133.077 868.921 127.249 871.803Z" fill="#82CAA7"/>
<path d="M122.163 887.951C117.387 891.97 117.005 899.316 117.092 899.267C117.133 899.316 122.797 898.326 126.857 894.236C130.857 890.174 132.721 884.711 132.785 884.68C132.817 884.732 126.848 883.978 122.163 887.951Z" fill="#82CAA7"/>
<path d="M122.381 905.096C119.051 910.028 120.977 917.233 121.047 917.17C121.101 917.21 126.251 914.981 128.877 910.109C131.46 905.272 131.52 899.606 131.569 899.566C131.618 899.611 125.638 900.225 122.381 905.096Z" fill="#82CAA7"/>
<path d="M126.084 862.418C100.83 899.575 123.066 951.158 178.359 963.331C178.217 963.698 178.074 964.064 177.931 964.431C121.862 951.768 99.9275 899.419 125.621 862.169C125.775 862.252 125.929 862.335 126.084 862.418Z" fill="#283820"/>
<path d="M110.404 864.67C111.488 871.434 113.717 877.621 116.749 883.102C121.647 879.214 126.955 876.033 132.446 873.589" stroke="#283820" stroke-width="0.2571" stroke-miterlimit="10"/>
<path d="M103.561 885.548C106.842 891.652 110.972 897.026 115.627 901.591C119.113 896.774 123.194 892.566 127.661 889.04" stroke="#283820" stroke-width="0.2571" stroke-miterlimit="10"/>
<path d="M38.1824 886.599C26.2848 890.757 14.4619 898.72 14.3019 898.702C14.272 898.6 22.3552 904.018 35.5499 900.54C48.9323 897.082 59.9147 884.835 59.7077 884.837C59.6757 884.745 50.2144 882.482 38.1824 886.599Z" fill="#82CAA7"/>
<path d="M38.5451 768.789C48.4267 773.638 52.8576 785.425 52.6827 785.371C52.64 785.462 43.0315 785.927 34.3595 780.763C25.8091 775.631 19.7995 767.347 19.6672 767.313C19.6374 767.412 28.8427 763.992 38.5451 768.789Z" fill="#82CAA7"/>
<path d="M47.008 795.663C54.9568 802.354 55.5925 814.577 55.4475 814.498C55.3792 814.581 45.9541 812.932 39.1979 806.125C32.5397 799.364 29.44 790.272 29.3333 790.22C29.2757 790.308 39.2107 789.053 47.008 795.663Z" fill="#82CAA7"/>
<path d="M46.6453 824.197C52.1877 832.405 48.9813 844.396 48.8661 844.294C48.7765 844.36 40.2069 840.65 35.8336 832.54C31.5349 824.49 31.4347 815.06 31.3536 814.993C31.2704 815.069 41.2245 816.093 46.6453 824.197Z" fill="#82CAA7"/>
<path d="M37.3376 851.769C40.1088 860.996 33.1797 872.015 33.0901 871.891C32.9792 871.936 25.8965 866.425 24.2645 857.525C22.6837 848.698 25.5488 839.48 25.4912 839.401C25.3867 839.459 34.6603 842.668 37.3376 851.769Z" fill="#82CAA7"/>
<path d="M20.2944 875.835C20.0939 885.474 9.70242 894.82 9.63842 894.677C9.51042 894.697 4.40109 887.81 5.70882 878.733C7.04642 869.735 12.7168 861.28 12.6784 861.194C12.5568 861.228 20.5654 866.34 20.2944 875.835Z" fill="#82CAA7"/>
<path d="M40.4843 753.169C82.5152 815.009 45.5083 900.859 -46.5152 921.118C-46.2784 921.728 -46.0395 922.338 -45.8005 922.948C47.5136 901.872 84.0171 814.75 41.2565 752.756C40.9984 752.893 40.7403 753.03 40.4843 753.169Z" fill="#283820"/>
<path d="M66.5771 756.918C64.7744 768.175 61.0624 778.473 56.0171 787.595C47.8656 781.126 39.0336 775.831 29.8944 771.764" stroke="#283820" stroke-width="0.4279" stroke-miterlimit="10"/>
<path d="M77.9691 791.665C72.5099 801.823 65.6341 810.769 57.8859 818.366C52.0854 810.351 45.2928 803.345 37.856 797.477" stroke="#283820" stroke-width="0.4279" stroke-miterlimit="10"/>
<path d="M77.7429 827.179C69.2907 835.699 59.8912 842.819 50.0501 848.484C46.9589 839.405 42.5963 831.107 37.2779 823.786" stroke="#283820" stroke-width="0.4279" stroke-miterlimit="10"/>
<path d="M66.4448 861.458C55.6352 867.872 44.3179 872.762 32.9664 876.154C32.9024 866.592 31.3109 857.52 28.4821 849.199" stroke="#283820" stroke-width="0.4279" stroke-miterlimit="10"/>
<path d="M44.6443 892.431C32.0832 896.341 19.4262 898.664 7.11469 899.509C10.351 890.147 11.8358 880.916 11.8272 872.147" stroke="#283820" stroke-width="0.4279" stroke-miterlimit="10"/>
<path d="M1551.05 929.504C1551.05 929.504 1491.08 841.259 1526.22 833.321C1551.15 827.687 1562.46 805.46 1549.56 781.621C1534.24 753.309 1535.04 721.195 1573.13 737.194C1601.79 749.228 1608.93 736.972 1622.92 711.538C1643.81 673.576 1690.39 697.676 1687.43 719.815C1682.38 757.579 1658.46 759.238 1665.87 770.357C1673.37 781.616 1687.43 776.927 1690.58 791.078C1695.97 815.269 1620.23 831.708 1622.92 845.311C1625.62 858.913 1637.11 859.313 1633.96 873.153C1629.83 891.281 1551.05 929.504 1551.05 929.504Z" fill="#3E6E48"/>
<path d="M1547.06 923.382C1547.06 923.382 1569.42 827.977 1653.89 715.772" stroke="#9AB892" stroke-width="0.9585" stroke-miterlimit="10"/>
<path d="M1566.43 757.217C1582.6 773.39 1588.65 788.146 1593.45 810.322" stroke="#9AB892" stroke-width="0.9585" stroke-miterlimit="10"/>
<path d="M1658.46 796.639C1637.4 795.002 1617.49 797.366 1598.14 801.679" stroke="#9AB892" stroke-width="0.9585" stroke-miterlimit="10"/>
<path d="M1534.24 847.687C1547.09 862.418 1554.66 877.583 1556.44 893.223" stroke="#9AB892" stroke-width="0.9585" stroke-miterlimit="10"/>
<path d="M1612.55 864.871C1593.81 867.218 1576.71 872.903 1560.89 881.17" stroke="#9AB892" stroke-width="0.9585" stroke-miterlimit="10"/>
<path d="M1540.4 923.382C1540.4 923.382 1518.84 758.732 1455.34 733.966C1455.34 733.966 1449.35 810.551 1540.4 923.382Z" fill="#6E945C"/>
<path d="M1535.98 929.353C1535.98 929.353 1387.72 897.487 1374.54 801.679C1374.54 801.679 1417.97 806.029 1444.93 819.169L1443.13 829.278L1450.84 822.901C1450.84 822.901 1521 871.735 1535.98 929.353Z" fill="#8CB293"/>
<path d="M1464.01 747.122C1464.01 747.122 1509.6 825.367 1539.83 920.038" stroke="#344A28" stroke-width="0.9585" stroke-miterlimit="10"/>
<path d="M1384.6 810.32L1535.98 925.657" stroke="#344A28" stroke-width="0.9585" stroke-miterlimit="10"/>
<path d="M563.285 794.659C560.567 799.236 554.79 801.437 554.79 801.437C554.79 801.437 553.421 796.216 556.141 791.638C558.859 787.061 564.636 784.859 564.636 784.859C564.636 784.859 566.005 790.079 563.285 794.659Z" fill="#82CAA7"/>
<path d="M550.46 794.646C552.375 799.504 550.135 804.508 550.135 804.508C550.135 804.508 544.791 801.634 542.878 796.774C540.962 791.915 543.202 786.911 543.202 786.911C543.202 786.911 548.546 789.788 550.46 794.646Z" fill="#82CAA7"/>
<path d="M543.501 806.369C545.414 811.228 543.177 816.232 543.177 816.232C543.177 816.232 537.833 813.355 535.919 808.497C534.005 803.639 536.243 798.635 536.243 798.635C536.243 798.635 541.585 801.511 543.501 806.369Z" fill="#82CAA7"/>
<path d="M536.54 818.093C538.453 822.951 536.215 827.955 536.215 827.955C536.215 827.955 530.871 825.08 528.958 820.22C527.044 815.36 529.282 810.358 529.282 810.358C529.282 810.358 534.624 813.233 536.54 818.093Z" fill="#82CAA7"/>
<path d="M529.579 829.816C531.492 834.674 529.252 839.678 529.252 839.678C529.252 839.678 523.908 836.804 521.995 831.944C520.079 827.086 522.319 822.082 522.319 822.082C522.319 822.082 527.663 824.956 529.579 829.816Z" fill="#82CAA7"/>
<path d="M522.089 842.431C524.004 847.289 521.764 852.293 521.764 852.293C521.764 852.293 516.42 849.416 514.507 844.558C512.593 839.7 514.831 834.696 514.831 834.696C514.831 834.696 520.173 837.572 522.089 842.431Z" fill="#82CAA7"/>
<path d="M563.153 800.012C557.395 801.626 553.986 806.135 553.986 806.135C553.986 806.135 559.915 808.025 565.675 806.409C571.433 804.794 574.842 800.285 574.842 800.285C574.842 800.285 568.911 798.395 563.153 800.012Z" fill="#82CAA7"/>
<path d="M556.192 811.735C550.434 813.352 547.025 817.859 547.025 817.859C547.025 817.859 552.954 819.749 558.714 818.132C564.471 816.518 567.881 812.009 567.881 812.009C567.881 812.009 561.952 810.119 556.192 811.735Z" fill="#82CAA7"/>
<path d="M548.966 823.903C543.209 825.518 539.799 830.027 539.799 830.027C539.799 830.027 545.728 831.917 551.488 830.3C557.246 828.686 560.655 824.177 560.655 824.177C560.655 824.177 554.726 822.289 548.966 823.903Z" fill="#82CAA7"/>
<path d="M541.741 836.073C535.983 837.688 532.574 842.197 532.574 842.197C532.574 842.197 538.502 844.087 544.262 842.47C550.02 840.856 553.429 836.347 553.429 836.347C553.429 836.347 547.501 834.457 541.741 836.073Z" fill="#82CAA7"/>
<path d="M534.78 847.796C529.022 849.413 525.613 853.92 525.613 853.92C525.613 853.92 531.541 855.81 537.301 854.194C543.059 852.579 546.468 848.07 546.468 848.07C546.468 848.07 540.54 846.18 534.78 847.796Z" fill="#82CAA7"/>
<path d="M560.45 792.464L512.943 873.306L511.625 872.748L559.921 792.241L560.45 792.464Z" fill="#283820"/>
<path d="M545.133 792.229L551.735 806.585L568.634 802.163" stroke="#283820" stroke-width="0.2772" stroke-miterlimit="10"/>
<path d="M537.935 804.352L544.538 818.708L561.436 814.286" stroke="#283820" stroke-width="0.2772" stroke-miterlimit="10"/>
<path d="M530.737 816.475L537.338 830.831L554.236 826.409" stroke="#283820" stroke-width="0.2772" stroke-miterlimit="10"/>
<path d="M523.539 828.598L530.14 842.954L547.038 838.532" stroke="#283820" stroke-width="0.2772" stroke-miterlimit="10"/>
<path d="M516.341 840.721L522.942 855.077L539.84 850.655" stroke="#283820" stroke-width="0.2772" stroke-miterlimit="10"/>
<path d="M409.171 773.87L408.156 781.247L406.483 768.764C383.603 758.794 368.834 761.371 368.834 761.371C381.423 834.795 498.46 860.44 498.46 860.44C467.179 809.159 436.896 784.17 413.474 772.094C411.703 771.183 409.41 772.132 409.171 773.87Z" fill="#3C5634"/>
<path d="M384.51 772.184L517.647 875.5" stroke="#9AB892" stroke-width="0.3804" stroke-miterlimit="10"/>
<path d="M391.554 793.553L411.558 793.332" stroke="#9AB892" stroke-width="0.3804" stroke-miterlimit="10"/>
<path d="M413.707 811.55L433.956 810.679" stroke="#9AB892" stroke-width="0.3804" stroke-miterlimit="10"/>
<path d="M440.753 831.082L459.023 830.093" stroke="#9AB892" stroke-width="0.3804" stroke-miterlimit="10"/>
<path d="M444.51 805.266L450.739 823.678" stroke="#9AB892" stroke-width="0.3804" stroke-miterlimit="10"/>
<path d="M417.596 785.635L423.652 802.699" stroke="#9AB892" stroke-width="0.3804" stroke-miterlimit="10"/>
<path d="M395.789 772.99L400.169 784.51" stroke="#9AB892" stroke-width="0.3804" stroke-miterlimit="10"/>
<path d="M508.002 857.615C508.002 857.615 520.444 780.325 459.825 752.386C459.825 752.386 452.87 773.897 455.488 789.615L462.605 791.057L456.625 793.253C456.625 793.253 473.146 837.482 508.002 857.615Z" fill="#8CB293"/>
<path d="M463.285 759.098L505.549 856.778" stroke="#344A28" stroke-width="0.5792" stroke-miterlimit="10"/>
<path d="M615.823 880.056C603.776 877.045 638.846 855.945 652.388 855.22C665.931 854.494 724.416 882.765 724.416 882.765C724.416 882.765 626.658 882.765 615.823 880.056Z" fill="#A68158"/>
<path d="M763.633 866.995H810.833C810.833 866.995 789.363 854.802 781.815 855.22C774.27 855.635 763.633 866.995 763.633 866.995Z" fill="#BC9F70"/>
<path d="M231.902 847.76L257.216 822.893L286.901 814.156L310.763 798.698L353.777 789.626L458.515 795.256L551.701 873.302C551.701 873.302 490.564 882.04 470.362 883.384C450.159 884.729 257.214 868.207 257.214 868.207L231.902 847.76Z" fill="#BC9F70"/>
<path d="M257.216 868.205C257.216 868.205 450.161 884.725 470.364 883.382C487.797 882.221 535.689 875.56 548.491 873.756L442.244 853.429L376.691 846.954L354.086 827.167L339.168 822.893L308.864 831.582L258.871 835.663L257.216 822.892L231.902 847.759L257.216 868.205Z" fill="#A68158"/>
<path d="M340.516 827.593L315.473 836.541L321.924 844.628L362.144 847.325C362.144 847.325 353.417 831.577 340.516 827.593Z" fill="#BC9F70"/>
<path d="M311.3 837.461L315.473 846.022C315.473 846.022 299.917 845.483 298.778 844.632C297.641 843.779 307.125 838.377 311.3 837.461Z" fill="#BC9F70"/>
<path d="M376.346 878.467C376.346 878.467 363.541 874.861 367.661 871.744C371.78 868.626 376.346 875.104 376.346 875.104C376.346 875.104 381.195 864.776 384.725 867.429C388.256 870.082 384.725 875.423 384.725 875.423C384.725 875.423 393.696 871.132 393.553 875.423C393.408 879.714 388.258 882.763 388.258 882.763L376.346 878.467Z" fill="#2E4D45"/>
<path d="M312.087 874.879C312.087 874.879 319.703 865.778 316.617 864.736C313.53 863.694 312.087 870.989 312.087 870.989C312.087 870.989 312.911 859.352 309.824 860.567C306.735 861.784 312.087 874.879 312.087 874.879Z" fill="#2E4D45"/>
<path d="M260.211 870.469C260.211 870.469 264.329 860.391 270.298 860.479C276.269 860.569 260.211 870.469 260.211 870.469Z" fill="#2E4D45"/>
<path d="M471.625 885.233C471.625 885.233 460.715 876.548 464.625 876.2C468.535 875.853 470.801 880.717 470.801 880.717C470.801 880.717 472.86 874.775 475.535 874.881C478.212 874.985 471.625 885.233 471.625 885.233Z" fill="#2E4D45"/>
<path d="M421.739 858.503C421.739 858.503 433.152 854.685 440 856.931C446.848 859.178 459.403 867.681 459.403 867.681C459.403 867.681 427.825 868.741 421.739 858.503Z" fill="#BC9F70"/>
<path d="M651.644 857.822C651.644 857.822 646.549 860.02 645.276 861.966C644.002 863.912 646.549 870.001 651.644 870.718C656.738 871.434 697.493 874.877 697.493 874.877C697.493 874.877 662.564 857.263 651.644 857.822Z" fill="#BC9F70"/>
</g>
<path d="M259.468 576.986C259.468 576.986 234.866 575.937 228.791 582.028L244.129 585.939L259.468 576.986Z" fill="#482317"/>
<path d="M235.925 677.894C235.925 677.894 232.238 689.895 232.232 706.294C232.228 715.269 256.159 838.324 256.159 838.324H266.941L282.438 723.171L286.704 695.66L235.925 677.894Z" fill="#966945"/>
<path d="M278.807 743.979L282.438 723.171L286.704 695.66L257.081 685.296C254.092 706.696 263.095 727.446 278.807 743.979Z" fill="#86512E"/>
<path d="M292.477 679.455C292.477 679.455 365.196 701.823 373.956 710.719C385.399 722.34 364.072 789.264 364.072 789.264H353.051C353.051 789.264 343.184 747.041 351.408 727.219C346.67 723.853 269.426 725.122 252.699 712.78C235.974 700.437 240.639 681.573 240.639 681.573L292.477 679.455Z" fill="#966945"/>
<path d="M233.751 709.606L233.217 709.57C230.037 709.36 227.66 707.011 227.912 704.327L229.177 690.782L241.23 691.583L239.965 705.128C239.713 707.814 236.932 709.819 233.751 709.606Z" fill="#86512E"/>
<path d="M264.189 714.619L260.368 714.366C256.492 714.108 253.599 711.248 253.904 707.977L255.071 695.494L272.927 696.682L271.76 709.165C271.453 712.434 268.063 714.877 264.189 714.619Z" fill="#86512E"/>
<path d="M304.486 684.469C304.486 684.469 301.746 698.801 292.441 702.585C292.441 702.585 364.631 716.005 364.072 721.004C363.513 726.001 353.889 747.943 357.431 789.264" stroke="#86512E" stroke-width="1.3113" stroke-miterlimit="10"/>
<path d="M268.56 721.004L262.34 838.324" stroke="#86512E" stroke-width="1.3113" stroke-miterlimit="10"/>
<path d="M250.175 577.701C244.245 578.901 232.983 588.751 231.462 599.167C227.871 623.773 224.754 642.92 225.798 662.418C225.928 664.851 230.871 670.449 231.003 672.492C231.489 680.045 229.557 684.469 229.557 684.469C229.557 684.469 264.473 703.281 305.527 682.637C305.527 682.637 308.123 678.036 307.824 671.211C307.748 669.454 311.613 666.496 311.524 664.484C310.834 648.851 305.898 637.25 305.418 627.683C302.711 573.845 259.658 575.78 250.175 577.701Z" fill="#8B3E21"/>
<path d="M271.863 558.795L278.098 581.653C278.098 583.653 263.833 576.12 255.705 578.152C255.705 578.152 260.095 570.538 262.924 556.266L271.863 558.795Z" fill="#EBAD83"/>
<path d="M274.459 568.314C272.3 567.009 268.876 567.999 268.876 569.233C269.785 574.461 273.156 578.206 277.433 579.218L274.459 568.314Z" fill="#E7956B"/>
<path d="M286.184 550.557C286.184 550.557 287.978 573.773 284.902 575.179C281.435 576.761 269.9 576.954 268.08 566.931C265.951 555.192 260.334 548.361 265.576 548.146C270.817 547.932 285.877 545.081 286.184 550.557Z" fill="#EBAD83"/>
<path d="M297.648 546.053C297.047 551.458 290.632 558.617 278.941 552.709C265.341 545.835 257.273 570.682 252.204 564.949C246.049 557.989 246.841 542.196 259.999 538.074C265.941 536.212 271.718 539.872 274.935 539.82C283.513 539.681 285.614 536 288.609 536C296.929 535.995 297.96 543.252 297.648 546.053Z" fill="#6B3E2D"/>
<path d="M283.325 559.879C283.142 560.683 283.37 561.396 283.835 561.472C284.3 561.547 284.825 560.957 285.008 560.152C285.192 559.348 284.964 558.635 284.498 558.559C284.033 558.484 283.509 559.074 283.325 559.879Z" fill="#6B3E2D"/>
<path d="M285.042 556.425C284.114 556.581 283.489 556.547 282.869 556.504C282.239 556.443 281.746 556.36 280.808 556.196C281.164 555.424 282.192 555.132 283.029 555.21C283.873 555.309 284.678 555.67 285.042 556.425Z" fill="#6B3E2D"/>
<path d="M278.194 547.216C278.194 547.216 268.554 551.948 270.071 558.54C270.886 562.087 269.476 572.04 259.154 569.289C243.031 564.993 254.986 547.651 254.986 547.651C254.986 547.651 269.19 540.874 278.194 546.301" fill="#6B3E2D"/>
<path d="M286.493 559.45L288.784 565.317C289.008 566.121 288.379 566.956 287.406 567.048C287.095 567.077 286.792 567.084 286.493 567.064C285.8 567.016 285.284 566.499 285.362 565.914L286.493 559.45Z" fill="#E0641D"/>
<path d="M400.262 808.74C400.262 810.018 388.838 811.054 374.747 811.054C360.656 811.054 349.232 810.018 349.232 808.74C349.232 807.462 360.656 806.425 374.747 806.425C388.838 806.425 400.262 807.462 400.262 808.74Z" fill="#A68158"/>
<path d="M318.073 851.454C318.073 854.38 299.278 856.755 276.093 856.755C252.908 856.755 234.113 854.38 234.113 851.454C234.113 848.525 252.908 846.153 276.093 846.153C299.278 846.153 318.073 848.527 318.073 851.454Z" fill="#223831"/>
<path d="M289.832 849.389C289.832 849.389 287.474 843.42 284.725 841.762C283.745 841.172 279.69 840.942 274.871 840.888C271.543 840.852 268.895 838.522 269.03 835.718L269.979 815.767H251.809L254.901 841.28V849.389H289.832Z" fill="#E9A329"/>
<path d="M270.984 819.149H251.908C250.941 819.149 250.158 818.488 250.158 817.673V814.386C250.158 813.571 250.941 812.91 251.908 812.91H270.984C271.95 812.91 272.733 813.571 272.733 814.386V817.673C272.731 818.488 271.948 819.149 270.984 819.149Z" fill="#F8E565"/>
<path d="M291.206 848.062H253.68V851.544H291.206V848.062Z" fill="#F8E565"/>
<path d="M280.727 848.512V840.875C280.727 840.875 283.886 840.945 285.516 841.633C287.146 842.32 289.832 848.512 289.832 848.512H280.727Z" fill="#DC6920"/>
<path d="M266.662 822.285H270.82" stroke="#F8E565" stroke-width="0.6557" stroke-miterlimit="10"/>
<path d="M266.662 825.422H270.82" stroke="#F8E565" stroke-width="0.6557" stroke-miterlimit="10"/>
<path d="M266.662 828.558H270.82" stroke="#F8E565" stroke-width="0.6557" stroke-miterlimit="10"/>
<path d="M266.662 831.693H270.82" stroke="#F8E565" stroke-width="0.6557" stroke-miterlimit="10"/>
<path d="M266.662 834.831H270.82" stroke="#F8E565" stroke-width="0.6557" stroke-miterlimit="10"/>
<path d="M387.255 806.425C387.255 806.425 384.897 800.458 382.145 798.798C381.166 798.208 377.111 797.977 372.292 797.923C368.964 797.887 366.316 795.558 366.45 792.754L367.4 772.803H349.23L352.321 798.316V806.425H387.255Z" fill="#E9A329"/>
<path d="M368.407 776.187H349.33C348.364 776.187 347.581 775.526 347.581 774.711V771.424C347.581 770.608 348.364 769.948 349.33 769.948H368.407C369.373 769.948 370.156 770.608 370.156 771.424V774.711C370.154 775.526 369.371 776.187 368.407 776.187Z" fill="#F8E565"/>
<path d="M388.631 805.098H351.103V808.579H388.631V805.098Z" fill="#F8E565"/>
<path d="M378.15 805.55V797.913C378.15 797.913 381.309 797.983 382.939 798.67C384.569 799.358 387.255 805.55 387.255 805.55H378.15Z" fill="#DC6920"/>
<path d="M364.085 779.322H368.242" stroke="#F8E565" stroke-width="0.6557" stroke-miterlimit="10"/>
<path d="M364.085 782.458H368.242" stroke="#F8E565" stroke-width="0.6557" stroke-miterlimit="10"/>
<path d="M364.085 785.595H368.242" stroke="#F8E565" stroke-width="0.6557" stroke-miterlimit="10"/>
<path d="M364.085 788.731H368.242" stroke="#F8E565" stroke-width="0.6557" stroke-miterlimit="10"/>
<path d="M364.085 791.866H368.242" stroke="#F8E565" stroke-width="0.6557" stroke-miterlimit="10"/>
<path d="M255.541 589.883C255.541 589.883 270.109 576.786 284.168 582.39C301.04 589.116 306.813 621.223 303.479 631.236C300.144 641.25 258.952 660.798 258.952 660.798L259.157 655.048C259.157 655.048 294.655 635.079 297.697 627.249C300.74 619.419 292.262 594.374 289.303 592.054C282.926 587.053 273.668 583.502 258.657 598.073L255.541 589.883Z" fill="#482317"/>
<path d="M296.727 599.841C304.008 615.706 303.174 642.475 307.455 657.304L352.078 692.791C351.592 695.093 347.536 698.018 341.258 698.018C341.258 698.018 288.132 670.638 282.549 663.24C276.966 655.842 251.575 605.079 271.929 592.473C272.044 592.401 272.161 592.331 272.277 592.261C281.245 586.87 292.752 591.177 296.727 599.841Z" fill="#E0641D"/>
<path d="M351.718 693.696C351.718 693.696 358.873 696.465 359.85 696.976C362.002 698.099 368.057 705.585 368.458 707.099C368.859 708.613 365.928 707.4 362.858 707.099C361.373 706.953 353.736 705.978 352.708 704.892C351.679 703.807 344.078 699.089 344.078 699.089L351.718 693.696Z" fill="#EBAD83"/>
<path d="M336.33 694.243C340.277 692.935 343.681 691.227 345.064 688.019C345.422 687.189 346.628 686.903 347.372 687.524L352.289 691.614C352.667 691.929 352.804 692.386 352.639 692.814C351.903 694.744 349.237 699.942 341.798 700.201C341.431 700.214 341.057 700.095 340.784 699.888L335.914 696.207C335.146 695.626 335.368 694.562 336.33 694.243Z" fill="#86512E"/>
<path d="M257.616 593.575C256.71 590.362 254.02 587.772 250.433 586.602C244.016 584.506 227.534 581.032 222.768 581.878C214.651 583.318 200.797 589.649 196.445 611.208C196.191 612.468 194.751 616.491 194.553 617.85L196.445 620.438C196.507 639.675 197.241 660.119 196.88 665.548C196.682 668.53 198.743 671.254 201.981 672.314C213.527 676.089 239.75 683.758 250.583 679.458C263.058 674.505 263.178 613.274 257.616 593.575Z" fill="#2A4A31"/>
<path d="M256.328 594.383C255.771 591.885 253.328 589.831 250.318 589.707C249.727 589.681 249.113 589.732 248.494 589.883C244.78 590.797 238.062 606.569 236.603 616.672C235.142 626.776 229.03 673.596 232.232 675.075C235.436 676.553 248.388 677.322 252.082 675.075C255.675 672.888 263.274 625.543 256.328 594.383Z" fill="#192C1D"/>
<path d="M194.555 617.846C194.555 617.846 233.392 624.22 238.224 624.803L237.192 627.251L196.447 620.434L194.555 617.846Z" fill="#192C1D"/>
<path d="M209.505 628.365L206.476 628.005C204.998 627.829 203.967 626.675 204.176 625.426L205.823 615.574C206.032 614.327 207.4 613.458 208.88 613.634L211.91 613.994C213.388 614.17 214.418 615.324 214.209 616.572L212.562 626.423C212.353 627.674 210.986 628.542 209.505 628.365Z" fill="#E0641D"/>
<path d="M249.584 672.445C245.147 673.38 240.887 673.216 236.853 671.67C235.334 671.088 234.399 669.76 234.5 668.356L235.995 647.618C236.132 645.726 238.079 644.299 240.317 644.446L250.862 645.148C253.072 645.296 254.724 646.927 254.549 648.792L252.622 669.409C252.488 670.86 251.261 672.093 249.584 672.445Z" fill="#579485"/>
<path d="M225.013 647.4L197.759 642.632C196.008 642.326 194.308 643.33 194.064 644.826C193.245 649.866 191.929 660.286 194.555 662.842C196.452 664.689 223.948 672.085 225.595 670.768C228.172 668.705 227.743 655.056 227.479 649.836C227.417 648.639 226.404 647.643 225.013 647.4Z" fill="#6CAC96"/>
<path d="M234.344 649.902L255.541 651.261" stroke="#192C1D" stroke-width="1.3113" stroke-miterlimit="10"/>
<path d="M225.595 583.561C225.595 583.561 228.872 573.199 236.748 575.058C244.612 576.916 241.964 587.811 241.964 587.811" stroke="#E0641D" stroke-width="1.2324" stroke-miterlimit="10" stroke-linecap="round"/>
<path d="M253.173 639.934C247.724 640.958 242.941 640.566 238.621 639.189C237.825 638.935 237.337 638.249 237.39 637.533L239.035 615.065C239.101 614.147 240.038 613.45 241.126 613.506L254.495 614.203C255.583 614.26 256.409 615.049 256.343 615.967L254.702 638.4C254.645 639.133 254.022 639.774 253.173 639.934Z" fill="#82C6A6"/>
<path d="M254.092 615.517C254.062 615.933 251.195 616.118 247.688 615.933C244.181 615.745 241.365 615.259 241.394 614.844C241.426 614.428 244.294 614.242 247.799 614.428C251.306 614.615 254.124 615.103 254.092 615.517Z" fill="#2A4A31"/>
<path d="M296.594 151.157C296.594 146.099 301.454 142 307.446 142C313.441 142 318.299 146.1 318.299 151.157" stroke="#305689" stroke-width="0.9124" stroke-miterlimit="10"/>
<path d="M274.887 151.157C274.887 146.099 279.747 142 285.74 142C291.734 142 296.592 146.1 296.592 151.157" stroke="#305689" stroke-width="0.9124" stroke-miterlimit="10"/>
<path d="M342.203 189.707C342.203 187.178 344.633 185.128 347.63 185.128C350.627 185.128 353.057 187.178 353.057 189.707" stroke="#305689" stroke-width="0.4562" stroke-miterlimit="10"/>
<path d="M331.35 189.707C331.35 187.178 333.78 185.128 336.778 185.128C339.775 185.128 342.205 187.178 342.205 189.707" stroke="#305689" stroke-width="0.4562" stroke-miterlimit="10"/>
<path d="M192.854 242.526C192.854 239.997 195.284 237.947 198.282 237.947C201.279 237.947 203.709 239.997 203.709 242.526" stroke="#305689" stroke-width="0.4562" stroke-miterlimit="10"/>
<path d="M182 242.526C182 239.997 184.43 237.947 187.427 237.947C190.425 237.947 192.854 239.997 192.854 242.526" stroke="#305689" stroke-width="0.4562" stroke-miterlimit="10"/>
<path d="M1301.45 294.55C1301.45 289.492 1306.31 285.393 1312.3 285.393C1318.29 285.393 1323.15 289.494 1323.15 294.55" stroke="#305689" stroke-width="0.9124" stroke-miterlimit="10"/>
<path d="M1279.74 294.55C1279.74 289.492 1284.6 285.393 1290.6 285.393C1296.59 285.393 1301.45 289.494 1301.45 294.55" stroke="#305689" stroke-width="0.9124" stroke-miterlimit="10"/>
<path d="M1426.01 337.851C1426.01 335.322 1428.44 333.272 1431.44 333.272C1434.43 333.272 1436.86 335.322 1436.86 337.851" stroke="#305689" stroke-width="0.4562" stroke-miterlimit="10"/>
<path d="M1415.16 337.851C1415.16 335.322 1417.59 333.272 1420.58 333.272C1423.58 333.272 1426.01 335.322 1426.01 337.851" stroke="#305689" stroke-width="0.4562" stroke-miterlimit="10"/>
</g>
<defs>
<linearGradient id="paint0_linear_1_4" x1="1238.66" y1="532.567" x2="1716.57" y2="532.567" gradientUnits="userSpaceOnUse">
<stop stop-color="#F7E465"/>
<stop offset="1" stop-color="#E9A65F"/>
</linearGradient>
<linearGradient id="paint1_linear_1_4" x1="784.938" y1="600.529" x2="784.938" y2="875.298" gradientUnits="userSpaceOnUse">
<stop stop-color="#497C74"/>
<stop offset="1" stop-color="#65AE77"/>
</linearGradient>
<linearGradient id="paint2_linear_1_4" x1="149.809" y1="499.781" x2="149.809" y2="400.219" gradientUnits="userSpaceOnUse">
<stop stop-color="#497C74"/>
<stop offset="1" stop-color="#65AE77"/>
</linearGradient>
<linearGradient id="paint3_linear_1_4" x1="212.658" y1="478.54" x2="212.658" y2="413.667" gradientUnits="userSpaceOnUse">
<stop stop-color="#497C74"/>
<stop offset="1" stop-color="#65AE77"/>
</linearGradient>
<linearGradient id="paint4_linear_1_4" x1="286.901" y1="478.54" x2="286.901" y2="413.667" gradientUnits="userSpaceOnUse">
<stop stop-color="#497C74"/>
<stop offset="1" stop-color="#65AE77"/>
</linearGradient>
<linearGradient id="paint5_linear_1_4" x1="48.5675" y1="532.217" x2="48.5675" y2="467.344" gradientUnits="userSpaceOnUse">
<stop stop-color="#497C74"/>
<stop offset="1" stop-color="#65AE77"/>
</linearGradient>
<linearGradient id="paint6_linear_1_4" x1="371.906" y1="499.781" x2="371.906" y2="434.908" gradientUnits="userSpaceOnUse">
<stop stop-color="#497C74"/>
<stop offset="1" stop-color="#65AE77"/>
</linearGradient>
<linearGradient id="paint7_linear_1_4" x1="458.516" y1="476.031" x2="458.516" y2="411.158" gradientUnits="userSpaceOnUse">
<stop stop-color="#497C74"/>
<stop offset="1" stop-color="#65AE77"/>
</linearGradient>
<linearGradient id="paint8_linear_1_4" x1="1124.86" y1="532.217" x2="1124.86" y2="467.344" gradientUnits="userSpaceOnUse">
<stop stop-color="#497C74"/>
<stop offset="1" stop-color="#65AE77"/>
</linearGradient>
<linearGradient id="paint9_linear_1_4" x1="1236.02" y1="573.276" x2="1236.02" y2="508.403" gradientUnits="userSpaceOnUse">
<stop stop-color="#497C74"/>
<stop offset="1" stop-color="#65AE77"/>
</linearGradient>
<linearGradient id="paint10_linear_1_4" x1="1474.19" y1="540.652" x2="1474.19" y2="457.583" gradientUnits="userSpaceOnUse">
<stop stop-color="#497C74"/>
<stop offset="1" stop-color="#65AE77"/>
</linearGradient>
<linearGradient id="paint11_linear_1_4" x1="1244.08" y1="514.128" x2="1244.08" y2="431.059" gradientUnits="userSpaceOnUse">
<stop stop-color="#497C74"/>
<stop offset="1" stop-color="#65AE77"/>
</linearGradient>
<linearGradient id="paint12_linear_1_4" x1="481.978" y1="472.594" x2="481.978" y2="419.613" gradientUnits="userSpaceOnUse">
<stop stop-color="#497C74"/>
<stop offset="1" stop-color="#65AE77"/>
</linearGradient>
<linearGradient id="paint13_linear_1_4" x1="551.703" y1="534.705" x2="551.703" y2="481.725" gradientUnits="userSpaceOnUse">
<stop stop-color="#497C74"/>
<stop offset="1" stop-color="#65AE77"/>
</linearGradient>
<linearGradient id="paint14_linear_1_4" x1="528.24" y1="483.462" x2="528.24" y2="430.481" gradientUnits="userSpaceOnUse">
<stop stop-color="#497C74"/>
<stop offset="1" stop-color="#65AE77"/>
</linearGradient>
<linearGradient id="paint15_linear_1_4" x1="844.079" y1="549.274" x2="844.079" y2="508.215" gradientUnits="userSpaceOnUse">
<stop stop-color="#497C74"/>
<stop offset="1" stop-color="#65AE77"/>
</linearGradient>
<linearGradient id="paint16_linear_1_4" x1="660.748" y1="580.555" x2="660.748" y2="517.993" gradientUnits="userSpaceOnUse">
<stop stop-color="#497C74"/>
<stop offset="1" stop-color="#65AE77"/>
</linearGradient>
<linearGradient id="paint17_linear_1_4" x1="298.685" y1="524.405" x2="298.685" y2="461.842" gradientUnits="userSpaceOnUse">
<stop stop-color="#497C74"/>
<stop offset="1" stop-color="#65AE77"/>
</linearGradient>
<linearGradient id="paint18_linear_1_4" x1="1383.07" y1="513.653" x2="1383.07" y2="472.594" gradientUnits="userSpaceOnUse">
<stop stop-color="#497C74"/>
<stop offset="1" stop-color="#65AE77"/>
</linearGradient>
<linearGradient id="paint19_linear_1_4" x1="1096.13" y1="540.84" x2="1096.13" y2="499.781" gradientUnits="userSpaceOnUse">
<stop stop-color="#497C74"/>
<stop offset="1" stop-color="#65AE77"/>
</linearGradient>
<linearGradient id="paint20_linear_1_4" x1="1314.82" y1="513.653" x2="1314.82" y2="472.594" gradientUnits="userSpaceOnUse">
<stop stop-color="#497C74"/>
<stop offset="1" stop-color="#65AE77"/>
</linearGradient>
<linearGradient id="paint21_linear_1_4" x1="1272.71" y1="584.696" x2="1272.71" y2="543.637" gradientUnits="userSpaceOnUse">
<stop stop-color="#497C74"/>
<stop offset="1" stop-color="#65AE77"/>
</linearGradient>
<linearGradient id="paint22_linear_1_4" x1="1082.17" y1="584.696" x2="1082.17" y2="543.637" gradientUnits="userSpaceOnUse">
<stop stop-color="#497C74"/>
<stop offset="1" stop-color="#65AE77"/>
</linearGradient>
<linearGradient id="paint23_linear_1_4" x1="781.817" y1="605.225" x2="781.817" y2="564.166" gradientUnits="userSpaceOnUse">
<stop stop-color="#497C74"/>
<stop offset="1" stop-color="#65AE77"/>
</linearGradient>
<linearGradient id="paint24_linear_1_4" x1="721.089" y1="550.021" x2="721.089" y2="508.962" gradientUnits="userSpaceOnUse">
<stop stop-color="#497C74"/>
<stop offset="1" stop-color="#65AE77"/>
</linearGradient>
<linearGradient id="paint25_linear_1_4" x1="736.264" y1="529.492" x2="736.264" y2="502.738" gradientUnits="userSpaceOnUse">
<stop stop-color="#497C74"/>
<stop offset="1" stop-color="#65AE77"/>
</linearGradient>
<linearGradient id="paint26_linear_1_4" x1="1025.1" y1="542.869" x2="1025.1" y2="516.115" gradientUnits="userSpaceOnUse">
<stop stop-color="#497C74"/>
<stop offset="1" stop-color="#65AE77"/>
</linearGradient>
<linearGradient id="paint27_linear_1_4" x1="1459.01" y1="542.869" x2="1459.01" y2="516.115" gradientUnits="userSpaceOnUse">
<stop stop-color="#497C74"/>
<stop offset="1" stop-color="#65AE77"/>
</linearGradient>
<linearGradient id="paint28_linear_1_4" x1="1401.25" y1="607.309" x2="1401.25" y2="580.555" gradientUnits="userSpaceOnUse">
<stop stop-color="#497C74"/>
<stop offset="1" stop-color="#65AE77"/>
</linearGradient>
<linearGradient id="paint29_linear_1_4" x1="1153.59" y1="583.656" x2="1153.59" y2="556.902" gradientUnits="userSpaceOnUse">
<stop stop-color="#497C74"/>
<stop offset="1" stop-color="#65AE77"/>
</linearGradient>
<linearGradient id="paint30_linear_1_4" x1="1053" y1="581.288" x2="1053" y2="556.427" gradientUnits="userSpaceOnUse">
<stop stop-color="#497C74"/>
<stop offset="1" stop-color="#65AE77"/>
</linearGradient>
<linearGradient id="paint31_linear_1_4" x1="597.787" y1="499.347" x2="597.787" y2="472.594" gradientUnits="userSpaceOnUse">
<stop stop-color="#497C74"/>
<stop offset="1" stop-color="#65AE77"/>
</linearGradient>
<linearGradient id="paint32_linear_1_4" x1="572.905" y1="512.494" x2="572.905" y2="485.741" gradientUnits="userSpaceOnUse">
<stop stop-color="#497C74"/>
<stop offset="1" stop-color="#65AE77"/>
</linearGradient>
<linearGradient id="paint33_linear_1_4" x1="440.57" y1="555.372" x2="440.57" y2="528.618" gradientUnits="userSpaceOnUse">
<stop stop-color="#497C74"/>
<stop offset="1" stop-color="#65AE77"/>
</linearGradient>
<linearGradient id="paint34_linear_1_4" x1="349.339" y1="506.5" x2="349.339" y2="479.746" gradientUnits="userSpaceOnUse">
<stop stop-color="#497C74"/>
<stop offset="1" stop-color="#65AE77"/>
</linearGradient>
<linearGradient id="paint35_linear_1_4" x1="157.506" y1="500.587" x2="157.506" y2="473.834" gradientUnits="userSpaceOnUse">
<stop stop-color="#497C74"/>
<stop offset="1" stop-color="#65AE77"/>
</linearGradient>
<linearGradient id="paint36_linear_1_4" x1="415.211" y1="456.972" x2="415.211" y2="430.218" gradientUnits="userSpaceOnUse">
<stop stop-color="#497C74"/>
<stop offset="1" stop-color="#65AE77"/>
</linearGradient>
<linearGradient id="paint37_linear_1_4" x1="458.516" y1="485.971" x2="458.516" y2="459.217" gradientUnits="userSpaceOnUse">
<stop stop-color="#497C74"/>
<stop offset="1" stop-color="#65AE77"/>
</linearGradient>
<linearGradient id="paint38_linear_1_4" x1="1560.55" y1="569.804" x2="1560.55" y2="528.745" gradientUnits="userSpaceOnUse">
<stop stop-color="#497C74"/>
<stop offset="1" stop-color="#65AE77"/>
</linearGradient>
<linearGradient id="paint39_linear_1_4" x1="1437.4" y1="590.808" x2="1437.4" y2="549.749" gradientUnits="userSpaceOnUse">
<stop stop-color="#497C74"/>
<stop offset="1" stop-color="#65AE77"/>
</linearGradient>
<linearGradient id="paint40_linear_1_4" x1="305.529" y1="456.972" x2="305.529" y2="430.218" gradientUnits="userSpaceOnUse">
<stop stop-color="#497C74"/>
<stop offset="1" stop-color="#65AE77"/>
</linearGradient>
<linearGradient id="paint41_linear_1_4" x1="258.172" y1="485.971" x2="258.172" y2="459.217" gradientUnits="userSpaceOnUse">
<stop stop-color="#497C74"/>
<stop offset="1" stop-color="#65AE77"/>
</linearGradient>
<linearGradient id="paint42_linear_1_4" x1="1338.87" y1="570.279" x2="1338.87" y2="487.21" gradientUnits="userSpaceOnUse">
<stop stop-color="#497C74"/>
<stop offset="1" stop-color="#65AE77"/>
</linearGradient>
<linearGradient id="paint43_linear_1_4" x1="804.739" y1="857.623" x2="804.739" y2="599.247" gradientUnits="userSpaceOnUse">
<stop stop-color="#497C74"/>
<stop offset="1" stop-color="#65AE77"/>
</linearGradient>
<linearGradient id="paint44_linear_1_4" x1="834.179" y1="907.327" x2="834.179" y2="741.711" gradientUnits="userSpaceOnUse">
<stop stop-color="#45786F"/>
<stop offset="1" stop-color="#61AA6C"/>
</linearGradient>
<linearGradient id="paint45_linear_1_4" x1="796.109" y1="984.083" x2="804.799" y2="838.189" gradientUnits="userSpaceOnUse">
<stop stop-color="#223B41"/>
<stop offset="1" stop-color="#41725D"/>
</linearGradient>
<clipPath id="clip0_1_4">
<rect width="1600" height="900" fill="white"/>
</clipPath>
</defs>
</svg>
