<svg width="1920" height="1080" viewBox="0 0 1920 1080" fill="none" xmlns="http://www.w3.org/2000/svg">
<g clip-path="url(#clip0_1_4)">
<path d="M1920 0H0V1080H1920V0Z" fill="#397588"/>
<path opacity="0.2" d="M1342.89 1072.32C1593.26 1072.32 1796.23 947.634 1796.23 793.827C1796.23 640.019 1593.26 515.334 1342.89 515.334C1092.53 515.334 889.561 640.019 889.561 793.827C889.561 947.634 1092.53 1072.32 1342.89 1072.32Z" fill="#F8E565"/>
<path opacity="0.4" d="M1604.82 954.745C1749.48 865.874 1749.48 721.786 1604.82 632.915C1460.15 544.044 1225.6 544.044 1080.94 632.915C936.274 721.786 936.274 865.874 1080.94 954.745C1225.6 1043.62 1460.15 1043.62 1604.82 954.745Z" fill="#F8E565"/>
<path d="M1342.89 961.042C1493.22 961.042 1615.09 886.177 1615.09 793.825C1615.09 701.474 1493.22 626.608 1342.89 626.608C1192.56 626.608 1070.7 701.474 1070.7 793.825C1070.7 886.177 1192.56 961.042 1342.89 961.042Z" fill="url(#paint0_linear_1_4)"/>
<path d="M1927.59 849.734C1927.59 849.734 1768.05 753.519 1577.8 738.439C1355.62 720.83 1228.02 774.365 985.262 771.159C781.686 768.468 645.919 694.348 426.654 694.348C125.036 694.348 -121.368 820.869 -121.368 820.869V1093.48H1911.92L1927.59 849.734Z" fill="url(#paint1_linear_1_4)"/>
<path d="M159.558 683.955C171.164 672.713 181.407 661.8 182.646 653.061C185.295 663.262 192.52 672.806 203.348 681.83L193.839 681.966C195.074 688.023 203.659 695.073 214.006 702.36L204.42 703.29C206.524 709.421 217.936 719.5 229.851 729.793L205.363 728.908L212.276 735.633L177.808 732.14L148.107 734.712L154.386 729.569L129.403 730.854C143.48 722.018 154.243 712.971 158.654 703.518L149.47 703.245C159.05 696.126 166.865 688.993 170.79 681.83L159.558 683.955Z" fill="url(#paint2_linear_1_4)"/>
<path d="M238.142 684.344C245.705 677.019 252.378 669.908 253.187 664.214C254.912 670.861 259.619 677.08 266.676 682.96L260.48 683.048C261.284 686.996 266.878 691.589 273.622 696.338L267.374 696.944C268.744 700.939 276.18 707.506 283.945 714.213L267.989 713.637L272.494 718.019L250.035 715.742L230.682 717.417L234.774 714.066L218.495 714.903C227.668 709.145 234.679 703.25 237.554 697.09L231.571 696.913C237.812 692.274 242.905 687.626 245.462 682.959L238.142 684.344Z" fill="url(#paint3_linear_1_4)"/>
<path d="M322.714 684.344C330.277 677.019 336.952 669.908 337.759 664.214C339.484 670.861 344.191 677.08 351.248 682.96L345.052 683.048C345.856 686.996 351.45 691.589 358.194 696.338L351.948 696.944C353.319 700.939 360.755 707.506 368.519 714.213L352.563 713.637L357.068 718.019L334.61 715.742L315.256 717.417L319.349 714.066L303.069 714.903C312.243 709.145 319.254 703.25 322.129 697.09L316.146 696.913C322.386 692.274 327.48 687.626 330.036 682.959L322.714 684.344Z" fill="url(#paint4_linear_1_4)"/>
<path d="M51.2265 728.863C58.789 721.537 65.462 714.427 66.2712 708.733C67.9966 715.379 72.7037 721.599 79.7607 727.479L73.5639 727.567C74.3683 731.514 79.9624 736.108 86.7059 740.856L80.4605 741.463C81.8311 745.457 89.2672 752.025 97.0314 758.732L81.0754 758.156L85.5808 762.539L63.1218 760.262L43.7686 761.937L47.8609 758.586L31.5817 759.423C40.7553 753.665 47.7661 747.77 50.6409 741.61L44.6556 741.433C50.896 736.793 55.9895 732.146 58.5484 727.479L51.2265 728.863Z" fill="url(#paint5_linear_1_4)"/>
<path d="M419.544 701.96C427.106 694.634 433.782 687.524 434.588 681.83C436.314 688.476 441.021 694.696 448.078 700.576L441.881 700.664C442.685 704.611 448.28 709.205 455.023 713.954L448.775 714.56C450.146 718.555 457.582 725.122 465.346 731.829L449.39 731.253L453.895 735.636L431.437 733.359L412.083 735.034L416.176 731.683L399.896 732.52C409.07 726.762 416.081 720.867 418.956 714.707L412.973 714.53C419.213 709.891 424.307 705.243 426.863 700.576L419.544 701.96Z" fill="url(#paint6_linear_1_4)"/>
<path d="M518.201 682.263C525.763 674.938 532.436 667.827 533.245 662.133C534.971 668.78 539.678 674.999 546.735 680.879L540.538 680.967C541.342 684.914 546.936 689.508 553.68 694.255L547.432 694.861C548.803 698.856 556.239 705.423 564.003 712.131L548.047 711.555L552.552 715.938L530.093 713.661L510.74 715.336L514.832 711.984L498.553 712.822C507.727 707.064 514.738 701.169 517.612 695.009L511.63 694.831C517.87 690.193 522.964 685.544 525.52 680.878L518.201 682.263Z" fill="url(#paint7_linear_1_4)"/>
<path d="M1277.24 728.863C1284.8 721.537 1291.48 714.427 1292.28 708.733C1294.01 715.379 1298.72 721.599 1305.77 727.479L1299.58 727.567C1300.38 731.514 1305.98 736.108 1312.72 740.856L1306.47 741.463C1307.84 745.457 1315.28 752.025 1323.04 758.732L1307.09 758.156L1311.59 762.539L1289.14 760.262L1269.78 761.937L1273.87 758.586L1257.6 759.423C1266.77 753.665 1273.78 747.77 1276.65 741.61L1270.67 741.433C1276.91 736.793 1282.01 732.146 1284.56 727.479L1277.24 728.863Z" fill="url(#paint8_linear_1_4)"/>
<path d="M1403.86 762.915C1411.42 755.589 1418.1 748.479 1418.9 742.785C1420.63 749.431 1425.34 755.651 1432.39 761.531L1426.2 761.619C1427 765.566 1432.6 770.16 1439.34 774.909L1433.09 775.515C1434.46 779.51 1441.9 786.077 1449.66 792.784L1433.71 792.208L1438.21 796.589L1415.75 794.313L1396.4 795.988L1400.49 792.636L1384.21 793.474C1393.39 787.716 1400.4 781.82 1403.27 775.661L1397.29 775.483C1403.53 770.845 1408.62 766.196 1411.18 761.53L1403.86 762.915Z" fill="url(#paint9_linear_1_4)"/>
<path d="M1671.49 726.413C1681.17 717.033 1689.72 707.928 1690.75 700.637C1692.96 709.148 1698.99 717.111 1708.03 724.641L1700.09 724.754C1701.12 729.808 1708.29 735.69 1716.92 741.77L1708.92 742.546C1710.68 747.662 1720.2 756.07 1730.14 764.659L1709.71 763.92L1715.48 769.531L1686.72 766.617L1661.94 768.762L1667.18 764.47L1646.33 765.544C1658.08 758.172 1667.06 750.623 1670.74 742.736L1663.08 742.507C1671.07 736.567 1677.59 730.615 1680.86 724.639L1671.49 726.413Z" fill="url(#paint10_linear_1_4)"/>
<path d="M1409.37 704.414C1419.05 695.035 1427.6 685.93 1428.63 678.638C1430.84 687.149 1436.87 695.112 1445.91 702.642L1437.97 702.756C1439 707.809 1446.17 713.691 1454.8 719.771L1446.8 720.547C1448.56 725.664 1458.08 734.071 1468.02 742.66L1447.59 741.921L1453.36 747.532L1424.6 744.618L1399.82 746.764L1405.06 742.472L1384.21 743.545C1395.95 736.173 1404.93 728.624 1408.62 720.737L1400.95 720.509C1408.95 714.569 1415.47 708.617 1418.74 702.641L1409.37 704.414Z" fill="url(#paint11_linear_1_4)"/>
<path d="M547.325 685.585C553.503 679.603 558.953 673.796 559.612 669.145C561.021 674.573 564.866 679.652 570.627 684.455L565.568 684.526C566.224 687.749 570.795 691.501 576.299 695.379L571.198 695.873C572.319 699.137 578.389 704.499 584.732 709.976L571.699 709.505L575.378 713.083L557.036 711.225L541.231 712.593L544.572 709.857L531.277 710.541C538.769 705.838 544.494 701.024 546.844 695.994L541.957 695.85C547.056 692.061 551.213 688.264 553.303 684.453L547.325 685.585Z" fill="url(#paint12_linear_1_4)"/>
<path d="M626.748 737.099C632.923 731.117 638.376 725.31 639.034 720.659C640.444 726.088 644.288 731.166 650.05 735.969L644.991 736.042C645.649 739.265 650.218 743.017 655.724 746.895L650.624 747.391C651.744 750.653 657.817 756.016 664.157 761.494L651.124 761.023L654.803 764.602L636.461 762.743L620.656 764.112L623.997 761.376L610.702 762.059C618.194 757.357 623.919 752.543 626.269 747.513L621.382 747.368C626.481 743.579 630.638 739.785 632.728 735.972L626.748 737.099Z" fill="url(#paint13_linear_1_4)"/>
<path d="M600.022 694.599C606.199 688.617 611.65 682.81 612.308 678.159C613.718 683.587 617.562 688.666 623.324 693.469L618.265 693.54C618.923 696.763 623.492 700.515 628.998 704.393L623.898 704.887C625.018 708.151 631.091 713.513 637.431 718.99L624.401 718.52L628.08 722.099L609.737 720.24L593.932 721.609L597.273 718.873L583.978 719.556C591.47 714.854 597.196 710.039 599.546 705.01L594.659 704.865C599.757 701.076 603.915 697.281 606.005 693.469L600.022 694.599Z" fill="url(#paint14_linear_1_4)"/>
<path d="M962.2 755.37C966.988 750.735 971.211 746.234 971.722 742.63C972.813 746.837 975.792 750.772 980.258 754.494L976.336 754.55C976.847 757.048 980.387 759.956 984.654 762.961L980.701 763.345C981.568 765.874 986.275 770.03 991.189 774.274L981.089 773.91L983.94 776.684L969.724 775.243L957.476 776.303L960.067 774.182L949.763 774.712C955.569 771.067 960.006 767.337 961.826 763.437L958.038 763.324C961.989 760.388 965.211 757.447 966.83 754.492L962.2 755.37Z" fill="url(#paint15_linear_1_4)"/>
<path d="M749.03 770.151C756.323 763.087 762.76 756.23 763.538 750.738C765.202 757.148 769.742 763.145 776.546 768.816L770.57 768.901C771.346 772.708 776.743 777.137 783.243 781.717L777.219 782.301C778.541 786.154 785.712 792.487 793.199 798.956L777.812 798.4L782.157 802.627L760.498 800.432L741.835 802.047L745.781 798.815L730.083 799.623C738.928 794.071 745.691 788.385 748.464 782.445L742.692 782.273C748.712 777.799 753.623 773.317 756.09 768.816L749.03 770.151Z" fill="url(#paint16_linear_1_4)"/>
<path d="M336.602 723.581C343.895 716.517 350.332 709.66 351.112 704.168C352.777 710.578 357.316 716.575 364.121 722.246L358.145 722.331C358.92 726.138 364.317 730.568 370.818 735.148L364.794 735.731C366.116 739.584 373.287 745.917 380.774 752.386L365.387 751.83L369.732 756.057L348.072 753.862L329.409 755.479L333.356 752.247L317.657 753.055C326.503 747.503 333.266 741.816 336.038 735.876L330.267 735.705C336.286 731.23 341.198 726.749 343.664 722.248L336.602 723.581Z" fill="url(#paint17_linear_1_4)"/>
<path d="M1576.16 725.826C1580.95 721.191 1585.17 716.69 1585.68 713.086C1586.78 717.293 1589.75 721.228 1594.22 724.95L1590.3 725.005C1590.81 727.503 1594.35 730.411 1598.62 733.416L1594.66 733.8C1595.53 736.329 1600.24 740.485 1605.15 744.729L1595.05 744.363L1597.9 747.137L1583.69 745.696L1571.44 746.756L1574.03 744.635L1563.73 745.165C1569.53 741.521 1573.97 737.79 1575.79 733.891L1572 733.777C1575.95 730.841 1579.18 727.9 1580.79 724.945L1576.16 725.826Z" fill="url(#paint18_linear_1_4)"/>
<path d="M1249.32 748.374C1254.1 743.738 1258.33 739.238 1258.84 735.634C1259.93 739.841 1262.91 743.776 1267.37 747.498L1263.45 747.555C1263.96 750.052 1267.5 752.961 1271.77 755.966L1267.82 756.349C1268.68 758.878 1273.39 763.034 1278.3 767.279L1268.2 766.913L1271.06 769.687L1256.84 768.246L1244.59 769.306L1247.18 767.185L1236.88 767.714C1242.69 764.07 1247.12 760.34 1248.94 756.44L1245.16 756.327C1249.1 753.39 1252.33 750.45 1253.95 747.495L1249.32 748.374Z" fill="url(#paint19_linear_1_4)"/>
<path d="M1498.42 725.826C1503.2 721.191 1507.43 716.69 1507.94 713.086C1509.03 717.293 1512.01 721.228 1516.48 724.95L1512.55 725.005C1513.06 727.503 1516.6 730.411 1520.87 733.416L1516.92 733.8C1517.78 736.329 1522.49 740.485 1527.41 744.729L1517.31 744.363L1520.16 747.137L1505.94 745.696L1493.7 746.756L1496.29 744.635L1485.98 745.165C1491.79 741.521 1496.23 737.79 1498.05 733.891L1494.26 733.777C1498.21 730.841 1501.43 727.9 1503.05 724.945L1498.42 725.826Z" fill="url(#paint20_linear_1_4)"/>
<path d="M1450.46 784.748C1455.24 780.111 1459.47 775.612 1459.98 772.008C1461.07 776.215 1464.05 780.15 1468.51 783.872L1464.59 783.928C1465.1 786.426 1468.64 789.334 1472.91 792.339L1468.96 792.723C1469.82 795.252 1474.53 799.408 1479.45 803.652L1469.35 803.288L1472.2 806.062L1457.98 804.621L1445.74 805.681L1448.33 803.56L1438.02 804.089C1443.83 800.445 1448.26 796.715 1450.09 792.815L1446.3 792.702C1450.25 789.766 1453.47 786.825 1455.09 783.87L1450.46 784.748Z" fill="url(#paint21_linear_1_4)"/>
<path d="M1233.42 784.748C1238.2 780.111 1242.43 775.612 1242.94 772.008C1244.03 776.215 1247.01 780.15 1251.47 783.872L1247.55 783.928C1248.06 786.426 1251.6 789.334 1255.87 792.339L1251.92 792.723C1252.78 795.252 1257.49 799.408 1262.4 803.652L1252.3 803.288L1255.16 806.062L1240.94 804.621L1228.69 805.681L1231.28 803.56L1220.98 804.089C1226.79 800.445 1231.22 796.715 1233.04 792.815L1229.26 792.702C1233.2 789.766 1236.43 786.825 1238.05 783.87L1233.42 784.748Z" fill="url(#paint22_linear_1_4)"/>
<path d="M891.276 801.774C896.063 797.137 900.286 792.638 900.797 789.034C901.888 793.241 904.867 797.176 909.334 800.899L905.411 800.956C905.922 803.454 909.462 806.362 913.73 809.367L909.776 809.751C910.644 812.279 915.351 816.436 920.264 820.68L910.165 820.314L913.015 823.088L898.802 821.647L886.554 822.709L889.144 820.587L878.841 821.117C884.646 817.473 889.084 813.742 890.904 809.843L887.115 809.73C891.064 806.793 894.289 803.852 895.907 800.898L891.276 801.774Z" fill="url(#paint23_linear_1_4)"/>
<path d="M822.101 755.99C826.888 751.353 831.112 746.853 831.622 743.249C832.713 747.456 835.692 751.392 840.159 755.113L836.237 755.168C836.747 757.666 840.288 760.574 844.555 763.579L840.601 763.963C841.469 766.492 846.176 770.648 851.089 774.892L840.99 774.526L843.84 777.3L829.624 775.86L817.377 776.919L819.967 774.798L809.664 775.328C815.469 771.684 819.906 767.953 821.727 764.054L817.938 763.941C821.887 761.004 825.112 758.063 826.73 755.109L822.101 755.99Z" fill="url(#paint24_linear_1_4)"/>
<path d="M842.27 746.389C845.388 743.367 848.142 740.435 848.474 738.087C849.186 740.828 851.128 743.393 854.037 745.817L851.48 745.853C851.813 747.48 854.12 749.375 856.9 751.333L854.324 751.583C854.89 753.231 857.957 755.939 861.157 758.705L854.576 758.468L856.433 760.276L847.172 759.337L839.191 760.028L840.878 758.645L834.164 758.99C837.947 756.615 840.839 754.185 842.025 751.644L839.556 751.571C842.129 749.657 844.231 747.741 845.286 745.816L842.27 746.389Z" fill="url(#paint25_linear_1_4)"/>
<path d="M1171.29 757.482C1174.4 754.462 1177.16 751.529 1177.49 749.181C1178.2 751.921 1180.14 754.486 1183.05 756.911L1180.5 756.946C1180.83 758.574 1183.14 760.468 1185.92 762.427L1183.34 762.676C1183.91 764.324 1186.97 767.032 1190.17 769.797L1183.59 769.56L1185.45 771.368L1176.19 770.428L1168.21 771.12L1169.9 769.737L1163.18 770.084C1166.97 767.708 1169.86 765.278 1171.04 762.737L1168.58 762.664C1171.15 760.752 1173.25 758.835 1174.31 756.909L1171.29 757.482Z" fill="url(#paint26_linear_1_4)"/>
<path d="M1665.56 757.482C1668.68 754.462 1671.43 751.529 1671.76 749.181C1672.48 751.921 1674.42 754.486 1677.33 756.911L1674.77 756.946C1675.1 758.574 1677.41 760.468 1680.19 762.427L1677.61 762.676C1678.18 764.324 1681.25 767.032 1684.45 769.797L1677.87 769.56L1679.72 771.368L1670.46 770.428L1662.48 771.12L1664.17 769.737L1657.45 770.084C1661.24 767.708 1664.13 765.278 1665.31 762.737L1662.84 762.664C1665.42 760.752 1667.52 758.835 1668.57 756.909L1665.56 757.482Z" fill="url(#paint27_linear_1_4)"/>
<path d="M1599.76 810.927C1602.88 807.907 1605.63 804.973 1605.96 802.625C1606.68 805.366 1608.62 807.931 1611.53 810.355L1608.97 810.392C1609.3 812.02 1611.61 813.914 1614.39 815.873L1611.81 816.122C1612.38 817.77 1615.44 820.478 1618.65 823.243L1612.07 823.006L1613.92 824.813L1604.66 823.874L1596.68 824.566L1598.37 823.183L1591.65 823.53C1595.44 821.154 1598.33 818.724 1599.51 816.183L1597.05 816.11C1599.62 814.198 1601.72 812.281 1602.77 810.355L1599.76 810.927Z" fill="url(#paint28_linear_1_4)"/>
<path d="M1317.65 791.311C1320.77 788.289 1323.52 785.357 1323.85 783.009C1324.57 785.75 1326.51 788.315 1329.42 790.739L1326.86 790.776C1327.2 792.403 1329.5 794.298 1332.28 796.257L1329.71 796.506C1330.27 798.154 1333.34 800.862 1336.54 803.628L1329.96 803.391L1331.82 805.199L1322.56 804.26L1314.58 804.951L1316.26 803.569L1309.55 803.913C1313.33 801.54 1316.22 799.108 1317.41 796.567L1314.94 796.494C1317.52 794.582 1319.62 792.665 1320.67 790.739L1317.65 791.311Z" fill="url(#paint29_linear_1_4)"/>
<path d="M1203.45 790.328C1206.34 787.522 1208.9 784.796 1209.21 782.615C1209.87 785.162 1211.68 787.544 1214.38 789.798L1212.01 789.833C1212.32 791.345 1214.46 793.105 1217.04 794.925L1214.65 795.158C1215.17 796.689 1218.02 799.205 1221 801.776L1214.88 801.555L1216.61 803.234L1208 802.362L1200.59 803.004L1202.16 801.72L1195.92 802.041C1199.43 799.835 1202.12 797.576 1203.22 795.216L1200.93 795.147C1203.32 793.369 1205.27 791.588 1206.25 789.8L1203.45 790.328Z" fill="url(#paint30_linear_1_4)"/>
<path d="M684.531 721.388C687.649 718.368 690.402 715.434 690.735 713.086C691.447 715.827 693.388 718.392 696.297 720.816L693.741 720.854C694.074 722.481 696.38 724.375 699.16 726.334L696.584 726.583C697.15 728.231 700.217 730.939 703.417 733.704L696.837 733.467L698.693 735.275L689.432 734.336L681.452 735.027L683.138 733.644L676.424 733.991C680.208 731.616 683.099 729.185 684.285 726.644L681.816 726.571C684.39 724.659 686.489 722.742 687.544 720.816L684.531 721.388Z" fill="url(#paint31_linear_1_4)"/>
<path d="M656.188 732.292C659.306 729.272 662.06 726.338 662.392 723.99C663.105 726.731 665.046 729.296 667.955 731.72L665.399 731.756C665.731 733.383 668.038 735.278 670.818 737.236L668.242 737.485C668.808 739.134 671.875 741.842 675.075 744.608L668.495 744.371L670.351 746.178L661.09 745.239L653.11 745.931L654.796 744.548L648.082 744.893C651.865 742.519 654.757 740.088 655.943 737.547L653.474 737.474C656.048 735.561 658.147 733.644 659.202 731.719L656.188 732.292Z" fill="url(#paint32_linear_1_4)"/>
<path d="M505.445 767.852C508.563 764.832 511.316 761.898 511.649 759.55C512.361 762.291 514.303 764.856 517.212 767.28L514.658 767.317C514.99 768.945 517.297 770.839 520.077 772.798L517.501 773.047C518.067 774.695 521.134 777.403 524.334 780.169L517.753 779.932L519.61 781.74L510.349 780.801L502.369 781.492L504.055 780.11L497.341 780.455C501.124 778.081 504.016 775.649 505.202 773.108L502.733 773.035C505.307 771.123 507.409 769.206 508.461 767.28L505.445 767.852Z" fill="url(#paint33_linear_1_4)"/>
<path d="M401.522 727.319C404.64 724.299 407.393 721.366 407.726 719.017C408.438 721.758 410.38 724.323 413.289 726.749L410.735 726.785C411.068 728.412 413.374 730.306 416.154 732.265L413.578 732.514C414.144 734.162 417.211 736.87 420.411 739.635L413.831 739.398L415.69 741.206L406.426 740.267L398.446 740.958L400.132 739.576L393.418 739.922C397.201 737.547 400.093 735.116 401.279 732.575L398.81 732.502C401.384 730.59 403.486 728.673 404.538 726.747L401.522 727.319Z" fill="url(#paint34_linear_1_4)"/>
<path d="M183.006 722.417C186.124 719.396 188.877 716.463 189.21 714.115C189.922 716.856 191.863 719.42 194.772 721.845L192.216 721.881C192.549 723.508 194.855 725.402 197.635 727.361L195.059 727.61C195.625 729.258 198.69 731.966 201.892 734.733L195.312 734.495L197.171 736.303L187.907 735.364L179.927 736.055L181.613 734.673L174.899 735.019C178.683 732.646 181.574 730.214 182.76 727.673L180.291 727.6C182.865 725.687 184.967 723.769 186.019 721.845L183.006 722.417Z" fill="url(#paint35_linear_1_4)"/>
<path d="M476.559 686.243C479.676 683.223 482.43 680.29 482.763 677.941C483.475 680.682 485.416 683.247 488.325 685.673L485.771 685.709C486.104 687.336 488.41 689.23 491.19 691.189L488.614 691.438C489.18 693.086 492.245 695.794 495.448 698.559L488.867 698.322L490.724 700.13L481.462 699.191L473.482 699.882L475.169 698.499L468.454 698.846C472.238 696.472 475.13 694.04 476.316 691.499L473.847 691.426C476.42 689.514 478.522 687.597 479.574 685.671L476.559 686.243Z" fill="url(#paint36_linear_1_4)"/>
<path d="M525.887 710.293C529.005 707.271 531.758 704.339 532.091 701.991C532.803 704.732 534.745 707.297 537.654 709.723L535.097 709.759C535.43 711.386 537.736 713.28 540.516 715.239L537.94 715.488C538.506 717.136 541.573 719.844 544.774 722.611L538.193 722.373L540.052 724.181L530.789 723.242L522.808 723.933L524.495 722.551L517.78 722.897C521.564 720.522 524.456 718.092 525.642 715.551L523.173 715.478C525.746 713.565 527.848 711.649 528.9 709.723L525.887 710.293Z" fill="url(#paint37_linear_1_4)"/>
<path d="M1778.33 772.396C1783.12 767.761 1787.35 763.26 1787.86 759.656C1788.95 763.863 1791.93 767.798 1796.39 771.52L1792.47 771.576C1792.98 774.074 1796.52 776.982 1800.79 779.987L1796.84 780.371C1797.7 782.9 1802.41 787.056 1807.32 791.3L1797.22 790.936L1800.07 793.71L1785.86 792.269L1773.61 793.329L1776.2 791.208L1765.9 791.738C1771.71 788.093 1776.14 784.363 1777.96 780.463L1774.17 780.35C1778.13 777.414 1781.35 774.473 1782.97 771.518L1778.33 772.396Z" fill="url(#paint38_linear_1_4)"/>
<path d="M1638.06 789.816C1642.84 785.179 1647.07 780.68 1647.58 777.076C1648.67 781.283 1651.65 785.218 1656.11 788.94L1652.19 788.997C1652.7 791.494 1656.24 794.402 1660.51 797.407L1656.56 797.791C1657.42 800.32 1662.13 804.476 1667.04 808.72L1656.94 808.355L1659.79 811.128L1645.58 809.688L1633.33 810.749L1635.92 808.628L1625.62 809.158C1631.42 805.514 1635.86 801.783 1637.68 797.884L1633.89 797.77C1637.84 794.834 1641.07 791.893 1642.68 788.938L1638.06 789.816Z" fill="url(#paint39_linear_1_4)"/>
<path d="M351.618 686.243C354.735 683.223 357.489 680.29 357.822 677.941C358.534 680.682 360.475 683.247 363.384 685.673L360.83 685.709C361.163 687.336 363.469 689.23 366.249 691.189L363.673 691.438C364.24 693.086 367.306 695.794 370.507 698.559L363.926 698.322L365.785 700.13L356.524 699.191L348.544 699.882L350.23 698.499L343.516 698.846C347.299 696.472 350.191 694.04 351.377 691.499L348.911 691.426C351.484 689.514 353.584 687.597 354.638 685.671L351.618 686.243Z" fill="url(#paint40_linear_1_4)"/>
<path d="M297.675 710.293C300.792 707.271 303.546 704.339 303.879 701.991C304.591 704.732 306.532 707.297 309.441 709.723L306.885 709.759C307.218 711.386 309.524 713.28 312.304 715.239L309.728 715.488C310.294 717.136 313.358 719.844 316.561 722.611L309.981 722.373L311.84 724.181L302.578 723.242L294.598 723.933L296.285 722.551L289.57 722.897C293.354 720.522 296.246 718.092 297.432 715.551L294.963 715.478C297.536 713.565 299.636 711.649 300.69 709.723L297.675 710.293Z" fill="url(#paint41_linear_1_4)"/>
<path d="M1517.36 750.984C1527.04 741.604 1535.59 732.499 1536.62 725.208C1538.83 733.719 1544.85 741.682 1553.89 749.212L1545.96 749.325C1546.99 754.379 1554.15 760.261 1562.79 766.341L1554.79 767.117C1556.54 772.233 1566.06 780.641 1576.01 789.23L1555.57 788.491L1561.34 794.102L1532.58 791.188L1507.8 793.333L1513.04 789.041L1492.2 790.115C1503.94 782.743 1512.92 775.194 1516.6 767.307L1508.94 767.079C1516.93 761.138 1523.45 755.186 1526.73 749.21L1517.36 750.984Z" fill="url(#paint42_linear_1_4)"/>
<path opacity="0.5" d="M1006.17 771.293C1006.17 771.293 1034.14 817.01 1115.78 828.887C1220.2 844.08 1429.02 862.562 1345.49 904.256C1261.96 945.949 938.276 984.435 1115.78 1079.05L1434.24 1091.87C1434.24 1091.87 1201.92 1026.13 1342.87 965.192C1483.83 904.256 1419.35 855.308 1298.48 840.411C1169.61 824.528 1068.81 805.921 1074.23 769.821L1006.17 771.293Z" fill="#6FB8A2"/>
<path d="M68.947 576.828H357.297C357.297 576.828 347.387 550.538 308.97 556.666C288.309 559.962 300.054 529.49 265.085 528.621C232.169 527.804 228.254 551.417 228.254 551.417C228.254 551.417 211.042 531.659 181.725 538.168C158.18 543.396 156.034 561.885 156.034 561.885C156.034 561.885 88.0621 565.674 68.947 576.828Z" fill="white"/>
<path d="M1368.42 679.754H1553.8C1553.8 679.754 1537.89 670.823 1523.84 670.823C1523.84 670.823 1519.16 654.718 1501.37 652.993C1483.58 651.267 1479.84 666.373 1479.84 666.373C1479.84 666.373 1470.48 658.168 1461.11 659.319C1451.75 660.47 1451.75 670.823 1451.75 670.823L1368.42 679.754Z" fill="white"/>
<path d="M1514.79 552.714H1931.98C1931.98 552.714 1920.07 535.606 1888.07 535.179C1859.19 534.794 1855.13 543.823 1855.13 543.823H1767.3C1767.3 543.823 1756.12 516.003 1723.39 512.961C1685.46 509.436 1668.49 530.457 1668.49 530.457C1668.49 530.457 1638.94 524.79 1620.19 530.429C1606.06 534.677 1598.23 544.62 1598.23 544.62C1598.23 544.62 1530.16 544.621 1514.79 552.714Z" fill="white"/>
<path d="M322.763 657.374H446.591C446.591 657.374 435.959 651.409 426.579 651.409C426.579 651.409 423.451 640.651 411.571 639.499C399.687 638.346 397.187 648.436 397.187 648.436C397.187 648.436 390.932 642.956 384.679 643.725C378.424 644.494 378.424 651.409 378.424 651.409L322.763 657.374Z" fill="white"/>
<path d="M1977.33 817.364C1977.33 817.364 1802.82 791.388 1593.22 878.895C1223.34 1033.32 1022.37 859.708 800.128 851.337C625.995 844.779 525.938 905.903 306.671 905.903C5.05247 905.903 -126 785.191 -126 785.191L-121.371 1093.48H1977.33L1977.33 817.364Z" fill="url(#paint43_linear_1_4)"/>
<path d="M1322.42 942.124C1322.42 942.124 1546.94 959.92 1565.45 1001.14C1583.96 1042.37 1250.76 1043.02 1229.93 1079.05H1678.83C1678.83 1079.05 1742.26 1041.76 1718.17 1010.59C1675.89 955.866 1412.94 932.564 1412.94 932.564C1390.01 934.873 1357.98 940.231 1322.42 942.124Z" fill="#6FB8A2"/>
<path d="M1718.17 1010.58C1675.89 955.864 1412.94 932.562 1412.94 932.562C1411.6 932.696 1410.23 932.844 1408.83 932.998C1444.17 936.42 1670.45 960.165 1709.41 1010.58C1733.5 1041.76 1670.07 1079.04 1670.07 1079.04H1678.83C1678.83 1079.04 1742.26 1041.76 1718.17 1010.58Z" fill="#497C74"/>
<path d="M1977.33 932.031C1977.33 932.031 1795.92 929.618 1576 976.022C1019.36 1093.48 558.018 954.576 357.01 933.756C210.332 918.564 -58.9294 909.256 -58.9294 909.256L-54.3025 1093.48H1977.33V932.031Z" fill="url(#paint44_linear_1_4)"/>
<path d="M664.157 1030.41L707.648 1006.16L747.494 999.792L803.027 995.482L878.841 1026.11L664.157 1030.41Z" fill="#BC9F70"/>
<path d="M803.501 997.191L780.772 1003.61L799.634 1011.79H825.262L852.343 1018.92L803.501 997.191Z" fill="#A68158"/>
<path d="M1534.1 1034.79C1423.73 1058.07 1233.75 1072.9 1082.75 1052.5C1071.18 1050.64 1058.92 1048.7 1046.17 1046.73C1046.16 1046.73 1046.15 1046.73 1046.14 1046.73C987.286 1037.63 918.327 1027.87 861.159 1022.27C733.04 1009.71 549.634 1039.09 481.951 1037.67C414.268 1036.25 345.185 1020.63 266.941 1001.77C138.136 970.718 -19.8731 1022.22 -19.8731 1022.22L-42.7305 1068.27L1881.46 1072.82L1894.37 1032.57C1894.37 1032.57 1765.9 985.883 1534.1 1034.79Z" fill="url(#paint45_linear_1_4)"/>
<path d="M59.4719 881.369L46.2279 888.318L63.7246 873.754C46.4539 844.298 20.9234 834.801 20.9234 834.801C-78.0081 922.747 50.7989 1046.65 50.7989 1046.65C87.2795 966.622 83.2455 915.182 68.5508 883.054C67.4378 880.627 62.597 879.731 59.4719 881.369Z" fill="#3C5634"/>
<path d="M26.4009 859.187L54.5875 1078.43" stroke="#9AB892" stroke-width="0.6609" stroke-miterlimit="10"/>
<path d="M2.50818 887.581L31.8734 903.895" stroke="#9AB892" stroke-width="0.6609" stroke-miterlimit="10"/>
<path d="M5.91266 924.907L36.6703 940.74" stroke="#9AB892" stroke-width="0.6609" stroke-miterlimit="10"/>
<path d="M13.9612 967.907L42.036 981.98" stroke="#9AB892" stroke-width="0.6609" stroke-miterlimit="10"/>
<path d="M60.6141 943.756L40.262 968.352" stroke="#9AB892" stroke-width="0.6609" stroke-miterlimit="10"/>
<path d="M52.9131 900.761L34.4638 923.792" stroke="#9AB892" stroke-width="0.6609" stroke-miterlimit="10"/>
<path d="M41.4697 869.368L29.4359 885.156" stroke="#9AB892" stroke-width="0.6609" stroke-miterlimit="10"/>
<path d="M154.306 980.873L145.555 981.431L159.626 978.454C166.182 963.163 159.995 954.718 159.995 954.718C77.8215 973.88 73.598 1048.09 73.598 1048.09C126.103 1021.23 148.421 999.123 157.295 983.173C157.966 981.965 156.372 980.741 154.306 980.873Z" fill="#3C5634"/>
<path d="M150.899 965.825L60.3516 1061.97" stroke="#9AB892" stroke-width="0.3338" stroke-miterlimit="10"/>
<path d="M127.719 973.428L132.321 985.383" stroke="#9AB892" stroke-width="0.3338" stroke-miterlimit="10"/>
<path d="M111.721 989.552L117.128 1001.55" stroke="#9AB892" stroke-width="0.3338" stroke-miterlimit="10"/>
<path d="M95.0096 1008.85L100.122 1019.65" stroke="#9AB892" stroke-width="0.3338" stroke-miterlimit="10"/>
<path d="M125.68 1007.02L105.741 1013.67" stroke="#9AB892" stroke-width="0.3338" stroke-miterlimit="10"/>
<path d="M142.532 987.783L124.117 994.114" stroke="#9AB892" stroke-width="0.3338" stroke-miterlimit="10"/>
<path d="M152.418 972.711L140.049 977.16" stroke="#9AB892" stroke-width="0.3338" stroke-miterlimit="10"/>
<path d="M-3.76153 1072.47H240.152C240.152 1072.47 221.105 1051.32 207.399 1046.73C193.693 1042.14 167.856 1023.88 167.856 1023.88C167.856 1023.88 143.794 1013.6 129.405 1012.71C115.019 1011.82 2.40605 983.322 -3.76396 984.302C-9.93396 985.281 -3.76153 1072.47 -3.76153 1072.47Z" fill="#BC9F70"/>
<path d="M50.8985 949.378C58.3078 957.675 68.3247 963.612 68.4243 963.688C68.4267 963.809 71.406 954.338 62.9371 944.886C54.4926 935.437 39.6374 931.653 39.8124 931.732C39.9047 931.822 43.6714 941.056 50.8985 949.378Z" fill="#82CAA7"/>
<path d="M75.4911 952.135C73.841 961.161 76.434 971.223 76.3343 971.294C76.1909 971.254 87.1166 968.645 90.4386 959.325C93.9428 949.917 85.2892 937.963 85.124 938.071C84.9757 938.036 77.2505 943.063 75.4911 952.135Z" fill="#82CAA7"/>
<path d="M87.1822 978.336C81.6125 986.566 79.8579 996.604 79.734 996.66C79.6198 996.604 91.2405 995.807 98.4481 987.476C105.845 979.078 102.893 966.564 102.708 966.652C102.589 966.604 92.8759 970.075 87.1822 978.336Z" fill="#82CAA7"/>
<path d="M87.2453 1005.13C78.4217 1012.16 72.5846 1021.64 72.4388 1021.68C72.3513 1021.61 83.9064 1022.64 94.3218 1015.72C104.934 1008.75 107.357 996.316 107.153 996.38C107.06 996.321 96.2002 998.085 87.2453 1005.13Z" fill="#82CAA7"/>
<path d="M76.1861 1031.1C64.7549 1036.57 55.0953 1044.96 54.9325 1044.97C54.8718 1044.9 65.6492 1047.68 78.621 1042.53C91.797 1037.37 99.2623 1025.67 99.0435 1025.71C98.9779 1025.64 87.7606 1025.63 76.1861 1031.1Z" fill="#82CAA7"/>
<path d="M155.127 1038.55C150.676 1043.54 144.656 1047.1 144.598 1047.15C144.595 1047.22 142.807 1041.53 147.896 1035.85C152.97 1030.17 161.895 1027.9 161.791 1027.95C161.732 1028 159.47 1033.55 155.127 1038.55Z" fill="#82CAA7"/>
<path d="M140.35 1040.21C141.342 1045.63 139.784 1051.68 139.845 1051.72C139.93 1051.7 133.366 1050.13 131.371 1044.53C129.267 1038.87 134.465 1031.69 134.564 1031.76C134.652 1031.74 139.293 1034.76 140.35 1040.21Z" fill="#82CAA7"/>
<path d="M133.325 1055.95C136.671 1060.9 137.726 1066.93 137.799 1066.96C137.867 1066.93 130.885 1066.45 126.555 1061.44C122.11 1056.4 123.884 1048.88 123.996 1048.93C124.069 1048.9 129.906 1050.99 133.325 1055.95Z" fill="#82CAA7"/>
<path d="M133.288 1072.05C138.588 1076.27 142.097 1081.97 142.185 1081.99C142.236 1081.95 135.293 1082.57 129.036 1078.41C122.659 1074.22 121.203 1066.76 121.325 1066.79C121.381 1066.76 127.906 1067.82 133.288 1072.05Z" fill="#82CAA7"/>
<path d="M153.932 1044.18C147.169 1046.59 144.136 1052.47 144.255 1052.44C144.285 1052.49 150.863 1052.72 156.797 1050.14C162.649 1047.59 166.763 1043.46 166.853 1043.44C166.872 1043.49 160.571 1041.79 153.932 1044.18Z" fill="#82CAA7"/>
<path d="M148.139 1057.57C142.698 1060.9 142.263 1067 142.362 1066.96C142.408 1067 148.86 1066.17 153.485 1062.78C158.041 1059.41 160.165 1054.88 160.238 1054.86C160.274 1054.9 153.475 1054.28 148.139 1057.57Z" fill="#82CAA7"/>
<path d="M148.387 1071.79C144.593 1075.88 146.788 1081.86 146.868 1081.8C146.928 1081.84 152.795 1079.99 155.786 1075.95C158.729 1071.94 158.797 1067.24 158.853 1067.2C158.909 1067.24 152.097 1067.75 148.387 1071.79Z" fill="#82CAA7"/>
<path d="M154.758 1085.53C152.86 1090.13 157.604 1095.62 157.665 1095.56C157.74 1095.58 162.588 1092.83 163.706 1088.4C164.787 1084 162.826 1079.41 162.867 1079.37C162.938 1079.39 156.59 1080.99 154.758 1085.53Z" fill="#82CAA7"/>
<path d="M152.605 1036.39C123.838 1067.21 149.167 1109.99 212.152 1120.09C211.989 1120.39 211.826 1120.7 211.664 1121C147.796 1110.5 122.81 1067.08 152.078 1036.19C152.253 1036.26 152.428 1036.32 152.605 1036.39Z" fill="#283820"/>
<path d="M134.744 1038.26C135.978 1043.87 138.518 1049 141.971 1053.55C147.551 1050.32 153.597 1047.69 159.852 1045.66" stroke="#283820" stroke-width="0.2571" stroke-miterlimit="10"/>
<path d="M126.948 1055.58C130.686 1060.64 135.39 1065.1 140.693 1068.88C144.664 1064.89 149.312 1061.4 154.401 1058.47" stroke="#283820" stroke-width="0.2571" stroke-miterlimit="10"/>
<path d="M127.101 1073.28C132.887 1077.52 139.32 1081.07 146.056 1083.89C148.173 1079.37 151.159 1075.23 154.799 1071.59" stroke="#283820" stroke-width="0.2571" stroke-miterlimit="10"/>
<path d="M52.4757 1056.45C38.9231 1059.9 25.4555 1066.5 25.2732 1066.49C25.2392 1066.4 34.4468 1070.9 49.4769 1068.01C64.7209 1065.14 77.231 1054.99 76.9953 1054.99C76.9589 1054.91 66.1814 1053.03 52.4757 1056.45Z" fill="#82CAA7"/>
<path d="M52.8888 958.741C64.145 962.763 69.1923 972.538 68.993 972.493C68.9444 972.569 57.9993 972.954 48.121 968.671C38.3811 964.415 31.5356 957.545 31.3849 957.517C31.3509 957.599 41.8367 954.762 52.8888 958.741Z" fill="#82CAA7"/>
<path d="M62.5289 981.029C71.5835 986.578 72.3076 996.716 72.1424 996.651C72.0646 996.719 61.3285 995.352 53.6324 989.706C46.048 984.099 42.5171 976.558 42.3956 976.515C42.33 976.588 53.6469 975.548 62.5289 981.029Z" fill="#82CAA7"/>
<path d="M62.1158 1004.69C68.4292 1011.5 64.7767 1021.45 64.6455 1021.36C64.5434 1021.42 54.7818 1018.34 49.8001 1011.61C44.9034 1004.94 44.7892 997.116 44.6969 997.061C44.6021 997.124 55.9409 997.973 62.1158 1004.69Z" fill="#82CAA7"/>
<path d="M51.5134 1027.56C54.6701 1035.21 46.7771 1044.35 46.6751 1044.25C46.5487 1044.29 38.4808 1039.72 36.6218 1032.34C34.8211 1025.02 38.0847 1017.37 38.0191 1017.3C37.9 1017.35 48.4636 1020.01 51.5134 1027.56Z" fill="#82CAA7"/>
<path d="M32.0993 1047.52C31.8709 1055.52 20.0339 1063.27 19.961 1063.15C19.8152 1063.17 13.9952 1057.45 15.4848 1049.92C17.0085 1042.46 23.4677 1035.45 23.4239 1035.38C23.2854 1035.41 32.408 1039.65 32.0993 1047.52Z" fill="#82CAA7"/>
<path d="M55.0977 945.786C102.975 997.075 60.8206 1068.28 -44.0039 1085.08C-43.7342 1085.58 -43.462 1086.09 -43.1898 1086.6C63.1049 1069.12 104.686 996.86 55.9774 945.444C55.6834 945.557 55.3893 945.671 55.0977 945.786Z" fill="#283820"/>
<path d="M84.8201 948.896C82.7667 958.232 78.5383 966.773 72.7912 974.338C63.5058 968.973 53.4452 964.581 43.0347 961.209" stroke="#283820" stroke-width="0.4279" stroke-miterlimit="10"/>
<path d="M97.7969 977.714C91.5783 986.138 83.7461 993.557 74.92 999.859C68.3126 993.211 60.5752 987.401 52.1039 982.534" stroke="#283820" stroke-width="0.4279" stroke-miterlimit="10"/>
<path d="M97.5393 1007.17C87.9113 1014.23 77.2043 1020.14 65.9943 1024.84C62.4731 1017.31 57.5035 1010.43 51.4453 1004.35" stroke="#283820" stroke-width="0.4279" stroke-miterlimit="10"/>
<path d="M84.6694 1035.6C72.3561 1040.92 59.4645 1044.97 46.534 1047.79C46.4611 1039.86 44.6482 1032.33 41.4259 1025.43" stroke="#283820" stroke-width="0.4279" stroke-miterlimit="10"/>
<path d="M59.8364 1061.29C45.528 1064.53 31.1103 1066.46 17.0862 1067.16C20.7727 1059.39 22.464 1051.74 22.4543 1044.46" stroke="#283820" stroke-width="0.4279" stroke-miterlimit="10"/>
<path d="M1775.8 1092.03C1775.8 1092.03 1707.49 1018.85 1747.5 1012.26C1775.91 1007.59 1788.79 989.155 1774.1 969.384C1756.65 945.902 1757.55 919.268 1800.95 932.537C1833.6 942.518 1841.72 932.353 1857.67 911.259C1881.46 879.775 1934.52 899.763 1931.15 918.123C1925.39 949.443 1898.14 950.82 1906.58 960.041C1915.13 969.379 1931.15 965.49 1934.73 977.227C1940.87 997.29 1854.6 1010.92 1857.67 1022.21C1860.73 1033.49 1873.83 1033.82 1870.24 1045.3C1865.53 1060.33 1775.8 1092.03 1775.8 1092.03Z" fill="#3E6E48"/>
<path d="M1771.25 1086.96C1771.25 1086.96 1796.72 1007.83 1892.93 914.77" stroke="#9AB892" stroke-width="0.9585" stroke-miterlimit="10"/>
<path d="M1793.31 949.143C1811.73 962.557 1818.63 974.795 1824.09 993.187" stroke="#9AB892" stroke-width="0.9585" stroke-miterlimit="10"/>
<path d="M1898.14 981.838C1874.15 980.481 1851.48 982.442 1829.43 986.019" stroke="#9AB892" stroke-width="0.9585" stroke-miterlimit="10"/>
<path d="M1756.65 1024.18C1771.28 1036.39 1779.9 1048.97 1781.93 1061.94" stroke="#9AB892" stroke-width="0.9585" stroke-miterlimit="10"/>
<path d="M1845.85 1038.43C1824.5 1040.38 1805.03 1045.09 1787.01 1051.95" stroke="#9AB892" stroke-width="0.9585" stroke-miterlimit="10"/>
<path d="M1763.66 1086.96C1763.66 1086.96 1739.1 950.4 1666.77 929.86C1666.77 929.86 1659.94 993.377 1763.66 1086.96Z" fill="#6E945C"/>
<path d="M1758.62 1091.91C1758.62 1091.91 1589.74 1065.48 1574.73 986.019C1574.73 986.019 1624.2 989.627 1654.91 1000.52L1652.86 1008.91L1661.64 1003.62C1661.64 1003.62 1741.56 1044.12 1758.62 1091.91Z" fill="#8CB293"/>
<path d="M1676.64 940.771C1676.64 940.771 1728.58 1005.66 1763.02 1084.18" stroke="#344A28" stroke-width="0.9585" stroke-miterlimit="10"/>
<path d="M1586.18 993.186L1758.62 1088.84" stroke="#344A28" stroke-width="0.9585" stroke-miterlimit="10"/>
<path d="M650.624 980.196C647.528 983.993 640.947 985.818 640.947 985.818C640.947 985.818 639.387 981.488 642.485 977.691C645.581 973.895 652.162 972.069 652.162 972.069C652.162 972.069 653.722 976.398 650.624 980.196Z" fill="#82CAA7"/>
<path d="M636.014 980.186C638.196 984.215 635.645 988.365 635.645 988.365C635.645 988.365 629.557 985.981 627.377 981.95C625.195 977.921 627.747 973.771 627.747 973.771C627.747 973.771 633.834 976.157 636.014 980.186Z" fill="#82CAA7"/>
<path d="M628.087 989.909C630.267 993.938 627.718 998.088 627.718 998.088C627.718 998.088 621.63 995.703 619.45 991.673C617.271 987.644 619.82 983.494 619.82 983.494C619.82 983.494 625.905 985.88 628.087 989.909Z" fill="#82CAA7"/>
<path d="M620.158 999.632C622.337 1003.66 619.788 1007.81 619.788 1007.81C619.788 1007.81 613.701 1005.43 611.521 1001.4C609.341 997.366 611.89 993.217 611.89 993.217C611.89 993.217 617.975 995.601 620.158 999.632Z" fill="#82CAA7"/>
<path d="M612.228 1009.35C614.408 1013.38 611.856 1017.53 611.856 1017.53C611.856 1017.53 605.769 1015.15 603.589 1011.12C601.407 1007.09 603.959 1002.94 603.959 1002.94C603.959 1002.94 610.046 1005.32 612.228 1009.35Z" fill="#82CAA7"/>
<path d="M603.696 1019.82C605.878 1023.85 603.327 1028 603.327 1028C603.327 1028 597.239 1025.61 595.06 1021.58C592.88 1017.55 595.429 1013.4 595.429 1013.4C595.429 1013.4 601.514 1015.79 603.696 1019.82Z" fill="#82CAA7"/>
<path d="M650.473 984.636C643.914 985.975 640.031 989.715 640.031 989.715C640.031 989.715 646.784 991.282 653.345 989.942C659.904 988.603 663.787 984.863 663.787 984.863C663.787 984.863 657.032 983.295 650.473 984.636Z" fill="#82CAA7"/>
<path d="M642.544 994.359C635.985 995.7 632.101 999.438 632.101 999.438C632.101 999.438 638.855 1001.01 645.416 999.665C651.975 998.326 655.858 994.586 655.858 994.586C655.858 994.586 649.105 993.018 642.544 994.359Z" fill="#82CAA7"/>
<path d="M634.313 1004.45C627.754 1005.79 623.871 1009.53 623.871 1009.53C623.871 1009.53 630.624 1011.1 637.185 1009.76C643.744 1008.42 647.627 1004.68 647.627 1004.68C647.627 1004.68 640.874 1003.11 634.313 1004.45Z" fill="#82CAA7"/>
<path d="M626.082 1014.54C619.523 1015.88 615.64 1019.62 615.64 1019.62C615.64 1019.62 622.393 1021.19 628.955 1019.85C635.513 1018.51 639.397 1014.77 639.397 1014.77C639.397 1014.77 632.643 1013.2 626.082 1014.54Z" fill="#82CAA7"/>
<path d="M618.153 1024.27C611.594 1025.61 607.711 1029.35 607.711 1029.35C607.711 1029.35 614.464 1030.91 621.025 1029.57C627.584 1028.23 631.467 1024.49 631.467 1024.49C631.467 1024.49 624.714 1022.93 618.153 1024.27Z" fill="#82CAA7"/>
<path d="M647.394 978.377L593.278 1045.42L591.776 1044.96L646.791 978.191L647.394 978.377Z" fill="#283820"/>
<path d="M629.946 978.181L637.467 990.088L656.716 986.42" stroke="#283820" stroke-width="0.2772" stroke-miterlimit="10"/>
<path d="M621.747 988.235L629.268 1000.14L648.517 996.474" stroke="#283820" stroke-width="0.2772" stroke-miterlimit="10"/>
<path d="M613.548 998.29L621.066 1010.2L640.315 1006.53" stroke="#283820" stroke-width="0.2772" stroke-miterlimit="10"/>
<path d="M605.349 1008.34L612.867 1020.25L632.116 1016.58" stroke="#283820" stroke-width="0.2772" stroke-miterlimit="10"/>
<path d="M597.149 1018.4L604.668 1030.31L623.917 1026.64" stroke="#283820" stroke-width="0.2772" stroke-miterlimit="10"/>
<path d="M475.071 962.955L473.915 969.073L472.009 958.72C445.947 950.451 429.123 952.589 429.123 952.589C443.463 1013.48 576.78 1034.75 576.78 1034.75C541.148 992.223 506.653 971.497 479.973 961.482C477.956 960.726 475.343 961.513 475.071 962.955Z" fill="#3C5634"/>
<path d="M446.979 961.556L598.637 1047.24" stroke="#9AB892" stroke-width="0.3804" stroke-miterlimit="10"/>
<path d="M455.004 979.279L477.791 979.096" stroke="#9AB892" stroke-width="0.3804" stroke-miterlimit="10"/>
<path d="M480.238 994.205L503.304 993.483" stroke="#9AB892" stroke-width="0.3804" stroke-miterlimit="10"/>
<path d="M511.046 1010.4L531.858 1009.58" stroke="#9AB892" stroke-width="0.3804" stroke-miterlimit="10"/>
<path d="M515.326 988.994L522.422 1004.26" stroke="#9AB892" stroke-width="0.3804" stroke-miterlimit="10"/>
<path d="M484.668 972.713L491.567 986.865" stroke="#9AB892" stroke-width="0.3804" stroke-miterlimit="10"/>
<path d="M459.827 962.225L464.816 971.78" stroke="#9AB892" stroke-width="0.3804" stroke-miterlimit="10"/>
<path d="M587.65 1032.41C587.65 1032.41 601.822 968.309 532.771 945.136C532.771 945.136 524.849 962.978 527.831 976.013L535.938 977.209L529.126 979.03C529.126 979.03 547.945 1015.71 587.65 1032.41Z" fill="#8CB293"/>
<path d="M536.713 950.703L584.856 1031.72" stroke="#344A28" stroke-width="0.5792" stroke-miterlimit="10"/>
<path d="M710.469 1051.02C696.747 1048.52 736.695 1031.03 752.121 1030.42C767.547 1029.82 834.168 1053.27 834.168 1053.27C834.168 1053.27 722.812 1053.27 710.469 1051.02Z" fill="#A68158"/>
<path d="M878.841 1040.19H932.607C932.607 1040.19 908.15 1030.08 899.553 1030.42C890.957 1030.77 878.841 1040.19 878.841 1040.19Z" fill="#BC9F70"/>
<path d="M273.143 1024.24L301.978 1003.61L335.793 996.367L362.973 983.546L411.971 976.022L531.279 980.692L637.428 1045.42C637.428 1045.42 567.787 1052.67 544.774 1053.78C521.761 1054.9 301.976 1041.19 301.976 1041.19L273.143 1024.24Z" fill="#BC9F70"/>
<path d="M301.978 1041.19C301.978 1041.19 521.763 1054.89 544.776 1053.78C564.635 1052.82 619.188 1047.29 633.771 1045.8L512.745 1028.94L438.073 1023.57L412.324 1007.16L395.33 1003.61L360.811 1010.82L303.864 1014.2L301.978 1003.61L273.143 1024.24L301.978 1041.19Z" fill="#A68158"/>
<path d="M396.866 1007.51L368.339 1014.93L375.688 1021.64L421.502 1023.88C421.502 1023.88 411.561 1010.81 396.866 1007.51Z" fill="#BC9F70"/>
<path d="M363.586 1015.7L368.339 1022.8C368.339 1022.8 350.619 1022.35 349.321 1021.64C348.026 1020.93 358.83 1016.45 363.586 1015.7Z" fill="#BC9F70"/>
<path d="M437.679 1049.7C437.679 1049.7 423.094 1046.71 427.787 1044.13C432.479 1041.54 437.679 1046.92 437.679 1046.92C437.679 1046.92 443.203 1038.35 447.225 1040.55C451.247 1042.75 447.225 1047.18 447.225 1047.18C447.225 1047.18 457.443 1043.62 457.281 1047.18C457.115 1050.74 451.249 1053.27 451.249 1053.27L437.679 1049.7Z" fill="#2E4D45"/>
<path d="M364.483 1046.73C364.483 1046.73 373.158 1039.18 369.642 1038.32C366.125 1037.45 364.483 1043.5 364.483 1043.5C364.483 1043.5 365.421 1033.85 361.904 1034.86C358.385 1035.87 364.483 1046.73 364.483 1046.73Z" fill="#2E4D45"/>
<path d="M305.39 1043.07C305.39 1043.07 310.08 1034.71 316.88 1034.79C323.681 1034.86 305.39 1043.07 305.39 1043.07Z" fill="#2E4D45"/>
<path d="M546.212 1055.32C546.212 1055.32 533.785 1048.11 538.239 1047.82C542.693 1047.54 545.274 1051.57 545.274 1051.57C545.274 1051.57 547.619 1046.64 550.667 1046.73C553.716 1046.82 546.212 1055.32 546.212 1055.32Z" fill="#2E4D45"/>
<path d="M489.387 1033.15C489.387 1033.15 502.388 1029.98 510.189 1031.84C517.989 1033.71 532.29 1040.76 532.29 1040.76C532.29 1040.76 496.32 1041.64 489.387 1033.15Z" fill="#BC9F70"/>
<path d="M751.273 1032.58C751.273 1032.58 745.47 1034.41 744.019 1036.02C742.569 1037.63 745.47 1042.68 751.273 1043.28C757.076 1043.87 803.501 1046.73 803.501 1046.73C803.501 1046.73 763.713 1032.12 751.273 1032.58Z" fill="#BC9F70"/>
<path d="M317.468 776.986C317.468 776.986 292.867 775.937 286.791 782.028L302.129 785.939L317.468 776.986Z" fill="#482317"/>
<path d="M293.925 877.894C293.925 877.894 290.238 889.895 290.232 906.294C290.228 915.269 314.159 1038.32 314.159 1038.32H324.941L340.438 923.171L344.704 895.66L293.925 877.894Z" fill="#966945"/>
<path d="M336.807 943.979L340.438 923.171L344.704 895.66L315.081 885.296C312.092 906.696 321.095 927.446 336.807 943.979Z" fill="#86512E"/>
<path d="M350.477 879.455C350.477 879.455 423.196 901.823 431.956 910.719C443.399 922.34 422.072 989.264 422.072 989.264H411.051C411.051 989.264 401.184 947.041 409.408 927.219C404.67 923.853 327.426 925.122 310.699 912.78C293.974 900.437 298.639 881.573 298.639 881.573L350.477 879.455Z" fill="#966945"/>
<path d="M291.751 909.606L291.217 909.57C288.037 909.36 285.66 907.011 285.912 904.327L287.177 890.782L299.23 891.583L297.965 905.128C297.713 907.814 294.932 909.819 291.751 909.606Z" fill="#86512E"/>
<path d="M322.189 914.619L318.368 914.366C314.492 914.108 311.599 911.248 311.904 907.977L313.071 895.494L330.927 896.682L329.76 909.165C329.453 912.434 326.063 914.877 322.189 914.619Z" fill="#86512E"/>
<path d="M362.486 884.469C362.486 884.469 359.747 898.801 350.441 902.585C350.441 902.585 422.631 916.005 422.072 921.004C421.513 926.001 411.889 947.943 415.431 989.264" stroke="#86512E" stroke-width="1.3113" stroke-miterlimit="10"/>
<path d="M326.56 921.004L320.34 1038.32" stroke="#86512E" stroke-width="1.3113" stroke-miterlimit="10"/>
<path d="M308.175 777.701C302.245 778.901 290.983 788.751 289.462 799.167C285.871 823.773 282.755 842.92 283.798 862.418C283.928 864.851 288.871 870.449 289.003 872.492C289.489 880.045 287.557 884.469 287.557 884.469C287.557 884.469 322.473 903.281 363.527 882.637C363.527 882.637 366.123 878.036 365.824 871.211C365.748 869.454 369.613 866.496 369.524 864.484C368.835 848.851 363.898 837.25 363.418 827.683C360.711 773.845 317.658 775.78 308.175 777.701Z" fill="#8B3E21"/>
<path d="M329.863 758.795L336.098 781.653C336.098 783.653 321.833 776.12 313.705 778.152C313.705 778.152 318.095 770.538 320.924 756.266L329.863 758.795Z" fill="#EBAD83"/>
<path d="M332.459 768.314C330.3 767.009 326.876 767.999 326.876 769.233C327.785 774.461 331.156 778.206 335.433 779.218L332.459 768.314Z" fill="#E7956B"/>
<path d="M344.184 750.557C344.184 750.557 345.978 773.773 342.902 775.179C339.435 776.761 327.9 776.954 326.08 766.931C323.951 755.192 318.334 748.361 323.576 748.146C328.817 747.932 343.877 745.081 344.184 750.557Z" fill="#EBAD83"/>
<path d="M355.648 746.053C355.047 751.458 348.632 758.617 336.941 752.709C323.341 745.835 315.273 770.682 310.204 764.949C304.049 757.989 304.841 742.196 317.999 738.074C323.941 736.212 329.718 739.872 332.935 739.82C341.513 739.681 343.614 736 346.609 736C354.929 735.995 355.96 743.252 355.648 746.053Z" fill="#6B3E2D"/>
<path d="M341.325 759.879C341.142 760.683 341.37 761.396 341.835 761.472C342.3 761.547 342.825 760.957 343.008 760.152C343.192 759.348 342.964 758.635 342.499 758.559C342.033 758.484 341.509 759.074 341.325 759.879Z" fill="#6B3E2D"/>
<path d="M343.043 756.425C342.115 756.581 341.489 756.547 340.869 756.504C340.239 756.443 339.747 756.36 338.808 756.196C339.164 755.424 340.192 755.132 341.029 755.21C341.873 755.309 342.678 755.67 343.043 756.425Z" fill="#6B3E2D"/>
<path d="M336.194 747.216C336.194 747.216 326.554 751.948 328.071 758.54C328.886 762.087 327.476 772.04 317.154 769.289C301.031 764.993 312.986 747.651 312.986 747.651C312.986 747.651 327.19 740.874 336.194 746.301" fill="#6B3E2D"/>
<path d="M344.493 759.45L346.784 765.317C347.008 766.121 346.379 766.956 345.406 767.048C345.095 767.077 344.792 767.084 344.493 767.064C343.8 767.016 343.284 766.499 343.363 765.914L344.493 759.45Z" fill="#E0641D"/>
<path d="M458.262 1008.74C458.262 1010.02 446.838 1011.05 432.747 1011.05C418.656 1011.05 407.232 1010.02 407.232 1008.74C407.232 1007.46 418.656 1006.42 432.747 1006.42C446.838 1006.42 458.262 1007.46 458.262 1008.74Z" fill="#A68158"/>
<path d="M376.073 1051.45C376.073 1054.38 357.278 1056.75 334.093 1056.75C310.908 1056.75 292.113 1054.38 292.113 1051.45C292.113 1048.52 310.908 1046.15 334.093 1046.15C357.278 1046.15 376.073 1048.53 376.073 1051.45Z" fill="#223831"/>
<path d="M347.832 1049.39C347.832 1049.39 345.474 1043.42 342.725 1041.76C341.745 1041.17 337.69 1040.94 332.871 1040.89C329.543 1040.85 326.895 1038.52 327.03 1035.72L327.979 1015.77H309.809L312.901 1041.28V1049.39H347.832Z" fill="#E9A329"/>
<path d="M328.984 1019.15H309.908C308.941 1019.15 308.158 1018.49 308.158 1017.67V1014.39C308.158 1013.57 308.941 1012.91 309.908 1012.91H328.984C329.95 1012.91 330.733 1013.57 330.733 1014.39V1017.67C330.731 1018.49 329.948 1019.15 328.984 1019.15Z" fill="#F8E565"/>
<path d="M349.206 1048.06H311.68V1051.54H349.206V1048.06Z" fill="#F8E565"/>
<path d="M338.727 1048.51V1040.88C338.727 1040.88 341.886 1040.95 343.516 1041.63C345.146 1042.32 347.832 1048.51 347.832 1048.51H338.727Z" fill="#DC6920"/>
<path d="M324.662 1022.28H328.82" stroke="#F8E565" stroke-width="0.6557" stroke-miterlimit="10"/>
<path d="M324.662 1025.42H328.82" stroke="#F8E565" stroke-width="0.6557" stroke-miterlimit="10"/>
<path d="M324.662 1028.56H328.82" stroke="#F8E565" stroke-width="0.6557" stroke-miterlimit="10"/>
<path d="M324.662 1031.69H328.82" stroke="#F8E565" stroke-width="0.6557" stroke-miterlimit="10"/>
<path d="M324.662 1034.83H328.82" stroke="#F8E565" stroke-width="0.6557" stroke-miterlimit="10"/>
<path d="M445.255 1006.42C445.255 1006.42 442.897 1000.46 440.145 998.798C439.166 998.208 435.111 997.977 430.292 997.923C426.964 997.887 424.316 995.558 424.451 992.754L425.4 972.803H407.23L410.321 998.316V1006.42H445.255Z" fill="#E9A329"/>
<path d="M426.407 976.187H407.331C406.364 976.187 405.581 975.526 405.581 974.711V971.424C405.581 970.608 406.364 969.948 407.331 969.948H426.407C427.373 969.948 428.156 970.608 428.156 971.424V974.711C428.154 975.526 427.371 976.187 426.407 976.187Z" fill="#F8E565"/>
<path d="M446.631 1005.1H409.103V1008.58H446.631V1005.1Z" fill="#F8E565"/>
<path d="M436.15 1005.55V997.913C436.15 997.913 439.309 997.983 440.939 998.67C442.569 999.358 445.255 1005.55 445.255 1005.55H436.15Z" fill="#DC6920"/>
<path d="M422.085 979.322H426.243" stroke="#F8E565" stroke-width="0.6557" stroke-miterlimit="10"/>
<path d="M422.085 982.458H426.243" stroke="#F8E565" stroke-width="0.6557" stroke-miterlimit="10"/>
<path d="M422.085 985.595H426.243" stroke="#F8E565" stroke-width="0.6557" stroke-miterlimit="10"/>
<path d="M422.085 988.731H426.243" stroke="#F8E565" stroke-width="0.6557" stroke-miterlimit="10"/>
<path d="M422.085 991.866H426.243" stroke="#F8E565" stroke-width="0.6557" stroke-miterlimit="10"/>
<path d="M313.541 789.883C313.541 789.883 328.109 776.786 342.168 782.39C359.04 789.116 364.813 821.223 361.479 831.236C358.144 841.25 316.952 860.798 316.952 860.798L317.157 855.048C317.157 855.048 352.655 835.079 355.697 827.249C358.74 819.419 350.262 794.374 347.303 792.054C340.926 787.053 331.668 783.502 316.657 798.073L313.541 789.883Z" fill="#482317"/>
<path d="M354.727 799.841C362.008 815.706 361.174 842.475 365.455 857.304L410.078 892.791C409.592 895.093 405.536 898.018 399.258 898.018C399.258 898.018 346.132 870.638 340.549 863.24C334.966 855.842 309.575 805.079 329.929 792.473C330.044 792.401 330.161 792.331 330.277 792.261C339.245 786.87 350.752 791.177 354.727 799.841Z" fill="#E0641D"/>
<path d="M409.718 893.696C409.718 893.696 416.873 896.465 417.85 896.976C420.003 898.099 426.057 905.585 426.458 907.099C426.859 908.613 423.928 907.4 420.858 907.099C419.373 906.953 411.736 905.978 410.708 904.892C409.679 903.807 402.078 899.089 402.078 899.089L409.718 893.696Z" fill="#EBAD83"/>
<path d="M394.33 894.243C398.277 892.935 401.681 891.227 403.064 888.019C403.422 887.189 404.628 886.903 405.372 887.524L410.289 891.614C410.667 891.929 410.804 892.386 410.639 892.814C409.903 894.744 407.237 899.942 399.798 900.201C399.431 900.214 399.057 900.095 398.784 899.888L393.914 896.207C393.146 895.626 393.368 894.562 394.33 894.243Z" fill="#86512E"/>
<path d="M315.616 793.575C314.71 790.362 312.02 787.772 308.433 786.602C302.016 784.506 285.534 781.032 280.768 781.878C272.651 783.318 258.797 789.649 254.445 811.208C254.191 812.468 252.751 816.491 252.553 817.85L254.445 820.438C254.507 839.675 255.241 860.119 254.88 865.548C254.682 868.53 256.743 871.254 259.981 872.314C271.527 876.089 297.75 883.758 308.583 879.458C321.059 874.505 321.178 813.274 315.616 793.575Z" fill="#2A4A31"/>
<path d="M314.328 794.383C313.771 791.885 311.328 789.831 308.318 789.707C307.727 789.681 307.113 789.732 306.494 789.883C302.78 790.797 296.062 806.569 294.603 816.672C293.142 826.776 287.03 873.596 290.232 875.075C293.436 876.553 306.388 877.322 310.083 875.075C313.675 872.888 321.274 825.543 314.328 794.383Z" fill="#192C1D"/>
<path d="M252.555 817.846C252.555 817.846 291.392 824.22 296.224 824.803L295.192 827.251L254.447 820.434L252.555 817.846Z" fill="#192C1D"/>
<path d="M267.505 828.365L264.476 828.005C262.998 827.829 261.967 826.675 262.176 825.426L263.823 815.574C264.032 814.327 265.4 813.458 266.88 813.634L269.91 813.994C271.388 814.17 272.418 815.324 272.209 816.572L270.562 826.423C270.353 827.674 268.986 828.542 267.505 828.365Z" fill="#E0641D"/>
<path d="M307.584 872.445C303.147 873.38 298.887 873.216 294.853 871.67C293.334 871.088 292.399 869.76 292.5 868.356L293.995 847.618C294.132 845.726 296.079 844.299 298.317 844.446L308.862 845.148C311.072 845.296 312.724 846.927 312.549 848.792L310.622 869.409C310.488 870.86 309.261 872.093 307.584 872.445Z" fill="#579485"/>
<path d="M283.013 847.4L255.759 842.632C254.008 842.326 252.308 843.33 252.064 844.826C251.245 849.866 249.929 860.286 252.555 862.842C254.452 864.689 281.948 872.085 283.595 870.768C286.172 868.705 285.743 855.056 285.479 849.836C285.417 848.639 284.404 847.643 283.013 847.4Z" fill="#6CAC96"/>
<path d="M292.344 849.902L313.541 851.261" stroke="#192C1D" stroke-width="1.3113" stroke-miterlimit="10"/>
<path d="M283.595 783.561C283.595 783.561 286.872 773.199 294.748 775.058C302.612 776.916 299.964 787.811 299.964 787.811" stroke="#E0641D" stroke-width="1.2324" stroke-miterlimit="10" stroke-linecap="round"/>
<path d="M311.173 839.934C305.724 840.958 300.941 840.566 296.621 839.189C295.825 838.935 295.337 838.249 295.39 837.533L297.035 815.065C297.101 814.147 298.038 813.45 299.126 813.506L312.495 814.203C313.583 814.26 314.409 815.049 314.343 815.967L312.702 838.4C312.645 839.133 312.022 839.774 311.173 839.934Z" fill="#82C6A6"/>
<path d="M312.092 815.517C312.062 815.933 309.195 816.118 305.688 815.933C302.181 815.745 299.365 815.259 299.395 814.844C299.427 814.428 302.294 814.242 305.799 814.428C309.306 814.615 312.124 815.103 312.092 815.517Z" fill="#2A4A31"/>
</g>
<defs>
<linearGradient id="paint0_linear_1_4" x1="1070.7" y1="793.826" x2="1615.09" y2="793.826" gradientUnits="userSpaceOnUse">
<stop stop-color="#F7E465"/>
<stop offset="1" stop-color="#E9A65F"/>
</linearGradient>
<linearGradient id="paint1_linear_1_4" x1="903.11" y1="819.192" x2="903.11" y2="1047.08" gradientUnits="userSpaceOnUse">
<stop stop-color="#497C74"/>
<stop offset="1" stop-color="#65AE77"/>
</linearGradient>
<linearGradient id="paint2_linear_1_4" x1="179.631" y1="735.634" x2="179.631" y2="653.061" gradientUnits="userSpaceOnUse">
<stop stop-color="#497C74"/>
<stop offset="1" stop-color="#65AE77"/>
</linearGradient>
<linearGradient id="paint3_linear_1_4" x1="251.222" y1="718.018" x2="251.222" y2="664.214" gradientUnits="userSpaceOnUse">
<stop stop-color="#497C74"/>
<stop offset="1" stop-color="#65AE77"/>
</linearGradient>
<linearGradient id="paint4_linear_1_4" x1="335.792" y1="718.018" x2="335.792" y2="664.214" gradientUnits="userSpaceOnUse">
<stop stop-color="#497C74"/>
<stop offset="1" stop-color="#65AE77"/>
</linearGradient>
<linearGradient id="paint5_linear_1_4" x1="64.3053" y1="762.536" x2="64.3053" y2="708.732" gradientUnits="userSpaceOnUse">
<stop stop-color="#497C74"/>
<stop offset="1" stop-color="#65AE77"/>
</linearGradient>
<linearGradient id="paint6_linear_1_4" x1="432.623" y1="735.634" x2="432.623" y2="681.831" gradientUnits="userSpaceOnUse">
<stop stop-color="#497C74"/>
<stop offset="1" stop-color="#65AE77"/>
</linearGradient>
<linearGradient id="paint7_linear_1_4" x1="531.28" y1="715.937" x2="531.28" y2="662.134" gradientUnits="userSpaceOnUse">
<stop stop-color="#497C74"/>
<stop offset="1" stop-color="#65AE77"/>
</linearGradient>
<linearGradient id="paint8_linear_1_4" x1="1290.32" y1="762.536" x2="1290.32" y2="708.732" gradientUnits="userSpaceOnUse">
<stop stop-color="#497C74"/>
<stop offset="1" stop-color="#65AE77"/>
</linearGradient>
<linearGradient id="paint9_linear_1_4" x1="1416.94" y1="796.589" x2="1416.94" y2="742.785" gradientUnits="userSpaceOnUse">
<stop stop-color="#497C74"/>
<stop offset="1" stop-color="#65AE77"/>
</linearGradient>
<linearGradient id="paint10_linear_1_4" x1="1688.24" y1="769.531" x2="1688.24" y2="700.637" gradientUnits="userSpaceOnUse">
<stop stop-color="#497C74"/>
<stop offset="1" stop-color="#65AE77"/>
</linearGradient>
<linearGradient id="paint11_linear_1_4" x1="1426.12" y1="747.533" x2="1426.12" y2="678.639" gradientUnits="userSpaceOnUse">
<stop stop-color="#497C74"/>
<stop offset="1" stop-color="#65AE77"/>
</linearGradient>
<linearGradient id="paint12_linear_1_4" x1="558.006" y1="713.086" x2="558.006" y2="669.146" gradientUnits="userSpaceOnUse">
<stop stop-color="#497C74"/>
<stop offset="1" stop-color="#65AE77"/>
</linearGradient>
<linearGradient id="paint13_linear_1_4" x1="637.43" y1="764.6" x2="637.43" y2="720.659" gradientUnits="userSpaceOnUse">
<stop stop-color="#497C74"/>
<stop offset="1" stop-color="#65AE77"/>
</linearGradient>
<linearGradient id="paint14_linear_1_4" x1="610.703" y1="722.1" x2="610.703" y2="678.16" gradientUnits="userSpaceOnUse">
<stop stop-color="#497C74"/>
<stop offset="1" stop-color="#65AE77"/>
</linearGradient>
<linearGradient id="paint15_linear_1_4" x1="970.478" y1="776.683" x2="970.478" y2="742.629" gradientUnits="userSpaceOnUse">
<stop stop-color="#497C74"/>
<stop offset="1" stop-color="#65AE77"/>
</linearGradient>
<linearGradient id="paint16_linear_1_4" x1="761.644" y1="802.626" x2="761.644" y2="750.739" gradientUnits="userSpaceOnUse">
<stop stop-color="#497C74"/>
<stop offset="1" stop-color="#65AE77"/>
</linearGradient>
<linearGradient id="paint17_linear_1_4" x1="349.216" y1="756.057" x2="349.216" y2="704.169" gradientUnits="userSpaceOnUse">
<stop stop-color="#497C74"/>
<stop offset="1" stop-color="#65AE77"/>
</linearGradient>
<linearGradient id="paint18_linear_1_4" x1="1584.44" y1="747.139" x2="1584.44" y2="713.086" gradientUnits="userSpaceOnUse">
<stop stop-color="#497C74"/>
<stop offset="1" stop-color="#65AE77"/>
</linearGradient>
<linearGradient id="paint19_linear_1_4" x1="1257.59" y1="769.687" x2="1257.59" y2="735.634" gradientUnits="userSpaceOnUse">
<stop stop-color="#497C74"/>
<stop offset="1" stop-color="#65AE77"/>
</linearGradient>
<linearGradient id="paint20_linear_1_4" x1="1506.7" y1="747.139" x2="1506.7" y2="713.086" gradientUnits="userSpaceOnUse">
<stop stop-color="#497C74"/>
<stop offset="1" stop-color="#65AE77"/>
</linearGradient>
<linearGradient id="paint21_linear_1_4" x1="1458.74" y1="806.06" x2="1458.74" y2="772.007" gradientUnits="userSpaceOnUse">
<stop stop-color="#497C74"/>
<stop offset="1" stop-color="#65AE77"/>
</linearGradient>
<linearGradient id="paint22_linear_1_4" x1="1241.69" y1="806.06" x2="1241.69" y2="772.007" gradientUnits="userSpaceOnUse">
<stop stop-color="#497C74"/>
<stop offset="1" stop-color="#65AE77"/>
</linearGradient>
<linearGradient id="paint23_linear_1_4" x1="899.554" y1="823.087" x2="899.554" y2="789.034" gradientUnits="userSpaceOnUse">
<stop stop-color="#497C74"/>
<stop offset="1" stop-color="#65AE77"/>
</linearGradient>
<linearGradient id="paint24_linear_1_4" x1="830.379" y1="777.302" x2="830.379" y2="743.249" gradientUnits="userSpaceOnUse">
<stop stop-color="#497C74"/>
<stop offset="1" stop-color="#65AE77"/>
</linearGradient>
<linearGradient id="paint25_linear_1_4" x1="847.665" y1="760.276" x2="847.665" y2="738.087" gradientUnits="userSpaceOnUse">
<stop stop-color="#497C74"/>
<stop offset="1" stop-color="#65AE77"/>
</linearGradient>
<linearGradient id="paint26_linear_1_4" x1="1176.68" y1="771.37" x2="1176.68" y2="749.181" gradientUnits="userSpaceOnUse">
<stop stop-color="#497C74"/>
<stop offset="1" stop-color="#65AE77"/>
</linearGradient>
<linearGradient id="paint27_linear_1_4" x1="1670.95" y1="771.37" x2="1670.95" y2="749.181" gradientUnits="userSpaceOnUse">
<stop stop-color="#497C74"/>
<stop offset="1" stop-color="#65AE77"/>
</linearGradient>
<linearGradient id="paint28_linear_1_4" x1="1605.15" y1="824.815" x2="1605.15" y2="802.626" gradientUnits="userSpaceOnUse">
<stop stop-color="#497C74"/>
<stop offset="1" stop-color="#65AE77"/>
</linearGradient>
<linearGradient id="paint29_linear_1_4" x1="1323.04" y1="805.197" x2="1323.04" y2="783.009" gradientUnits="userSpaceOnUse">
<stop stop-color="#497C74"/>
<stop offset="1" stop-color="#65AE77"/>
</linearGradient>
<linearGradient id="paint30_linear_1_4" x1="1208.46" y1="803.234" x2="1208.46" y2="782.615" gradientUnits="userSpaceOnUse">
<stop stop-color="#497C74"/>
<stop offset="1" stop-color="#65AE77"/>
</linearGradient>
<linearGradient id="paint31_linear_1_4" x1="689.925" y1="735.275" x2="689.925" y2="713.086" gradientUnits="userSpaceOnUse">
<stop stop-color="#497C74"/>
<stop offset="1" stop-color="#65AE77"/>
</linearGradient>
<linearGradient id="paint32_linear_1_4" x1="661.582" y1="746.178" x2="661.582" y2="723.99" gradientUnits="userSpaceOnUse">
<stop stop-color="#497C74"/>
<stop offset="1" stop-color="#65AE77"/>
</linearGradient>
<linearGradient id="paint33_linear_1_4" x1="510.837" y1="781.74" x2="510.837" y2="759.551" gradientUnits="userSpaceOnUse">
<stop stop-color="#497C74"/>
<stop offset="1" stop-color="#65AE77"/>
</linearGradient>
<linearGradient id="paint34_linear_1_4" x1="406.916" y1="741.207" x2="406.916" y2="719.019" gradientUnits="userSpaceOnUse">
<stop stop-color="#497C74"/>
<stop offset="1" stop-color="#65AE77"/>
</linearGradient>
<linearGradient id="paint35_linear_1_4" x1="188.398" y1="736.303" x2="188.398" y2="714.115" gradientUnits="userSpaceOnUse">
<stop stop-color="#497C74"/>
<stop offset="1" stop-color="#65AE77"/>
</linearGradient>
<linearGradient id="paint36_linear_1_4" x1="481.951" y1="700.13" x2="481.951" y2="677.941" gradientUnits="userSpaceOnUse">
<stop stop-color="#497C74"/>
<stop offset="1" stop-color="#65AE77"/>
</linearGradient>
<linearGradient id="paint37_linear_1_4" x1="531.28" y1="724.181" x2="531.28" y2="701.992" gradientUnits="userSpaceOnUse">
<stop stop-color="#497C74"/>
<stop offset="1" stop-color="#65AE77"/>
</linearGradient>
<linearGradient id="paint38_linear_1_4" x1="1786.61" y1="793.709" x2="1786.61" y2="759.656" gradientUnits="userSpaceOnUse">
<stop stop-color="#497C74"/>
<stop offset="1" stop-color="#65AE77"/>
</linearGradient>
<linearGradient id="paint39_linear_1_4" x1="1646.33" y1="811.13" x2="1646.33" y2="777.077" gradientUnits="userSpaceOnUse">
<stop stop-color="#497C74"/>
<stop offset="1" stop-color="#65AE77"/>
</linearGradient>
<linearGradient id="paint40_linear_1_4" x1="357.012" y1="700.13" x2="357.012" y2="677.941" gradientUnits="userSpaceOnUse">
<stop stop-color="#497C74"/>
<stop offset="1" stop-color="#65AE77"/>
</linearGradient>
<linearGradient id="paint41_linear_1_4" x1="303.067" y1="724.181" x2="303.067" y2="701.992" gradientUnits="userSpaceOnUse">
<stop stop-color="#497C74"/>
<stop offset="1" stop-color="#65AE77"/>
</linearGradient>
<linearGradient id="paint42_linear_1_4" x1="1534.1" y1="794.103" x2="1534.1" y2="725.209" gradientUnits="userSpaceOnUse">
<stop stop-color="#497C74"/>
<stop offset="1" stop-color="#65AE77"/>
</linearGradient>
<linearGradient id="paint43_linear_1_4" x1="925.665" y1="1032.42" x2="925.665" y2="818.129" gradientUnits="userSpaceOnUse">
<stop stop-color="#497C74"/>
<stop offset="1" stop-color="#65AE77"/>
</linearGradient>
<linearGradient id="paint44_linear_1_4" x1="959.2" y1="1073.64" x2="959.2" y2="936.283" gradientUnits="userSpaceOnUse">
<stop stop-color="#45786F"/>
<stop offset="1" stop-color="#61AA6C"/>
</linearGradient>
<linearGradient id="paint45_linear_1_4" x1="915.835" y1="1137.3" x2="921.09" y2="1016.1" gradientUnits="userSpaceOnUse">
<stop stop-color="#223B41"/>
<stop offset="1" stop-color="#41725D"/>
</linearGradient>
<clipPath id="clip0_1_4">
<rect width="1920" height="1080" fill="white"/>
</clipPath>
</defs>
</svg>
