<svg width="193" height="43" viewBox="0 0 193 43" fill="none" xmlns="http://www.w3.org/2000/svg">
<g filter="url(#filter0_d_1_3)">
<path d="M4.04 34V0.399998H18.2C21.784 0.399998 24.936 1.104 27.656 2.512C30.408 3.92 32.536 5.888 34.04 8.416C35.576 10.944 36.344 13.872 36.344 17.2C36.344 20.528 35.576 23.456 34.04 25.984C32.536 28.512 30.408 30.48 27.656 31.888C24.936 33.296 21.784 34 18.2 34H4.04ZM8.84 29.824H17.912C20.696 29.824 23.096 29.296 25.112 28.24C27.16 27.184 28.744 25.712 29.864 23.824C30.984 21.904 31.544 19.696 31.544 17.2C31.544 14.672 30.984 12.464 29.864 10.576C28.744 8.688 27.16 7.216 25.112 6.16C23.096 5.104 20.696 4.576 17.912 4.576H8.84V29.824ZM53.9203 34.288C51.3603 34.288 49.0883 33.728 47.1043 32.608C45.1203 31.488 43.5523 29.952 42.4003 28C41.2483 26.016 40.6723 23.776 40.6723 21.28C40.6723 18.752 41.2483 16.512 42.4003 14.56C43.5523 12.608 45.1203 11.088 47.1043 10C49.0883 8.88 51.3603 8.32 53.9203 8.32C56.4483 8.32 58.7043 8.88 60.6883 10C62.7043 11.088 64.2723 12.608 65.3923 14.56C66.5443 16.48 67.1203 18.72 67.1203 21.28C67.1203 23.808 66.5443 26.048 65.3923 28C64.2723 29.952 62.7043 31.488 60.6883 32.608C58.7043 33.728 56.4483 34.288 53.9203 34.288ZM53.9203 30.256C55.5523 30.256 57.0083 29.888 58.2883 29.152C59.6003 28.416 60.6243 27.376 61.3603 26.032C62.0963 24.656 62.4643 23.072 62.4643 21.28C62.4643 19.456 62.0963 17.888 61.3603 16.576C60.6243 15.232 59.6003 14.192 58.2883 13.456C57.0083 12.72 55.5523 12.352 53.9203 12.352C52.2883 12.352 50.8323 12.72 49.5523 13.456C48.2723 14.192 47.2483 15.232 46.4803 16.576C45.7123 17.888 45.3283 19.456 45.3283 21.28C45.3283 23.072 45.7123 24.656 46.4803 26.032C47.2483 27.376 48.2723 28.416 49.5523 29.152C50.8323 29.888 52.2883 30.256 53.9203 30.256ZM93.7276 34V4.576H82.2076V0.399998H110V4.576H98.4796V34H93.7276ZM122.827 34.288C120.267 34.288 117.995 33.728 116.011 32.608C114.027 31.488 112.459 29.952 111.307 28C110.155 26.016 109.579 23.776 109.579 21.28C109.579 18.752 110.155 16.512 111.307 14.56C112.459 12.608 114.027 11.088 116.011 10C117.995 8.88 120.267 8.32 122.827 8.32C125.355 8.32 127.611 8.88 129.595 10C131.611 11.088 133.179 12.608 134.299 14.56C135.451 16.48 136.027 18.72 136.027 21.28C136.027 23.808 135.451 26.048 134.299 28C133.179 29.952 131.611 31.488 129.595 32.608C127.611 33.728 125.355 34.288 122.827 34.288ZM122.827 30.256C124.459 30.256 125.915 29.888 127.195 29.152C128.507 28.416 129.531 27.376 130.267 26.032C131.003 24.656 131.371 23.072 131.371 21.28C131.371 19.456 131.003 17.888 130.267 16.576C129.531 15.232 128.507 14.192 127.195 13.456C125.915 12.72 124.459 12.352 122.827 12.352C121.195 12.352 119.739 12.72 118.459 13.456C117.179 14.192 116.155 15.232 115.387 16.576C114.619 17.888 114.235 19.456 114.235 21.28C114.235 23.072 114.619 24.656 115.387 26.032C116.155 27.376 117.179 28.416 118.459 29.152C119.739 29.888 121.195 30.256 122.827 30.256ZM153.103 34.288C150.927 34.288 149.007 33.888 147.343 33.088C145.711 32.288 144.431 31.072 143.503 29.44C142.607 27.776 142.159 25.696 142.159 23.2V8.56H146.767V22.672C146.767 25.168 147.359 27.04 148.543 28.288C149.759 29.536 151.455 30.16 153.631 30.16C155.231 30.16 156.623 29.84 157.807 29.2C158.991 28.528 159.903 27.568 160.543 26.32C161.183 25.04 161.503 23.504 161.503 21.712V8.56H166.111V34H161.743V27.136L162.463 28.96C161.631 30.656 160.383 31.968 158.719 32.896C157.055 33.824 155.183 34.288 153.103 34.288ZM174.884 34V8.56H179.3V15.472L178.868 13.744C179.572 11.984 180.756 10.64 182.42 9.712C184.084 8.784 186.132 8.32 188.564 8.32V12.784C188.372 12.752 188.18 12.736 187.988 12.736C187.828 12.736 187.668 12.736 187.508 12.736C185.044 12.736 183.092 13.472 181.652 14.944C180.212 16.416 179.492 18.544 179.492 21.328V34H174.884Z" fill="white"/>
</g>
<defs>
<filter id="filter0_d_1_3" x="0.0399933" y="0.399994" width="192.524" height="41.888" filterUnits="userSpaceOnUse" color-interpolation-filters="sRGB">
<feFlood flood-opacity="0" result="BackgroundImageFix"/>
<feColorMatrix in="SourceAlpha" type="matrix" values="0 0 0 0 0 0 0 0 0 0 0 0 0 0 0 0 0 0 127 0" result="hardAlpha"/>
<feOffset dy="4"/>
<feGaussianBlur stdDeviation="2"/>
<feComposite in2="hardAlpha" operator="out"/>
<feColorMatrix type="matrix" values="0 0 0 0 0 0 0 0 0 0 0 0 0 0 0 0 0 0 0.25 0"/>
<feBlend mode="normal" in2="BackgroundImageFix" result="effect1_dropShadow_1_3"/>
<feBlend mode="normal" in="SourceGraphic" in2="effect1_dropShadow_1_3" result="shape"/>
</filter>
</defs>
</svg>
