<svg width="130" height="32" viewBox="0 0 130 32" fill="none" xmlns="http://www.w3.org/2000/svg">
<g filter="url(#filter0_d_1_4)">
<path d="M4.648 23V0.599998H13.768C16.1573 0.599998 18.248 1.08 20.04 2.04C21.8533 2.97867 23.2613 4.29067 24.264 5.976C25.2667 7.66133 25.768 9.60267 25.768 11.8C25.768 13.9973 25.2667 15.9387 24.264 17.624C23.2613 19.3093 21.8533 20.632 20.04 21.592C18.248 22.5307 16.1573 23 13.768 23H4.648ZM7.016 20.952H13.64C15.624 20.952 17.3413 20.568 18.792 19.8C20.264 19.0107 21.4053 17.9333 22.216 16.568C23.0267 15.1813 23.432 13.592 23.432 11.8C23.432 9.98667 23.0267 8.39733 22.216 7.032C21.4053 5.66667 20.264 4.6 18.792 3.832C17.3413 3.04267 15.624 2.648 13.64 2.648H7.016V20.952ZM37.4535 23.16C35.8322 23.16 34.3708 22.7973 33.0695 22.072C31.7895 21.3253 30.7762 20.312 30.0295 19.032C29.2828 17.7307 28.9095 16.248 28.9095 14.584C28.9095 12.8987 29.2828 11.416 30.0295 10.136C30.7762 8.856 31.7895 7.85333 33.0695 7.128C34.3495 6.40267 35.8108 6.04 37.4535 6.04C39.1175 6.04 40.5895 6.40267 41.8695 7.128C43.1708 7.85333 44.1842 8.856 44.9095 10.136C45.6562 11.416 46.0295 12.8987 46.0295 14.584C46.0295 16.248 45.6562 17.7307 44.9095 19.032C44.1842 20.312 43.1708 21.3253 41.8695 22.072C40.5682 22.7973 39.0962 23.16 37.4535 23.16ZM37.4535 21.144C38.6695 21.144 39.7468 20.8773 40.6855 20.344C41.6242 19.7893 42.3602 19.0213 42.8935 18.04C43.4482 17.0373 43.7255 15.8853 43.7255 14.584C43.7255 13.2613 43.4482 12.1093 42.8935 11.128C42.3602 10.1467 41.6242 9.38933 40.6855 8.856C39.7468 8.30133 38.6802 8.024 37.4855 8.024C36.2908 8.024 35.2242 8.30133 34.2855 8.856C33.3468 9.38933 32.6002 10.1467 32.0455 11.128C31.4908 12.1093 31.2135 13.2613 31.2135 14.584C31.2135 15.8853 31.4908 17.0373 32.0455 18.04C32.6002 19.0213 33.3468 19.7893 34.2855 20.344C35.2242 20.8773 36.2802 21.144 37.4535 21.144Z" fill="#EBD000"/>
<path d="M63.875 23V2.648H56.003V0.599998H74.115V2.648H66.243V23H63.875ZM82.516 23.16C80.8947 23.16 79.4333 22.7973 78.132 22.072C76.852 21.3253 75.8387 20.312 75.092 19.032C74.3453 17.7307 73.972 16.248 73.972 14.584C73.972 12.8987 74.3453 11.416 75.092 10.136C75.8387 8.856 76.852 7.85333 78.132 7.128C79.412 6.40267 80.8733 6.04 82.516 6.04C84.18 6.04 85.652 6.40267 86.932 7.128C88.2333 7.85333 89.2467 8.856 89.972 10.136C90.7187 11.416 91.092 12.8987 91.092 14.584C91.092 16.248 90.7187 17.7307 89.972 19.032C89.2467 20.312 88.2333 21.3253 86.932 22.072C85.6307 22.7973 84.1587 23.16 82.516 23.16ZM82.516 21.144C83.732 21.144 84.8093 20.8773 85.748 20.344C86.6867 19.7893 87.4227 19.0213 87.956 18.04C88.5107 17.0373 88.788 15.8853 88.788 14.584C88.788 13.2613 88.5107 12.1093 87.956 11.128C87.4227 10.1467 86.6867 9.38933 85.748 8.856C84.8093 8.30133 83.7427 8.024 82.548 8.024C81.3533 8.024 80.2867 8.30133 79.348 8.856C78.4093 9.38933 77.6627 10.1467 77.108 11.128C76.5533 12.1093 76.276 13.2613 76.276 14.584C76.276 15.8853 76.5533 17.0373 77.108 18.04C77.6627 19.0213 78.4093 19.7893 79.348 20.344C80.2867 20.8773 81.3427 21.144 82.516 21.144ZM102.675 23.16C101.245 23.16 99.9972 22.8933 98.9305 22.36C97.8638 21.8267 97.0318 21.0267 96.4345 19.96C95.8585 18.8933 95.5705 17.56 95.5705 15.96V6.2H97.8425V15.704C97.8425 17.496 98.2798 18.8507 99.1545 19.768C100.051 20.664 101.299 21.112 102.899 21.112C104.072 21.112 105.085 20.8773 105.939 20.408C106.813 19.9173 107.475 19.2133 107.923 18.296C108.392 17.3787 108.627 16.28 108.627 15V6.2H110.899V23H108.722V18.392L109.075 19.224C108.541 20.4613 107.709 21.432 106.579 22.136C105.469 22.8187 104.168 23.16 102.675 23.16ZM117.231 23V6.2H119.407V10.776L119.183 9.976C119.652 8.696 120.441 7.72533 121.551 7.064C122.66 6.38133 124.036 6.04 125.679 6.04V8.248C125.593 8.248 125.508 8.248 125.423 8.248C125.337 8.22667 125.252 8.216 125.167 8.216C123.396 8.216 122.009 8.76 121.007 9.848C120.004 10.9147 119.503 12.44 119.503 14.424V23H117.231Z" fill="#FFF2E7"/>
</g>
<defs>
<filter id="filter0_d_1_4" x="0.648" y="0.599998" width="129.03" height="30.56" filterUnits="userSpaceOnUse" color-interpolation-filters="sRGB">
<feFlood flood-opacity="0" result="BackgroundImageFix"/>
<feColorMatrix in="SourceAlpha" type="matrix" values="0 0 0 0 0 0 0 0 0 0 0 0 0 0 0 0 0 0 127 0" result="hardAlpha"/>
<feOffset dy="4"/>
<feGaussianBlur stdDeviation="2"/>
<feComposite in2="hardAlpha" operator="out"/>
<feColorMatrix type="matrix" values="0 0 0 0 0 0 0 0 0 0 0 0 0 0 0 0 0 0 0.25 0"/>
<feBlend mode="normal" in2="BackgroundImageFix" result="effect1_dropShadow_1_4"/>
<feBlend mode="normal" in="SourceGraphic" in2="effect1_dropShadow_1_4" result="shape"/>
</filter>
</defs>
</svg>
