<svg width="137" height="38" viewBox="0 0 137 38" fill="none" xmlns="http://www.w3.org/2000/svg">
<g filter="url(#filter0_d_1_3)">
<path d="M26.6328 14.9961C26.6328 16.2852 26.4635 17.5286 26.125 18.7266C25.7995 19.9115 25.3307 21.0247 24.7188 22.0664C24.1068 23.0951 23.3776 24.0391 22.5312 24.8984C21.6849 25.7448 20.7409 26.474 19.6992 27.0859C18.6576 27.6979 17.5378 28.1732 16.3398 28.5117C15.1549 28.8372 13.918 29 12.6289 29H4.19141V0.992188H12.6289C13.918 0.992188 15.1549 1.16146 16.3398 1.5C17.5378 1.82552 18.6576 2.29427 19.6992 2.90625C20.7409 3.51823 21.6849 4.25391 22.5312 5.11328C23.3776 5.95964 24.1068 6.90365 24.7188 7.94531C25.3307 8.97396 25.7995 10.0872 26.125 11.2852C26.4635 12.4701 26.6328 13.707 26.6328 14.9961ZM21.0273 14.9961C21.0273 13.8372 20.806 12.75 20.3633 11.7344C19.9336 10.7188 19.3346 9.83333 18.5664 9.07812C17.8112 8.3099 16.9193 7.70443 15.8906 7.26172C14.875 6.81901 13.7878 6.59766 12.6289 6.59766H9.83594V23.3945H12.6289C13.7878 23.3945 14.875 23.1797 15.8906 22.75C16.9193 22.3073 17.8112 21.7083 18.5664 20.9531C19.3346 20.1849 19.9336 19.293 20.3633 18.2773C20.806 17.2487 21.0273 16.1549 21.0273 14.9961ZM50.0117 18.3555C50.0117 19.918 49.7318 21.3763 49.1719 22.7305C48.612 24.0716 47.8503 25.237 46.8867 26.2266C45.9232 27.2031 44.7904 27.9779 43.4883 28.5508C42.1992 29.1107 40.8125 29.3906 39.3281 29.3906C37.8568 29.3906 36.4701 29.1107 35.168 28.5508C33.8789 27.9779 32.7461 27.2031 31.7695 26.2266C30.806 25.237 30.0443 24.0716 29.4844 22.7305C28.9245 21.3763 28.6445 19.918 28.6445 18.3555C28.6445 16.7669 28.9245 15.2956 29.4844 13.9414C30.0443 12.5872 30.806 11.4219 31.7695 10.4453C32.7461 9.45573 33.8789 8.68099 35.168 8.12109C36.4701 7.5612 37.8568 7.28125 39.3281 7.28125C40.8125 7.28125 42.1992 7.54818 43.4883 8.08203C44.7904 8.60286 45.9232 9.35156 46.8867 10.3281C47.8503 11.2917 48.612 12.457 49.1719 13.8242C49.7318 15.1784 50.0117 16.6888 50.0117 18.3555ZM44.6406 18.3555C44.6406 17.4961 44.4974 16.7214 44.2109 16.0312C43.9375 15.3281 43.5599 14.7292 43.0781 14.2344C42.5964 13.7266 42.0299 13.3424 41.3789 13.082C40.7409 12.8086 40.0573 12.6719 39.3281 12.6719C38.599 12.6719 37.9089 12.8086 37.2578 13.082C36.6198 13.3424 36.0599 13.7266 35.5781 14.2344C35.1094 14.7292 34.7383 15.3281 34.4648 16.0312C34.1914 16.7214 34.0547 17.4961 34.0547 18.3555C34.0547 19.1628 34.1914 19.9115 34.4648 20.6016C34.7383 21.2917 35.1094 21.8906 35.5781 22.3984C36.0599 22.9062 36.6198 23.3099 37.2578 23.6094C37.9089 23.8958 38.599 24.0391 39.3281 24.0391C40.0573 24.0391 40.7409 23.9023 41.3789 23.6289C42.0299 23.3555 42.5964 22.9714 43.0781 22.4766C43.5599 21.9818 43.9375 21.3828 44.2109 20.6797C44.4974 19.9766 44.6406 19.2018 44.6406 18.3555ZM65.2852 29H59.6992V6.59766H51.2812V0.992188H73.6836V6.59766H65.2852V29ZM93.0195 18.3555C93.0195 19.918 92.7396 21.3763 92.1797 22.7305C91.6198 24.0716 90.8581 25.237 89.8945 26.2266C88.931 27.2031 87.7982 27.9779 86.4961 28.5508C85.207 29.1107 83.8203 29.3906 82.3359 29.3906C80.8646 29.3906 79.4779 29.1107 78.1758 28.5508C76.8867 27.9779 75.7539 27.2031 74.7773 26.2266C73.8138 25.237 73.0521 24.0716 72.4922 22.7305C71.9323 21.3763 71.6523 19.918 71.6523 18.3555C71.6523 16.7669 71.9323 15.2956 72.4922 13.9414C73.0521 12.5872 73.8138 11.4219 74.7773 10.4453C75.7539 9.45573 76.8867 8.68099 78.1758 8.12109C79.4779 7.5612 80.8646 7.28125 82.3359 7.28125C83.8203 7.28125 85.207 7.54818 86.4961 8.08203C87.7982 8.60286 88.931 9.35156 89.8945 10.3281C90.8581 11.2917 91.6198 12.457 92.1797 13.8242C92.7396 15.1784 93.0195 16.6888 93.0195 18.3555ZM87.6484 18.3555C87.6484 17.4961 87.5052 16.7214 87.2188 16.0312C86.9453 15.3281 86.5677 14.7292 86.0859 14.2344C85.6042 13.7266 85.0378 13.3424 84.3867 13.082C83.7487 12.8086 83.0651 12.6719 82.3359 12.6719C81.6068 12.6719 80.9167 12.8086 80.2656 13.082C79.6276 13.3424 79.0677 13.7266 78.5859 14.2344C78.1172 14.7292 77.7461 15.3281 77.4727 16.0312C77.1992 16.7214 77.0625 17.4961 77.0625 18.3555C77.0625 19.1628 77.1992 19.9115 77.4727 20.6016C77.7461 21.2917 78.1172 21.8906 78.5859 22.3984C79.0677 22.9062 79.6276 23.3099 80.2656 23.6094C80.9167 23.8958 81.6068 24.0391 82.3359 24.0391C83.0651 24.0391 83.7487 23.9023 84.3867 23.6289C85.0378 23.3555 85.6042 22.9714 86.0859 22.4766C86.5677 21.9818 86.9453 21.3828 87.2188 20.6797C87.5052 19.9766 87.6484 19.2018 87.6484 18.3555ZM111.34 26.5586C110.91 26.9492 110.448 27.3203 109.953 27.6719C109.471 28.0104 108.964 28.3099 108.43 28.5703C107.896 28.8177 107.342 29.013 106.77 29.1562C106.21 29.3125 105.637 29.3906 105.051 29.3906C103.762 29.3906 102.551 29.1628 101.418 28.707C100.285 28.2513 99.2891 27.6068 98.4297 26.7734C97.5833 25.9271 96.9128 24.9049 96.418 23.707C95.9362 22.4961 95.6953 21.1419 95.6953 19.6445V8.08203H101.008V19.6445C101.008 20.3477 101.112 20.9792 101.32 21.5391C101.542 22.0859 101.835 22.5482 102.199 22.9258C102.564 23.3034 102.987 23.5898 103.469 23.7852C103.964 23.9805 104.491 24.0781 105.051 24.0781C105.598 24.0781 106.112 23.9544 106.594 23.707C107.089 23.4466 107.518 23.1081 107.883 22.6914C108.247 22.2747 108.534 21.806 108.742 21.2852C108.951 20.7513 109.055 20.2044 109.055 19.6445V8.08203H114.387V29H113.098L111.34 26.5586ZM123.801 29H118.469V8.08203H119.758L121.516 10.5625C122.375 9.78125 123.352 9.18229 124.445 8.76562C125.539 8.33594 126.672 8.12109 127.844 8.12109H132.551V13.4336H127.844C127.284 13.4336 126.757 13.5378 126.262 13.7461C125.767 13.9544 125.337 14.2409 124.973 14.6055C124.608 14.9701 124.322 15.3997 124.113 15.8945C123.905 16.3893 123.801 16.9167 123.801 17.4766V29Z" fill="black"/>
<path d="M26.125 18.7266L25.1627 18.4546L25.1607 18.4617L26.125 18.7266ZM24.7188 22.0664L25.5782 22.5777L25.581 22.573L24.7188 22.0664ZM22.5312 24.8984L23.2384 25.6056L23.2437 25.6001L22.5312 24.8984ZM16.3398 28.5117L16.6048 29.476L16.6118 29.474L16.3398 28.5117ZM4.19141 29H3.19141V30H4.19141V29ZM4.19141 0.992188V-0.0078125H3.19141V0.992188H4.19141ZM16.3398 1.5L16.0651 2.4616L16.0776 2.46501L16.3398 1.5ZM22.5312 5.11328L21.8187 5.81499L21.8241 5.82039L22.5312 5.11328ZM24.7188 7.94531L23.8565 8.45187L23.8593 8.45661L24.7188 7.94531ZM26.125 11.2852L25.1599 11.5474L25.1635 11.5599L26.125 11.2852ZM20.3633 11.7344L19.4423 12.124L19.4466 12.134L20.3633 11.7344ZM18.5664 9.07812L17.8533 9.77916L17.8593 9.78526L17.8654 9.79125L18.5664 9.07812ZM15.8906 7.26172L15.491 8.17842L15.4953 8.18026L15.8906 7.26172ZM9.83594 6.59766V5.59766H8.83594V6.59766H9.83594ZM9.83594 23.3945H8.83594V24.3945H9.83594V23.3945ZM15.8906 22.75L16.2803 23.671L16.2859 23.6685L15.8906 22.75ZM18.5664 20.9531L17.8593 20.246L18.5664 20.9531ZM20.3633 18.2773L19.4447 17.882L19.4423 17.8877L20.3633 18.2773ZM25.6328 14.9961C25.6328 16.1965 25.4753 17.3483 25.1627 18.4546L27.0873 18.9985C27.4517 17.709 27.6328 16.3738 27.6328 14.9961H25.6328ZM25.1607 18.4617C24.8581 19.5633 24.4233 20.5952 23.8565 21.5599L25.581 22.573C26.2382 21.4543 26.7409 20.2596 27.0893 18.9915L25.1607 18.4617ZM23.8593 21.5551C23.2888 22.5141 22.6091 23.3943 21.8188 24.1967L23.2437 25.6001C24.1461 24.6839 24.9247 23.676 25.5782 22.5777L23.8593 21.5551ZM21.8241 24.1913C21.0384 24.9771 20.1619 25.6543 19.1927 26.2237L20.2058 27.9481C21.3199 27.2936 22.3314 26.5125 23.2384 25.6055L21.8241 24.1913ZM19.1927 26.2237C18.2268 26.7912 17.1862 27.2334 16.0679 27.5494L16.6118 29.474C17.8894 29.113 19.0883 28.6047 20.2058 27.9481L19.1927 26.2237ZM16.0749 27.5474C14.9805 27.8481 13.8329 28 12.6289 28V30C14.0031 30 15.3294 29.8264 16.6048 29.476L16.0749 27.5474ZM12.6289 28H4.19141V30H12.6289V28ZM5.19141 29V0.992188H3.19141V29H5.19141ZM4.19141 1.99219H12.6289V-0.0078125H4.19141V1.99219ZM12.6289 1.99219C13.8293 1.99219 14.9736 2.14966 16.0651 2.46152L16.6146 0.538476C15.3363 0.173255 14.0066 -0.0078125 12.6289 -0.0078125V1.99219ZM16.0776 2.46501C17.1923 2.7679 18.2296 3.20266 19.1927 3.76846L20.2058 2.04404C19.0855 1.38588 17.8833 0.883143 16.6021 0.534995L16.0776 2.46501ZM19.1927 3.76846C20.1591 4.33624 21.0338 5.01798 21.8188 5.81497L23.2437 4.41159C22.3359 3.48984 21.3227 2.70022 20.2058 2.04404L19.1927 3.76846ZM21.8241 5.82039C22.6099 6.60618 23.2871 7.48267 23.8565 8.45186L25.581 7.43876C24.9264 6.32463 24.1453 5.31309 23.2384 4.40617L21.8241 5.82039ZM23.8593 8.45661C24.4233 9.40455 24.8573 10.4336 25.16 11.5474L27.09 11.0229C26.7416 9.74085 26.2382 8.54337 25.5782 7.43402L23.8593 8.45661ZM25.1635 11.5599C25.4753 12.6514 25.6328 13.7957 25.6328 14.9961H27.6328C27.6328 13.6184 27.4517 12.2887 27.0865 11.0104L25.1635 11.5599ZM22.0273 14.9961C22.0273 13.7062 21.7802 12.4822 21.28 11.3348L19.4466 12.134C19.8318 13.0178 20.0273 13.9683 20.0273 14.9961H22.0273ZM21.2842 11.3447C20.8045 10.2108 20.1318 9.21472 19.2674 8.365L17.8654 9.79125C18.5375 10.4519 19.0627 11.2267 19.4423 12.124L21.2842 11.3447ZM19.2795 8.37709C18.4299 7.5128 17.4288 6.83505 16.2859 6.34318L15.4953 8.18026C16.4097 8.57381 17.1925 9.10699 17.8533 9.77916L19.2795 8.37709ZM16.2902 6.34502C15.1428 5.84485 13.9188 5.59766 12.6289 5.59766V7.59766C13.6567 7.59766 14.6072 7.79317 15.491 8.17841L16.2902 6.34502ZM12.6289 5.59766H9.83594V7.59766H12.6289V5.59766ZM8.83594 6.59766V23.3945H10.8359V6.59766H8.83594ZM9.83594 24.3945H12.6289V22.3945H9.83594V24.3945ZM12.6289 24.3945C13.9147 24.3945 15.1351 24.1554 16.2803 23.671L15.501 21.829C14.6149 22.2039 13.6608 22.3945 12.6289 22.3945V24.3945ZM16.2859 23.6685C17.4252 23.1782 18.4244 22.5093 19.2735 21.6602L17.8593 20.246C17.198 20.9073 16.4133 21.4364 15.4953 21.8315L16.2859 23.6685ZM19.2735 21.6602C20.1342 20.7995 20.8052 19.7994 21.2842 18.667L19.4423 17.8877C19.062 18.7866 18.5351 19.5702 17.8593 20.246L19.2735 21.6602ZM21.2818 18.6727C21.7802 17.5148 22.0273 16.286 22.0273 14.9961H20.0273C20.0273 16.0238 19.8318 16.9826 19.4447 17.882L21.2818 18.6727ZM49.1719 22.7305L50.0947 23.1157L50.096 23.1126L49.1719 22.7305ZM46.8867 26.2266L47.5986 26.9289L47.6032 26.9242L46.8867 26.2266ZM43.4883 28.5508L43.8867 29.468L43.891 29.4661L43.4883 28.5508ZM35.168 28.5508L34.7618 29.4647L34.7729 29.4695L35.168 28.5508ZM31.7695 26.2266L31.053 26.9242L31.0624 26.9337L31.7695 26.2266ZM29.4844 22.7305L28.5602 23.1126L28.5616 23.1157L29.4844 22.7305ZM31.7695 10.4453L31.0578 9.7429L31.0577 9.74297L31.7695 10.4453ZM35.168 8.12109L34.7729 7.20242L34.7696 7.20388L35.168 8.12109ZM43.4883 8.08203L43.1056 9.006L43.1169 9.01051L43.4883 8.08203ZM46.8867 10.3281L46.1749 11.0305L46.1796 11.0352L46.8867 10.3281ZM49.1719 13.8242L48.2465 14.2032L48.2477 14.2063L49.1719 13.8242ZM44.2109 16.0312L43.2789 16.3937L43.283 16.4042L43.2873 16.4146L44.2109 16.0312ZM43.0781 14.2344L42.3526 14.9227L42.3617 14.932L43.0781 14.2344ZM41.3789 13.082L40.985 14.0012L40.9962 14.006L41.0075 14.0105L41.3789 13.082ZM37.2578 13.082L37.6357 14.0079L37.645 14.004L37.2578 13.082ZM35.5781 14.2344L34.8527 13.5461L34.8522 13.5466L35.5781 14.2344ZM34.4648 16.0312L35.3945 16.3996L35.3968 16.3937L34.4648 16.0312ZM35.5781 22.3984L34.8433 23.0768L34.8527 23.0867L35.5781 22.3984ZM37.2578 23.6094L36.8329 24.5146L36.8439 24.5198L36.8551 24.5247L37.2578 23.6094ZM41.3789 23.6289L40.9917 22.7069L40.985 22.7098L41.3789 23.6289ZM44.2109 20.6797L43.2848 20.3024L43.2818 20.3098L43.2789 20.3172L44.2109 20.6797ZM49.0117 18.3555C49.0117 19.7957 48.7543 21.1232 48.2477 22.3484L50.096 23.1126C50.7092 21.6294 51.0117 20.0403 51.0117 18.3555H49.0117ZM48.2491 22.3452C47.7351 23.5763 47.0414 24.6342 46.1702 25.5289L47.6032 26.9242C48.6591 25.8397 49.4889 24.5669 50.0947 23.1157L48.2491 22.3452ZM46.1749 25.5242C45.3033 26.4076 44.2764 27.1115 43.0855 27.6355L43.891 29.4661C45.3043 28.8442 46.5431 27.9987 47.5986 26.9289L46.1749 25.5242ZM43.0899 27.6336C41.9335 28.1358 40.6833 28.3906 39.3281 28.3906V30.3906C40.9417 30.3906 42.4649 30.0855 43.8867 29.468L43.0899 27.6336ZM39.3281 28.3906C37.9873 28.3906 36.7355 28.1363 35.563 27.6321L34.7729 29.4695C36.2046 30.0851 37.7262 30.3906 39.3281 30.3906V28.3906ZM35.5741 27.637C34.3948 27.1128 33.3645 26.4074 32.4766 25.5195L31.0624 26.9337C32.1277 27.9989 33.3631 28.8429 34.7618 29.4646L35.5741 27.637ZM32.486 25.5289C31.6148 24.6342 30.9211 23.5763 30.4072 22.3452L28.5616 23.1157C29.1674 24.5669 29.9972 25.8397 31.0531 26.9242L32.486 25.5289ZM30.4085 22.3484C29.902 21.1232 29.6445 19.7957 29.6445 18.3555H27.6445C27.6445 20.0403 27.947 21.6294 28.5602 23.1126L30.4085 22.3484ZM29.6445 18.3555C29.6445 16.8869 29.9028 15.5466 30.4085 14.3235L28.5602 13.5593C27.9462 15.0445 27.6445 16.6469 27.6445 18.3555H29.6445ZM30.4085 14.3235C30.9224 13.0806 31.6147 12.0261 32.4814 11.1477L31.0577 9.74297C29.9973 10.8177 29.1661 12.0939 28.5602 13.5593L30.4085 14.3235ZM32.4813 11.1477C33.3671 10.2501 34.3932 9.54786 35.5664 9.03831L34.7696 7.20388C33.3646 7.81412 32.1251 8.66134 31.0578 9.7429L32.4813 11.1477ZM35.563 9.03976C36.7355 8.53558 37.9873 8.28125 39.3281 8.28125V6.28125C37.7262 6.28125 36.2046 6.58682 34.7729 7.20242L35.563 9.03976ZM39.3281 8.28125C40.6897 8.28125 41.9455 8.52547 43.1057 9.00593L43.8709 7.15813C42.4529 6.57088 40.9353 6.28125 39.3281 6.28125V8.28125ZM43.1169 9.01051C44.2941 9.48137 45.3102 10.1541 46.1749 11.0305L47.5986 9.62578C46.5361 8.54899 45.2867 7.72436 43.8597 7.15355L43.1169 9.01051ZM46.1796 11.0352C47.0417 11.8973 47.7326 12.9484 48.2465 14.2032L50.0973 13.4452C49.4914 11.9657 48.6588 10.686 47.5938 9.62102L46.1796 11.0352ZM48.2477 14.2063C48.7511 15.4238 49.0117 16.802 49.0117 18.3555H51.0117C51.0117 16.5756 50.7124 14.933 50.096 13.4421L48.2477 14.2063ZM45.6406 18.3555C45.6406 17.3841 45.4784 16.4764 45.1345 15.6479L43.2873 16.4146C43.5164 16.9663 43.6406 17.6081 43.6406 18.3555H45.6406ZM45.1429 15.6688C44.8254 14.8523 44.3783 14.1362 43.7946 13.5368L42.3617 14.932C42.7415 15.3221 43.0496 15.804 43.2789 16.3937L45.1429 15.6688ZM43.8036 13.5461C43.2223 12.9334 42.5351 12.4675 41.7503 12.1536L41.0075 14.0105C41.5248 14.2174 41.9704 14.5197 42.3527 14.9226L43.8036 13.5461ZM41.7728 12.1629C41.0041 11.8334 40.1858 11.6719 39.3281 11.6719V13.6719C39.9288 13.6719 40.4777 13.7838 40.985 14.0012L41.7728 12.1629ZM39.3281 11.6719C38.4704 11.6719 37.6482 11.8334 36.8706 12.16L37.645 14.004C38.1695 13.7838 38.7275 13.6719 39.3281 13.6719V11.6719ZM36.8799 12.1562C36.1084 12.4711 35.4305 12.937 34.8527 13.5461L36.3036 14.9226C36.6893 14.5161 37.1312 14.2138 37.6357 14.0079L36.8799 12.1562ZM34.8522 13.5466C34.2852 14.1451 33.8482 14.8578 33.5328 15.6688L35.3968 16.3937C35.6284 15.7984 35.9335 15.3133 36.3041 14.9221L34.8522 13.5466ZM33.5352 15.6629C33.2085 16.4872 33.0547 17.3896 33.0547 18.3555H35.0547C35.0547 17.6026 35.1743 16.9555 35.3945 16.3996L33.5352 15.6629ZM33.0547 18.3555C33.0547 19.2778 33.2113 20.1527 33.5352 20.9699L35.3945 20.2332C35.1715 19.6702 35.0547 19.0477 35.0547 18.3555H33.0547ZM33.5352 20.9699C33.8506 21.7659 34.2851 22.472 34.8433 23.0767L36.3129 21.7202C35.9337 21.3093 35.626 20.8174 35.3945 20.2332L33.5352 20.9699ZM34.8527 23.0867C35.4208 23.6856 36.0828 24.1625 36.8329 24.5146L37.6827 22.7041C37.1567 22.4572 36.699 22.1269 36.3036 21.7102L34.8527 23.0867ZM36.8551 24.5247C37.6363 24.8684 38.4639 25.0391 39.3281 25.0391V23.0391C38.734 23.0391 38.1814 22.9232 37.6606 22.6941L36.8551 24.5247ZM39.3281 25.0391C40.1858 25.0391 41.0041 24.8775 41.7728 24.5481L40.985 22.7098C40.4777 22.9272 39.9288 23.0391 39.3281 23.0391V25.0391ZM41.7661 24.5509C42.538 24.2267 43.2171 23.7673 43.7946 23.1742L42.3617 21.7789C41.9756 22.1754 41.5219 22.4842 40.9917 22.7069L41.7661 24.5509ZM43.7946 23.1742C44.3783 22.5747 44.8254 21.8587 45.1429 21.0421L43.2789 20.3172C43.0496 20.907 42.7415 21.3888 42.3617 21.7789L43.7946 23.1742ZM45.137 21.057C45.4776 20.221 45.6406 19.3164 45.6406 18.3555H43.6406C43.6406 19.0873 43.5172 19.7321 43.2848 20.3024L45.137 21.057ZM65.2852 29V30H66.2852V29H65.2852ZM59.6992 29H58.6992V30H59.6992V29ZM59.6992 6.59766H60.6992V5.59766H59.6992V6.59766ZM51.2812 6.59766H50.2812V7.59766H51.2812V6.59766ZM51.2812 0.992188V-0.0078125H50.2812V0.992188H51.2812ZM73.6836 0.992188H74.6836V-0.0078125H73.6836V0.992188ZM73.6836 6.59766V7.59766H74.6836V6.59766H73.6836ZM65.2852 6.59766V5.59766H64.2852V6.59766H65.2852ZM65.2852 28H59.6992V30H65.2852V28ZM60.6992 29V6.59766H58.6992V29H60.6992ZM59.6992 5.59766H51.2812V7.59766H59.6992V5.59766ZM52.2812 6.59766V0.992188H50.2812V6.59766H52.2812ZM51.2812 1.99219H73.6836V-0.0078125H51.2812V1.99219ZM72.6836 0.992188V6.59766H74.6836V0.992188H72.6836ZM73.6836 5.59766H65.2852V7.59766H73.6836V5.59766ZM64.2852 6.59766V29H66.2852V6.59766H64.2852ZM92.1797 22.7305L93.1025 23.1157L93.1038 23.1126L92.1797 22.7305ZM89.8945 26.2266L90.6064 26.9289L90.611 26.9242L89.8945 26.2266ZM86.4961 28.5508L86.8945 29.468L86.8988 29.4661L86.4961 28.5508ZM78.1758 28.5508L77.7696 29.4647L77.7808 29.4695L78.1758 28.5508ZM74.7773 26.2266L74.0608 26.9242L74.0702 26.9337L74.7773 26.2266ZM72.4922 22.7305L71.5681 23.1126L71.5694 23.1157L72.4922 22.7305ZM74.7773 10.4453L74.0656 9.7429L74.0655 9.74297L74.7773 10.4453ZM78.1758 8.12109L77.7808 7.20242L77.7774 7.20388L78.1758 8.12109ZM86.4961 8.08203L86.1134 9.006L86.1247 9.01051L86.4961 8.08203ZM89.8945 10.3281L89.1827 11.0305L89.1874 11.0352L89.8945 10.3281ZM92.1797 13.8242L91.2543 14.2032L91.2556 14.2063L92.1797 13.8242ZM87.2188 16.0312L86.2867 16.3937L86.2908 16.4042L86.2952 16.4146L87.2188 16.0312ZM86.0859 14.2344L85.3604 14.9227L85.3695 14.932L86.0859 14.2344ZM84.3867 13.082L83.9928 14.0012L84.004 14.006L84.0153 14.0105L84.3867 13.082ZM80.2656 13.082L80.6435 14.0079L80.6529 14.004L80.2656 13.082ZM78.5859 14.2344L77.8605 13.5461L77.86 13.5466L78.5859 14.2344ZM77.4727 16.0312L78.4024 16.3996L78.4047 16.3937L77.4727 16.0312ZM78.5859 22.3984L77.8511 23.0768L77.8605 23.0867L78.5859 22.3984ZM80.2656 23.6094L79.8407 24.5146L79.8517 24.5198L79.8629 24.5247L80.2656 23.6094ZM84.3867 23.6289L83.9995 22.7069L83.9928 22.7098L84.3867 23.6289ZM87.2188 20.6797L86.2927 20.3024L86.2896 20.3098L86.2867 20.3172L87.2188 20.6797ZM92.0195 18.3555C92.0195 19.7957 91.7621 21.1232 91.2556 22.3484L93.1038 23.1126C93.7171 21.6294 94.0195 20.0403 94.0195 18.3555H92.0195ZM91.2569 22.3452C90.7429 23.5763 90.0492 24.6342 89.1781 25.5289L90.611 26.9242C91.6669 25.8397 92.4967 24.5669 93.1025 23.1157L91.2569 22.3452ZM89.1827 25.5242C88.3111 26.4076 87.2842 27.1115 86.0934 27.6355L86.8988 29.4661C88.3121 28.8442 89.5509 27.9987 90.6064 26.9289L89.1827 25.5242ZM86.0977 27.6336C84.9414 28.1358 83.6911 28.3906 82.3359 28.3906V30.3906C83.9495 30.3906 85.4727 30.0855 86.8945 29.468L86.0977 27.6336ZM82.3359 28.3906C80.9951 28.3906 79.7433 28.1363 78.5708 27.6321L77.7808 29.4695C79.2124 30.0851 80.734 30.3906 82.3359 30.3906V28.3906ZM78.5819 27.637C77.4026 27.1128 76.3723 26.4074 75.4845 25.5195L74.0702 26.9337C75.1355 27.9989 76.3709 28.8429 77.7696 29.4646L78.5819 27.637ZM75.4938 25.5289C74.6226 24.6342 73.929 23.5763 73.415 22.3452L71.5694 23.1157C72.1752 24.5669 73.005 25.8397 74.0609 26.9242L75.4938 25.5289ZM73.4163 22.3484C72.9098 21.1232 72.6523 19.7957 72.6523 18.3555H70.6523C70.6523 20.0403 70.9548 21.6294 71.5681 23.1126L73.4163 22.3484ZM72.6523 18.3555C72.6523 16.8869 72.9106 15.5466 73.4163 14.3235L71.5681 13.5593C70.954 15.0445 70.6523 16.6469 70.6523 18.3555H72.6523ZM73.4163 14.3235C73.9302 13.0806 74.6225 12.0261 75.4892 11.1477L74.0655 9.74297C73.0051 10.8177 72.174 12.0939 71.5681 13.5593L73.4163 14.3235ZM75.4891 11.1477C76.3749 10.2501 77.401 9.54786 78.5742 9.03831L77.7774 7.20388C76.3724 7.81412 75.1329 8.66134 74.0656 9.7429L75.4891 11.1477ZM78.5708 9.03976C79.7433 8.53558 80.9951 8.28125 82.3359 8.28125V6.28125C80.734 6.28125 79.2124 6.58682 77.7808 7.20242L78.5708 9.03976ZM82.3359 8.28125C83.6975 8.28125 84.9533 8.52547 86.1135 9.00593L86.8787 7.15813C85.4607 6.57088 83.9431 6.28125 82.3359 6.28125V8.28125ZM86.1247 9.01051C87.3019 9.48137 88.318 10.1541 89.1827 11.0305L90.6064 9.62578C89.5439 8.54899 88.2945 7.72436 86.8675 7.15355L86.1247 9.01051ZM89.1874 11.0352C90.0495 11.8973 90.7404 12.9484 91.2543 14.2032L93.1051 13.4452C92.4992 11.9657 91.6666 10.686 90.6016 9.62102L89.1874 11.0352ZM91.2556 14.2063C91.7589 15.4238 92.0195 16.802 92.0195 18.3555H94.0195C94.0195 16.5756 93.7202 14.933 93.1038 13.4421L91.2556 14.2063ZM88.6484 18.3555C88.6484 17.3841 88.4862 16.4764 88.1423 15.6479L86.2952 16.4146C86.5242 16.9663 86.6484 17.6081 86.6484 18.3555H88.6484ZM88.1508 15.6688C87.8332 14.8523 87.3861 14.1362 86.8024 13.5368L85.3695 14.932C85.7493 15.3221 86.0574 15.804 86.2867 16.3937L88.1508 15.6688ZM86.8114 13.5461C86.2301 12.9334 85.5429 12.4675 84.7581 12.1536L84.0153 14.0105C84.5326 14.2174 84.9782 14.5197 85.3605 14.9226L86.8114 13.5461ZM84.7806 12.1629C84.0119 11.8334 83.1936 11.6719 82.3359 11.6719V13.6719C82.9366 13.6719 83.4855 13.7838 83.9928 14.0012L84.7806 12.1629ZM82.3359 11.6719C81.4782 11.6719 80.6561 11.8334 79.8784 12.16L80.6529 14.004C81.1773 13.7838 81.7353 13.6719 82.3359 13.6719V11.6719ZM79.8877 12.1562C79.1162 12.4711 78.4383 12.937 77.8605 13.5461L79.3114 14.9226C79.6971 14.5161 80.139 14.2138 80.6435 14.0079L79.8877 12.1562ZM77.86 13.5466C77.2931 14.1451 76.856 14.8578 76.5407 15.6688L78.4047 16.3937C78.6362 15.7984 78.9413 15.3133 79.3119 14.9221L77.86 13.5466ZM76.543 15.6629C76.2164 16.4872 76.0625 17.3896 76.0625 18.3555H78.0625C78.0625 17.6026 78.1821 16.9555 78.4023 16.3996L76.543 15.6629ZM76.0625 18.3555C76.0625 19.2778 76.2192 20.1527 76.543 20.9699L78.4023 20.2332C78.1793 19.6702 78.0625 19.0477 78.0625 18.3555H76.0625ZM76.543 20.9699C76.8584 21.7659 77.2929 22.472 77.8511 23.0767L79.3207 21.7202C78.9415 21.3093 78.6338 20.8174 78.4023 20.2332L76.543 20.9699ZM77.8605 23.0867C78.4286 23.6856 79.0907 24.1625 79.8407 24.5146L80.6905 22.7041C80.1645 22.4572 79.7068 22.1269 79.3114 21.7102L77.8605 23.0867ZM79.8629 24.5247C80.6441 24.8684 81.4717 25.0391 82.3359 25.0391V23.0391C81.7419 23.0391 81.1892 22.9232 80.6684 22.6941L79.8629 24.5247ZM82.3359 25.0391C83.1936 25.0391 84.0119 24.8775 84.7806 24.5481L83.9928 22.7098C83.4855 22.9272 82.9366 23.0391 82.3359 23.0391V25.0391ZM84.774 24.5509C85.5458 24.2267 86.2249 23.7673 86.8024 23.1742L85.3695 21.7789C84.9834 22.1754 84.5297 22.4842 83.9995 22.7069L84.774 24.5509ZM86.8024 23.1742C87.3861 22.5747 87.8332 21.8587 88.1508 21.0421L86.2867 20.3172C86.0574 20.907 85.7493 21.3888 85.3695 21.7789L86.8024 23.1742ZM88.1448 21.057C88.4854 20.221 88.6484 19.3164 88.6484 18.3555H86.6484C86.6484 19.0873 86.525 19.7321 86.2927 20.3024L88.1448 21.057ZM111.34 26.5586L112.151 25.9743L111.496 25.0647L110.667 25.8187L111.34 26.5586ZM109.953 27.6719L110.528 28.4901L110.532 28.4871L109.953 27.6719ZM108.43 28.5703L108.85 29.4776L108.859 29.4734L108.868 29.4691L108.43 28.5703ZM106.77 29.1562L106.527 28.1861L106.514 28.1894L106.501 28.1931L106.77 29.1562ZM98.4297 26.7734L97.7226 27.4805L97.728 27.486L97.7335 27.4913L98.4297 26.7734ZM96.418 23.707L95.4887 24.0767L95.4937 24.0888L96.418 23.707ZM95.6953 8.08203V7.08203H94.6953V8.08203H95.6953ZM101.008 8.08203H102.008V7.08203H101.008V8.08203ZM101.32 21.5391L100.383 21.8878L100.388 21.9011L100.393 21.9143L101.32 21.5391ZM103.469 23.7852L103.093 24.7119L103.102 24.7153L103.469 23.7852ZM106.594 23.707L107.051 24.5966L107.059 24.5919L106.594 23.707ZM108.742 21.2852L109.671 21.6566L109.674 21.6487L108.742 21.2852ZM109.055 8.08203V7.08203H108.055V8.08203H109.055ZM114.387 8.08203H115.387V7.08203H114.387V8.08203ZM114.387 29V30H115.387V29H114.387ZM113.098 29L112.286 29.5843L112.585 30H113.098V29ZM110.667 25.8187C110.268 26.1812 109.838 26.5273 109.374 26.8567L110.532 28.4871C111.058 28.1133 111.552 27.7173 112.013 27.2985L110.667 25.8187ZM109.378 26.8537C108.94 27.1615 108.478 27.4341 107.991 27.6715L108.868 29.4691C109.449 29.1857 110.003 28.8593 110.528 28.4901L109.378 26.8537ZM108.009 27.663C107.533 27.8838 107.039 28.0581 106.527 28.1861L107.012 30.1264C107.646 29.9679 108.259 29.7516 108.85 29.4776L108.009 27.663ZM106.501 28.1931C106.029 28.3247 105.547 28.3906 105.051 28.3906V30.3906C105.727 30.3906 106.39 30.3003 107.038 30.1194L106.501 28.1931ZM105.051 28.3906C103.882 28.3906 102.799 28.1847 101.791 27.7793L101.045 29.6348C102.303 30.1409 103.641 30.3906 105.051 30.3906V28.3906ZM101.791 27.7793C100.776 27.3709 99.8903 26.7968 99.1258 26.0555L97.7335 27.4913C98.6878 28.4167 99.7942 29.1317 101.045 29.6348L101.791 27.7793ZM99.1368 26.0663C98.391 25.3205 97.791 24.4117 97.3422 23.3253L95.4937 24.0888C96.0346 25.3982 96.7757 26.5336 97.7226 27.4805L99.1368 26.0663ZM97.3471 23.3374C96.9186 22.2602 96.6953 21.034 96.6953 19.6445H94.6953C94.6953 21.2499 94.9538 22.732 95.4888 24.0767L97.3471 23.3374ZM96.6953 19.6445V8.08203H94.6953V19.6445H96.6953ZM95.6953 9.08203H101.008V7.08203H95.6953V9.08203ZM100.008 8.08203V19.6445H102.008V8.08203H100.008ZM100.008 19.6445C100.008 20.4461 100.127 21.1985 100.383 21.8878L102.258 21.1903C102.097 20.7598 102.008 20.2492 102.008 19.6445H100.008ZM100.393 21.9143C100.657 22.5652 101.016 23.1398 101.48 23.6204L102.919 22.2312C102.653 21.9565 102.426 21.6066 102.247 21.1639L100.393 21.9143ZM101.48 23.6204C101.941 24.0975 102.48 24.4635 103.093 24.7119L103.844 22.8584C103.494 22.7161 103.187 22.5092 102.919 22.2312L101.48 23.6204ZM103.102 24.7153C103.719 24.9592 104.372 25.0781 105.051 25.0781V23.0781C104.61 23.0781 104.208 23.0018 103.836 22.855L103.102 24.7153ZM105.051 25.0781C105.755 25.0781 106.426 24.9173 107.051 24.5966L106.137 22.8175C105.798 22.9915 105.44 23.0781 105.051 23.0781V25.0781ZM107.059 24.5919C107.662 24.2749 108.189 23.86 108.635 23.3499L107.13 22.0329C106.847 22.3562 106.515 22.6183 106.128 22.8221L107.059 24.5919ZM108.635 23.3499C109.075 22.847 109.421 22.2809 109.671 21.6565L107.814 20.9138C107.647 21.331 107.419 21.7024 107.13 22.0329L108.635 23.3499ZM109.674 21.6487C109.926 21.0018 110.055 20.3318 110.055 19.6445H108.055C108.055 20.0771 107.975 20.5008 107.811 20.9216L109.674 21.6487ZM110.055 19.6445V8.08203H108.055V19.6445H110.055ZM109.055 9.08203H114.387V7.08203H109.055V9.08203ZM113.387 8.08203V29H115.387V8.08203H113.387ZM114.387 28H113.098V30H114.387V28ZM113.909 28.4157L112.151 25.9743L110.528 27.1429L112.286 29.5843L113.909 28.4157ZM123.801 29V30H124.801V29H123.801ZM118.469 29H117.469V30H118.469V29ZM118.469 8.08203V7.08203H117.469V8.08203H118.469ZM119.758 8.08203L120.574 7.50384L120.275 7.08203H119.758V8.08203ZM121.516 10.5625L120.7 11.1407L121.353 12.0621L122.188 11.3024L121.516 10.5625ZM124.445 8.76562L124.801 9.70016L124.811 9.69638L124.445 8.76562ZM132.551 8.12109H133.551V7.12109H132.551V8.12109ZM132.551 13.4336V14.4336H133.551V13.4336H132.551ZM126.262 13.7461L125.874 12.8245L126.262 13.7461ZM123.801 28H118.469V30H123.801V28ZM119.469 29V8.08203H117.469V29H119.469ZM118.469 9.08203H119.758V7.08203H118.469V9.08203ZM118.942 8.66023L120.7 11.1407L122.332 9.9843L120.574 7.50384L118.942 8.66023ZM122.188 11.3024C122.954 10.6059 123.823 10.0726 124.801 9.70011L124.089 7.83114C122.88 8.29194 121.796 8.95658 120.843 9.82256L122.188 11.3024ZM124.811 9.69638C125.789 9.31232 126.797 9.12109 127.844 9.12109V7.12109C126.546 7.12109 125.29 7.35956 124.08 7.83487L124.811 9.69638ZM127.844 9.12109H132.551V7.12109H127.844V9.12109ZM131.551 8.12109V13.4336H133.551V8.12109H131.551ZM132.551 12.4336H127.844V14.4336H132.551V12.4336ZM127.844 12.4336C127.156 12.4336 126.497 12.5622 125.874 12.8245L126.65 14.6677C127.016 14.5133 127.411 14.4336 127.844 14.4336V12.4336ZM125.874 12.8245C125.265 13.0809 124.725 13.4385 124.266 13.8984L125.68 15.3126C125.949 15.0432 126.269 14.828 126.65 14.6677L125.874 12.8245ZM124.266 13.8984C123.806 14.3582 123.448 14.8975 123.192 15.5065L125.035 16.2826C125.195 15.902 125.41 15.5819 125.68 15.3126L124.266 13.8984ZM123.192 15.5065C122.929 16.1294 122.801 16.7892 122.801 17.4766H124.801C124.801 17.0441 124.881 16.6493 125.035 16.2826L123.192 15.5065ZM122.801 17.4766V29H124.801V17.4766H122.801Z" fill="black"/>
</g>
<defs>
<filter id="filter0_d_1_3" x="0.191406" y="0.992188" width="136.359" height="36.3984" filterUnits="userSpaceOnUse" color-interpolation-filters="sRGB">
<feFlood flood-opacity="0" result="BackgroundImageFix"/>
<feColorMatrix in="SourceAlpha" type="matrix" values="0 0 0 0 0 0 0 0 0 0 0 0 0 0 0 0 0 0 127 0" result="hardAlpha"/>
<feOffset dy="4"/>
<feGaussianBlur stdDeviation="2"/>
<feComposite in2="hardAlpha" operator="out"/>
<feColorMatrix type="matrix" values="0 0 0 0 0 0 0 0 0 0 0 0 0 0 0 0 0 0 0.25 0"/>
<feBlend mode="normal" in2="BackgroundImageFix" result="effect1_dropShadow_1_3"/>
<feBlend mode="normal" in="SourceGraphic" in2="effect1_dropShadow_1_3" result="shape"/>
</filter>
</defs>
</svg>
