<svg width="48" height="29" viewBox="0 0 48 29" fill="none" xmlns="http://www.w3.org/2000/svg">
<path d="M2.36 28.96C1.90667 28.96 1.52 28.7467 1.2 28.32C0.88 27.92 0.626667 27.4533 0.44 26.92C0.28 26.3867 0.173333 25.9467 0.12 25.6C0.0400001 24.8267 2.98023e-08 24.04 2.98023e-08 23.24C2.98023e-08 21.8267 0.133333 20.2533 0.4 18.52C0.693333 16.76 1.08 14.9733 1.56 13.16C2.04 11.32 2.57333 9.57333 3.16 7.92C3.77333 6.26667 4.4 4.82667 5.04 3.6C4.88 3.65333 4.73333 3.68 4.6 3.68C4.49333 3.68 4.37333 3.65333 4.24 3.6C4.10667 3.54667 4.04 3.45333 4.04 3.32C4.04 3.10666 4.14667 2.93333 4.36 2.8C4.6 2.64 4.86667 2.52 5.16 2.44C5.45333 2.36 5.66667 2.30667 5.8 2.28C5.88 2.14666 5.97333 1.94666 6.08 1.68C6.21333 1.38667 6.36 1.12 6.52 0.879999C6.70667 0.639999 6.89333 0.519999 7.08 0.519999C7.34667 0.519999 7.54667 0.626666 7.68 0.84C7.81333 1.02667 7.88 1.22667 7.88 1.44C7.88 1.54667 7.86667 1.66667 7.84 1.8C7.84 1.90667 7.82667 2.01333 7.8 2.12H8.56C9.86667 2.12 11.2533 2.24 12.72 2.48C14.1867 2.69333 15.6267 3.06667 17.04 3.6C18.48 4.10667 19.8133 4.8 21.04 5.68C22.2933 6.53333 23.3333 7.6 24.16 8.88C24.64 9.62667 25.0133 10.4133 25.28 11.24C25.5467 12.0667 25.68 12.92 25.68 13.8C25.68 15.48 25.28 17.0133 24.48 18.4C23.68 19.7867 22.6133 21.0133 21.28 22.08C19.9467 23.12 18.4667 24 16.84 24.72C15.24 25.44 13.6133 25.9867 11.96 26.36C10.3067 26.7333 8.76 26.92 7.32 26.92C6.78667 26.92 6.17333 26.88 5.48 26.8C4.78667 26.72 4.2 26.5467 3.72 26.28C3.66667 26.2533 3.50667 26.16 3.24 26C3 25.8667 2.88 25.7333 2.88 25.6C2.88 25.5467 2.92 25.52 3 25.52C3.08 25.4933 3.13333 25.48 3.16 25.48C3.48 25.48 3.82667 25.5733 4.2 25.76C5.05333 26 5.88 26.12 6.68 26.12C7.85333 26.12 9.14667 25.9467 10.56 25.6C12 25.2267 13.44 24.7333 14.88 24.12C16.32 23.48 17.64 22.7467 18.84 21.92C20.04 21.0933 20.9867 20.2 21.68 19.24C22.3733 18.3333 22.9733 17.32 23.48 16.2C24.0133 15.0533 24.28 13.9067 24.28 12.76C24.28 11.48 23.9733 10.36 23.36 9.4C22.7467 8.44 21.9467 7.62667 20.96 6.96C20 6.26667 18.9467 5.70667 17.8 5.28C16.6533 4.82667 15.5467 4.48 14.48 4.24C13.4933 4.02667 12.5067 3.88 11.52 3.8C10.5333 3.72 9.53333 3.68 8.52 3.68C8.25333 3.68 7.98667 3.69333 7.72 3.72C7.45333 3.72 7.17333 3.73333 6.88 3.76C6.4 4.82667 5.90667 6.08 5.4 7.52C4.89333 8.96 4.4 10.4933 3.92 12.12C3.44 13.72 3 15.32 2.6 16.92C2.22667 18.4933 1.92 19.9733 1.68 21.36C1.46667 22.7467 1.36 23.92 1.36 24.88C1.36 25.0667 1.36 25.2667 1.36 25.48C1.36 25.6667 1.37333 25.8667 1.4 26.08C1.45333 26.4267 1.50667 26.7467 1.56 27.04C1.64 27.36 1.78667 27.6667 2 27.96C2.16 28.1467 2.32 28.2533 2.48 28.28C2.64 28.3333 2.78667 28.4267 2.92 28.56C2.94667 28.56 2.96 28.5867 2.96 28.64C2.96 28.72 2.88 28.7867 2.72 28.84C2.56 28.92 2.44 28.96 2.36 28.96ZM32.4384 26.72C32.2251 26.72 32.1184 26.6133 32.1184 26.4C32.1184 26.4 32.1184 26.3867 32.1184 26.36C32.1184 26.36 32.1318 26.3467 32.1584 26.32C32.3718 25.8667 32.5184 25.4133 32.5984 24.96C32.6784 24.48 32.7318 23.96 32.7584 23.4C32.8118 23.16 32.9318 23.0533 33.1184 23.08C33.1718 22.6533 33.3051 21.92 33.5184 20.88C33.7318 19.84 33.9718 18.6267 34.2384 17.24C34.5318 15.8267 34.8251 14.36 35.1184 12.84C35.4384 11.32 35.7318 9.88 35.9984 8.52C36.2651 7.13333 36.4784 5.94667 36.6384 4.96C36.7984 3.97333 36.8784 3.32 36.8784 3C36.7451 2.92 36.3984 2.86667 35.8384 2.84C35.2784 2.81333 34.6384 2.8 33.9184 2.8C33.1184 2.8 32.2918 2.81333 31.4384 2.84C30.5851 2.86667 29.8118 2.89333 29.1184 2.92C28.4518 2.92 27.9718 2.92 27.6784 2.92C27.4651 2.92 27.3584 2.81333 27.3584 2.6C27.3584 2.28 27.5718 2.08 27.9984 2C28.4251 1.89333 28.7318 1.82667 28.9184 1.8C29.3184 1.77333 29.9451 1.76 30.7984 1.76C31.6518 1.73333 32.5851 1.72 33.5984 1.72C34.6118 1.69333 35.5584 1.68 36.4384 1.68C37.3451 1.68 38.0251 1.68 38.4784 1.68H47.4384C47.6518 1.68 47.7584 1.76 47.7584 1.92C47.7584 2.16 47.6118 2.36 47.3184 2.52C47.0518 2.65333 46.8251 2.73333 46.6384 2.76C46.4518 2.78667 46.1851 2.81333 45.8384 2.84C45.5184 2.86667 45.1718 2.88 44.7984 2.88C44.2651 2.88 43.6384 2.86667 42.9184 2.84C42.1984 2.81333 41.5318 2.8 40.9184 2.8C40.4651 2.8 40.0651 2.81333 39.7184 2.84C39.3984 2.86667 39.1718 2.92 39.0384 3C38.8251 3.85333 38.5718 4.92 38.2784 6.2C37.9851 7.48 37.6784 8.85333 37.3584 10.32C37.0384 11.76 36.7318 13.1867 36.4384 14.6C36.1718 16.0133 35.9184 17.2933 35.6784 18.44C35.4651 19.5867 35.2918 20.48 35.1584 21.12C34.9718 22.1333 34.8251 23.1067 34.7184 24.04C34.6384 24.9467 34.5984 25.52 34.5984 25.76C34.5984 25.8667 34.4651 25.9733 34.1984 26.08C33.9318 26.1867 33.6518 26.28 33.3584 26.36C33.0651 26.44 32.8651 26.4933 32.7584 26.52C32.7051 26.6533 32.5984 26.72 32.4384 26.72Z" fill="#09953D"/>
</svg>
