<svg width="183" height="32" viewBox="0 0 183 32" fill="none" xmlns="http://www.w3.org/2000/svg">
<g filter="url(#filter0_d_1_4)">
<path d="M16.472 23.192C14.7653 23.192 13.1867 22.9147 11.736 22.36C10.3067 21.784 9.05867 20.984 7.992 19.96C6.94667 18.936 6.12533 17.7307 5.528 16.344C4.952 14.9573 4.664 13.4427 4.664 11.8C4.664 10.1573 4.952 8.64267 5.528 7.256C6.12533 5.86933 6.95733 4.664 8.024 3.64C9.09067 2.616 10.3387 1.82667 11.768 1.272C13.2187 0.695999 14.7973 0.407999 16.504 0.407999C18.2107 0.407999 19.768 0.674665 21.176 1.208C22.6053 1.74133 23.8213 2.552 24.824 3.64L23.352 5.144C22.4133 4.20533 21.3787 3.53333 20.248 3.128C19.1173 2.72267 17.9013 2.52 16.6 2.52C15.2133 2.52 13.9333 2.75467 12.76 3.224C11.608 3.672 10.5947 4.32267 9.72 5.176C8.86667 6.008 8.19467 6.98933 7.704 8.12C7.23467 9.22933 7 10.456 7 11.8C7 13.1227 7.23467 14.3493 7.704 15.48C8.19467 16.6107 8.86667 17.6027 9.72 18.456C10.5947 19.288 11.608 19.9387 12.76 20.408C13.9333 20.856 15.2027 21.08 16.568 21.08C17.848 21.08 19.0533 20.888 20.184 20.504C21.336 20.12 22.392 19.4693 23.352 18.552L24.696 20.344C23.6293 21.2827 22.3813 21.9973 20.952 22.488C19.5227 22.9573 18.0293 23.192 16.472 23.192ZM22.424 20.056V11.8H24.696V20.344L22.424 20.056ZM30.918 23V6.2H33.094V10.776L32.87 9.976C33.3393 8.696 34.1287 7.72533 35.238 7.064C36.3473 6.38133 37.7233 6.04 39.366 6.04V8.248C39.2807 8.248 39.1953 8.248 39.11 8.248C39.0247 8.22667 38.9393 8.216 38.854 8.216C37.0833 8.216 35.6967 8.76 34.694 9.848C33.6913 10.9147 33.19 12.44 33.19 14.424V23H30.918ZM50.4915 23.16C48.7422 23.16 47.2062 22.7973 45.8835 22.072C44.5608 21.3253 43.5262 20.312 42.7795 19.032C42.0328 17.7307 41.6595 16.248 41.6595 14.584C41.6595 12.92 42.0115 11.448 42.7155 10.168C43.4408 8.888 44.4222 7.88533 45.6595 7.16C46.9182 6.41333 48.3262 6.04 49.8835 6.04C51.4622 6.04 52.8595 6.40267 54.0755 7.128C55.3128 7.832 56.2835 8.83467 56.9875 10.136C57.6915 11.416 58.0435 12.8987 58.0435 14.584C58.0435 14.6907 58.0328 14.808 58.0115 14.936C58.0115 15.0427 58.0115 15.16 58.0115 15.288H43.3875V13.592H56.7955L55.8995 14.264C55.8995 13.048 55.6328 11.9707 55.0995 11.032C54.5875 10.072 53.8835 9.32533 52.9875 8.792C52.0915 8.25867 51.0568 7.992 49.8835 7.992C48.7315 7.992 47.6968 8.25867 46.7795 8.792C45.8622 9.32533 45.1475 10.072 44.6355 11.032C44.1235 11.992 43.8675 13.0907 43.8675 14.328V14.68C43.8675 15.96 44.1448 17.0907 44.6995 18.072C45.2755 19.032 46.0648 19.7893 47.0675 20.344C48.0915 20.8773 49.2542 21.144 50.5555 21.144C51.5795 21.144 52.5288 20.9627 53.4035 20.6C54.2995 20.2373 55.0675 19.6827 55.7075 18.936L56.9875 20.408C56.2408 21.304 55.3022 21.9867 54.1715 22.456C53.0622 22.9253 51.8355 23.16 50.4915 23.16ZM69.804 23.16C68.0547 23.16 66.5187 22.7973 65.196 22.072C63.8733 21.3253 62.8387 20.312 62.092 19.032C61.3453 17.7307 60.972 16.248 60.972 14.584C60.972 12.92 61.324 11.448 62.028 10.168C62.7533 8.888 63.7347 7.88533 64.972 7.16C66.2307 6.41333 67.6387 6.04 69.196 6.04C70.7747 6.04 72.172 6.40267 73.388 7.128C74.6253 7.832 75.596 8.83467 76.3 10.136C77.004 11.416 77.356 12.8987 77.356 14.584C77.356 14.6907 77.3453 14.808 77.324 14.936C77.324 15.0427 77.324 15.16 77.324 15.288H62.7V13.592H76.108L75.212 14.264C75.212 13.048 74.9453 11.9707 74.412 11.032C73.9 10.072 73.196 9.32533 72.3 8.792C71.404 8.25867 70.3693 7.992 69.196 7.992C68.044 7.992 67.0093 8.25867 66.092 8.792C65.1747 9.32533 64.46 10.072 63.948 11.032C63.436 11.992 63.18 13.0907 63.18 14.328V14.68C63.18 15.96 63.4573 17.0907 64.012 18.072C64.588 19.032 65.3773 19.7893 66.38 20.344C67.404 20.8773 68.5667 21.144 69.868 21.144C70.892 21.144 71.8413 20.9627 72.716 20.6C73.612 20.2373 74.38 19.6827 75.02 18.936L76.3 20.408C75.5533 21.304 74.6147 21.9867 73.484 22.456C72.3747 22.9253 71.148 23.16 69.804 23.16ZM90.5565 6.04C91.9218 6.04 93.1165 6.30667 94.1405 6.84C95.1858 7.352 95.9965 8.14133 96.5725 9.208C97.1698 10.2747 97.4685 11.6187 97.4685 13.24V23H95.1965V13.464C95.1965 11.6933 94.7485 10.36 93.8525 9.464C92.9778 8.54667 91.7405 8.088 90.1405 8.088C88.9458 8.088 87.9005 8.33333 87.0045 8.824C86.1298 9.29333 85.4472 9.98667 84.9565 10.904C84.4872 11.8 84.2525 12.888 84.2525 14.168V23H81.9805V6.2H84.1565V10.808L83.8045 9.944C84.3378 8.728 85.1912 7.77867 86.3645 7.096C87.5378 6.392 88.9352 6.04 90.5565 6.04Z" fill="#EBD000"/>
<path d="M116.812 23V2.648H108.941V0.599998H127.053V2.648H119.181V23H116.812ZM135.454 23.16C133.832 23.16 132.371 22.7973 131.07 22.072C129.79 21.3253 128.776 20.312 128.03 19.032C127.283 17.7307 126.91 16.248 126.91 14.584C126.91 12.8987 127.283 11.416 128.03 10.136C128.776 8.856 129.79 7.85333 131.07 7.128C132.35 6.40267 133.811 6.04 135.454 6.04C137.118 6.04 138.59 6.40267 139.87 7.128C141.171 7.85333 142.184 8.856 142.91 10.136C143.656 11.416 144.03 12.8987 144.03 14.584C144.03 16.248 143.656 17.7307 142.91 19.032C142.184 20.312 141.171 21.3253 139.87 22.072C138.568 22.7973 137.096 23.16 135.454 23.16ZM135.454 21.144C136.67 21.144 137.747 20.8773 138.686 20.344C139.624 19.7893 140.36 19.0213 140.894 18.04C141.448 17.0373 141.726 15.8853 141.726 14.584C141.726 13.2613 141.448 12.1093 140.894 11.128C140.36 10.1467 139.624 9.38933 138.686 8.856C137.747 8.30133 136.68 8.024 135.486 8.024C134.291 8.024 133.224 8.30133 132.286 8.856C131.347 9.38933 130.6 10.1467 130.046 11.128C129.491 12.1093 129.214 13.2613 129.214 14.584C129.214 15.8853 129.491 17.0373 130.046 18.04C130.6 19.0213 131.347 19.7893 132.286 20.344C133.224 20.8773 134.28 21.144 135.454 21.144ZM155.612 23.16C154.183 23.16 152.935 22.8933 151.868 22.36C150.801 21.8267 149.969 21.0267 149.372 19.96C148.796 18.8933 148.508 17.56 148.508 15.96V6.2H150.78V15.704C150.78 17.496 151.217 18.8507 152.092 19.768C152.988 20.664 154.236 21.112 155.836 21.112C157.009 21.112 158.023 20.8773 158.876 20.408C159.751 19.9173 160.412 19.2133 160.86 18.296C161.329 17.3787 161.564 16.28 161.564 15V6.2H163.836V23H161.66V18.392L162.012 19.224C161.479 20.4613 160.647 21.432 159.516 22.136C158.407 22.8187 157.105 23.16 155.612 23.16ZM170.168 23V6.2H172.344V10.776L172.12 9.976C172.589 8.696 173.379 7.72533 174.488 7.064C175.597 6.38133 176.973 6.04 178.616 6.04V8.248C178.531 8.248 178.445 8.248 178.36 8.248C178.275 8.22667 178.189 8.216 178.104 8.216C176.333 8.216 174.947 8.76 173.944 9.848C172.941 10.9147 172.44 12.44 172.44 14.424V23H170.168Z" fill="#FFF2E7"/>
</g>
<defs>
<filter id="filter0_d_1_4" x="0.664001" y="0.408" width="181.952" height="30.784" filterUnits="userSpaceOnUse" color-interpolation-filters="sRGB">
<feFlood flood-opacity="0" result="BackgroundImageFix"/>
<feColorMatrix in="SourceAlpha" type="matrix" values="0 0 0 0 0 0 0 0 0 0 0 0 0 0 0 0 0 0 127 0" result="hardAlpha"/>
<feOffset dy="4"/>
<feGaussianBlur stdDeviation="2"/>
<feComposite in2="hardAlpha" operator="out"/>
<feColorMatrix type="matrix" values="0 0 0 0 0 0 0 0 0 0 0 0 0 0 0 0 0 0 0.25 0"/>
<feBlend mode="normal" in2="BackgroundImageFix" result="effect1_dropShadow_1_4"/>
<feBlend mode="normal" in="SourceGraphic" in2="effect1_dropShadow_1_4" result="shape"/>
</filter>
</defs>
</svg>
