<svg width="1600" height="881" viewBox="0 0 1600 881" fill="none" xmlns="http://www.w3.org/2000/svg">
<g clip-path="url(#clip0_1_2)">
<path d="M1587.56 879.997H12.4444C5.57156 879.997 0 875.403 0 869.737V10.7817C0 5.11498 5.57156 0.521179 12.4444 0.521179H1587.56C1594.43 0.521179 1600 5.11498 1600 10.7817V869.737C1600 875.403 1594.43 879.997 1587.56 879.997Z" fill="url(#paint0_linear_1_2)"/>
<path d="M1192.1 142.325C969.205 142.234 697.522 259.489 662.083 547.52C637.18 749.92 536.825 839.216 443.939 880H1587.56C1594.43 880 1600 875.406 1600 869.739V228.748C1504.7 181.585 1362.02 142.395 1192.1 142.325Z" fill="#032222"/>
<path d="M708.974 303.893C742.767 303.893 770.162 281.306 770.162 253.444C770.162 225.581 742.767 202.994 708.974 202.994C675.181 202.994 647.787 225.581 647.787 253.444C647.787 281.306 675.181 303.893 708.974 303.893Z" fill="#032222"/>
<path d="M834.631 230.425C834.631 240.26 824.963 248.231 813.035 248.231C801.106 248.231 791.438 240.26 791.438 230.425C791.438 220.589 801.106 212.618 813.035 212.618C824.963 212.618 834.631 220.592 834.631 230.425Z" fill="#032222"/>
<path d="M643.986 428.756C643.986 433.842 638.983 437.967 632.814 437.967C626.645 437.967 621.643 433.842 621.643 428.756C621.643 423.669 626.645 419.545 632.814 419.545C638.983 419.545 643.986 423.669 643.986 428.756Z" fill="#032222"/>
<mask id="mask0_1_2" style="mask-type:luminance" maskUnits="userSpaceOnUse" x="112" y="51" width="1819" height="1533">
<path d="M1923.87 824.121L542.785 1581.47C536.759 1584.78 529.665 1583.43 526.94 1578.46L113.934 825.316C111.209 820.347 113.885 813.64 119.911 810.335L1501 52.9814C1507.02 49.6781 1514.12 51.0279 1516.84 55.9966L1929.85 809.142C1932.57 814.111 1929.9 820.818 1923.87 824.121Z" fill="white"/>
</mask>
<g mask="url(#mask0_1_2)">
<path d="M1628.1 234.06L1632.74 232.003L1626.16 230.483C1622.6 223.641 1619.73 216.487 1617.13 208.911L1621.36 207.823L1616.18 206.108C1614.4 200.733 1612.71 195.145 1610.98 189.304L1615.83 189.402L1610.49 187.64C1608.14 179.657 1605.69 171.204 1602.75 162.181C1602.75 162.181 1614.31 174.288 1625.95 191.649L1624.05 196.907L1627.03 193.286C1630.68 198.813 1634.28 204.841 1637.51 211.151L1635.02 218.044L1639.42 214.972C1642.75 221.952 1645.55 229.218 1647.38 236.496L1644.77 243.682L1648.4 241.148C1649.63 247.657 1650.01 254.129 1649.18 260.381C1639.99 251.952 1633.33 243.278 1628.1 234.06Z" fill="#001514"/>
<path d="M1596.73 227.31L1600.6 225.822L1595.37 224.266C1592.87 218.455 1590.95 212.415 1589.25 206.043L1592.74 205.339L1588.65 203.688C1587.5 199.17 1586.45 194.479 1585.39 189.568L1589.29 189.875L1585.08 188.175C1583.62 181.48 1582.1 174.388 1580.23 166.8C1580.23 166.8 1588.91 177.325 1597.37 192.189L1595.53 196.445L1598.15 193.591C1600.79 198.321 1603.37 203.463 1605.64 208.813L1603.23 214.399L1606.96 212.065C1609.27 217.98 1611.13 224.103 1612.2 230.196L1609.69 236.011L1612.77 234.08C1613.4 239.513 1613.34 244.877 1612.33 250C1605.36 242.624 1600.44 235.161 1596.73 227.31Z" fill="#001514"/>
<path d="M1569.33 216.591L1563.24 214.212C1562.15 210.836 1561.3 207.376 1560.56 203.709L1564.26 203.094L1559.95 200.674C1559.3 197.209 1558.69 193.538 1557.98 189.603L1561.21 190.03L1557.52 187.063C1556.53 181.691 1555.36 175.806 1553.7 169.198C1553.7 169.198 1561.12 177.598 1568.18 190.119L1566.41 193.469L1569.2 191.975C1571.38 195.989 1573.48 200.384 1575.28 205.025L1573.28 208.54L1576.19 207.469C1579.92 217.934 1581.96 229.517 1579.76 240.829C1571.81 232.497 1567.34 225.196 1564.44 217.626L1569.33 216.591Z" fill="#001514"/>
<path d="M1543.13 205.516L1539.44 204.53C1536.88 198.086 1534.73 191.405 1533.43 185.55L1535.16 185.053L1533.21 184.483C1532.37 180.36 1531.96 176.69 1532.18 173.883C1535 176.992 1537.62 180.584 1540.01 184.433L1538.39 188.333L1541.02 186.119C1542.77 189.071 1544.36 192.153 1545.8 195.288L1544.57 199.081L1546.88 197.735C1548 200.368 1549.02 203.013 1549.9 205.625L1547.85 208.673L1550.54 207.546C1553.28 216.201 1554.57 224.318 1553.97 229.981C1549.63 225.935 1544.48 216.723 1540.28 206.606L1543.13 205.516Z" fill="#001514"/>
<path d="M1663.16 292.229L1652.67 291.316C1647.18 294.815 1641.88 298.586 1636.46 302.665L1640.3 305.789L1631.99 306.062C1626.92 309.959 1621.65 314.127 1615.96 318.573L1620.5 320.105L1612.27 321.444C1604.46 327.502 1595.79 334.069 1585.62 341.233C1585.62 341.233 1605.14 335.504 1629.27 324.412L1631.18 319.124L1632.82 322.758C1640.44 319.152 1648.44 315.022 1656.38 310.393L1658.19 304.755L1660.5 307.936C1677.97 297.297 1694.71 284.187 1705.84 268.732C1685.75 274.035 1671.23 280.271 1658.34 287.836L1663.16 292.229Z" fill="#001514"/>
<path d="M1610.13 266.017L1611.49 270.008L1605.46 267.474C1596.64 270.32 1588 273.768 1579.17 277.659L1581.13 280.744L1575.91 279.106C1569.69 281.902 1563.34 284.9 1556.71 288.063L1560.21 290.64L1554.83 288.96C1545.8 293.273 1536.25 297.863 1525.85 302.592C1525.85 302.592 1545.17 300.429 1569.4 294.62L1572.92 289.889L1571.67 294.068C1579.34 292.181 1587.45 289.929 1595.55 287.272L1600.18 281.056L1600.42 285.621C1609.22 282.552 1617.9 278.991 1625.91 274.872L1630.73 268.405L1630.93 272.172C1637.82 268.28 1644.06 263.94 1649.27 259.103C1635.02 259.971 1622.32 262.41 1610.13 266.017Z" fill="#001514"/>
<path d="M1624.76 290.73L1617.84 288.803C1603.65 295.758 1589.7 303.433 1578.3 310.696L1579.97 312.97L1576.25 312.023C1568.32 317.19 1561.76 322.107 1557.5 326.342C1566.64 324.421 1576.25 321.627 1585.94 318.242L1589.97 311.175L1590.15 316.739C1597.46 314.06 1604.78 311.067 1611.94 307.859L1616.36 301.289L1617.49 305.319C1623.39 302.551 1629.16 299.656 1634.68 296.699L1636.68 290.458L1638.72 294.501C1656.75 284.521 1671.82 274.007 1680.18 265.321C1667.34 267.204 1644.94 275.82 1622.43 286.577L1624.76 290.73Z" fill="#001514"/>
<path d="M1578.8 251.314L1579.26 254.793L1574.91 251.946C1567.54 253.219 1560.23 255.014 1552.7 257.147L1553.78 259.949L1549.92 257.945C1544.61 259.498 1539.16 261.201 1533.48 263.004L1535.84 265.576L1531.87 263.514C1524.11 265.981 1515.92 268.605 1507.02 271.244C1507.02 271.244 1522.53 271.84 1542.45 270.016L1545.94 266.522L1544.31 269.842C1550.63 269.227 1557.34 268.354 1564.11 267.155L1568.69 262.57L1568.19 266.391C1575.57 264.926 1582.93 263.045 1589.85 260.623L1594.62 255.846L1594.21 259.002C1600.21 256.621 1605.79 253.789 1610.61 250.415C1599.27 249.376 1588.93 249.828 1578.8 251.314Z" fill="#001514"/>
<path d="M1548.91 241.641L1543.74 238.042C1539.63 238.653 1535.52 239.483 1531.24 240.47L1532.15 243.538L1527.7 241.307C1523.67 242.285 1519.43 243.377 1514.87 244.522L1516.71 246.788L1511.93 245.252C1505.7 246.789 1498.83 248.403 1490.97 249.958C1490.97 249.958 1503.21 252.005 1519.77 252.022L1522.65 249.261L1522.21 252.014C1527.48 251.955 1533.13 251.677 1538.92 251.066L1541.87 248.06L1541.95 250.721C1554.87 249.096 1568.26 245.716 1579.57 239.25C1567.18 236.772 1557.37 236.488 1547.94 237.507L1548.91 241.641Z" fill="#001514"/>
<path d="M1524.09 229.326L1521.73 226.721C1513.72 226.913 1505.61 227.52 1498.7 228.521L1498.74 230.065L1497.44 228.71C1492.61 229.459 1488.41 230.414 1485.39 231.559C1489.8 232.728 1494.67 233.577 1499.75 234.139L1503.49 231.504L1501.96 234.368C1505.82 234.731 1509.78 234.936 1513.73 234.994L1517.49 232.704L1516.81 235.009C1520.11 234.994 1523.38 234.884 1526.56 234.684L1529.21 231.99L1528.9 234.519C1539.4 233.702 1548.81 231.915 1554.84 229.48C1548.88 227.417 1536.92 226.519 1524.3 226.676L1524.09 229.326Z" fill="#001514"/>
<path d="M1804.75 265.957C1779.95 268.312 1755.23 268.69 1730.88 267.493C1706.52 266.28 1682.5 263.492 1659.03 259.269C1612.09 250.805 1567.23 236.676 1526.23 216.878C1566.42 237.779 1610.79 253.153 1657.56 262.893C1680.96 267.749 1704.99 271.181 1729.48 273.021C1753.97 274.852 1778.93 275.101 1804.2 273.314L1804.75 265.957Z" fill="#001514"/>
<path d="M1665.03 602.913L1658.05 598.564C1652.73 599.565 1647.42 600.859 1641.9 602.358L1643.28 606.254L1637.32 603.628C1632.13 605.101 1626.68 606.728 1620.8 608.444L1623.35 611.26L1617.01 609.544C1608.98 611.857 1600.12 614.296 1589.97 616.715C1589.97 616.715 1606.09 618.688 1627.68 617.826L1631.25 614.121L1630.87 617.674C1637.74 617.319 1645.1 616.658 1652.61 615.565L1656.26 611.537L1656.54 614.955C1673.28 612.175 1690.54 607.112 1704.88 598.183C1688.54 595.664 1675.73 595.826 1663.5 597.637L1665.03 602.913Z" fill="#001514"/>
<path d="M1631.84 588.412L1628.57 585.197C1618.14 585.871 1607.6 587.086 1598.64 588.745L1598.82 590.725L1597.03 589.053C1590.76 590.282 1585.36 591.725 1581.49 593.363C1587.32 594.635 1593.74 595.458 1600.39 595.912L1605.1 592.325L1603.29 596.083C1608.35 596.345 1613.53 596.392 1618.69 596.257L1623.45 593.112L1622.71 596.112C1627.01 595.914 1631.27 595.601 1635.42 595.169L1638.69 591.569L1638.46 594.831C1652.11 593.219 1664.27 590.419 1671.99 586.959C1664.06 584.629 1648.41 584.114 1631.95 584.992L1631.84 588.412Z" fill="#001514"/>
<path d="M1619.49 940.792L1607.12 940.257C1602.99 935.489 1599.23 930.444 1595.51 925.035L1601.68 922.093L1592.46 920.535C1589.04 915.39 1585.55 909.905 1581.74 904.035L1587.76 902.991L1579.27 900.253C1574.02 892.259 1568.09 883.555 1560.84 873.956C1560.84 873.956 1579.49 883.334 1600.18 899.441L1599.23 905.689L1603.21 901.836C1609.69 907.044 1616.29 912.888 1622.51 919.298L1621.24 925.928L1625.71 922.686C1639.17 937.289 1650.34 954.568 1653.81 973.658C1634.28 964.675 1621.57 955.48 1611.48 945.02L1619.49 940.792Z" fill="#001514"/>
<path d="M1538.85 984.786L1544.22 980.168L1534.19 981.206C1525.46 974.302 1517.53 966.704 1509.74 958.465L1515.08 955.238L1506.89 955.411C1501.45 949.542 1496.04 943.35 1490.43 936.871L1497.27 934.844L1488.84 935.027C1481.18 926.171 1473.12 916.777 1464.08 906.885C1464.08 906.885 1486.89 916.76 1512.68 933.123L1512.89 940.492L1515.09 934.67C1523.21 939.91 1531.55 945.784 1539.52 952.171L1539.8 961.838L1544.27 956.077C1552.75 963.253 1560.65 971.013 1567.18 979.239L1567.46 989.308L1571.16 984.547C1576.44 992.076 1580.5 999.943 1582.76 1008.06C1565.27 1001.7 1551.21 993.9 1538.85 984.786Z" fill="#001514"/>
<path d="M1569.46 946.116L1559.06 948.011C1544.27 937.324 1530.21 925.695 1519.32 914.876L1522.92 911.998L1517.37 912.899C1509.86 905.217 1504.05 898.002 1500.9 891.923C1511.95 895.383 1523.14 900.055 1534.07 905.533L1535.22 915.372L1538.79 907.951C1546.96 912.243 1554.95 916.961 1562.61 921.958L1564.57 931.169L1568.5 925.896C1574.74 930.177 1580.71 934.606 1586.33 939.104L1585.26 947.645L1590.4 942.439C1608.54 957.54 1622.38 973.077 1628.34 985.503C1612.31 981.728 1587.54 968.016 1563.88 951.436L1569.46 946.116Z" fill="#001514"/>
<path d="M1602.66 810.867C1578.8 790.781 1569.92 756.83 1568.24 728.975C1566.03 692.072 1559.94 669.504 1552.79 652.952C1572.73 655.941 1599.23 656.881 1641.08 651.778C1672.67 647.929 1712.48 649.102 1739.55 665.776C1768.26 683.45 1782.8 707.955 1791.88 738.49C1799.73 764.956 1795.64 801.572 1797.83 829.661C1797.87 829.69 1797.9 829.719 1797.94 829.751C1797.91 829.752 1797.87 829.759 1797.84 829.763C1797.83 829.798 1797.84 829.829 1797.84 829.864C1797.8 829.835 1797.76 829.804 1797.72 829.775C1765.77 833.234 1725.43 843.704 1694.24 841.977C1658.22 839.985 1627.95 832.162 1602.66 810.867Z" fill="url(#paint1_linear_1_2)"/>
<path opacity="0.15" d="M1552.78 652.95C1572.73 655.939 1599.22 656.876 1641.07 651.78C1672.67 647.926 1712.47 649.105 1739.55 665.773C1768.26 683.447 1782.79 707.952 1791.87 738.492C1799.73 764.953 1795.64 801.569 1797.82 829.664C1797.86 829.688 1797.9 829.719 1797.94 829.748C1797.9 829.754 1797.87 829.759 1797.83 829.765L1552.78 652.95Z" fill="black"/>
<path d="M1599.08 708.962L1641.31 717.585L1648.32 720.835L1650.09 722.434L1599.08 708.962Z" fill="url(#paint2_linear_1_2)"/>
<path d="M1592.71 680.707L1838.96 850.645L1829.09 861.109L1592.71 680.707Z" fill="url(#paint3_linear_1_2)"/>
<path d="M1590.32 812.468L1596.24 809.574L1587.55 807.968C1582.46 799.365 1578.24 790.32 1574.33 780.72L1579.79 779.101L1572.91 777.173C1570.24 770.356 1567.67 763.262 1565.04 755.84L1571.35 755.714L1564.29 753.728C1560.69 743.593 1556.93 732.859 1552.5 721.416C1552.5 721.416 1568.39 736.359 1584.73 758.057L1582.59 764.915L1586.25 760.102C1591.36 767.017 1596.47 774.566 1601.11 782.501L1598.3 791.504L1603.83 787.321C1608.64 796.116 1612.78 805.303 1615.64 814.566L1612.71 823.942L1617.28 820.491C1619.32 828.789 1620.23 837.094 1619.57 845.176C1607 834.839 1597.74 824.04 1590.32 812.468Z" fill="#001514"/>
<path d="M1629.39 792.986L1620.11 791.19C1612.56 776.073 1605.99 760.325 1601.68 746.425L1605.83 744.963L1600.93 743.901C1598.04 734.111 1596.35 725.336 1596.34 718.548C1603.89 725.599 1611.04 733.829 1617.65 742.724L1614.43 752.362L1620.48 746.618C1625.33 753.459 1629.86 760.635 1634 767.954L1631.71 777.277L1637.13 773.679C1640.42 779.838 1643.42 786.051 1646.11 792.2L1641.63 799.855L1648.02 796.736C1656.44 817.142 1661.18 836.488 1660.79 850.203C1649.31 841.155 1634.89 819.764 1622.6 796.065L1629.39 792.986Z" fill="#001514"/>
<path d="M1548.94 805.471L1553.9 803.347L1546.96 801.63C1543.31 794.294 1540.4 786.635 1537.78 778.53L1542.29 777.438L1536.83 775.535C1535.04 769.789 1533.36 763.813 1531.64 757.562L1536.76 757.747L1531.15 755.787C1528.8 747.255 1526.36 738.218 1523.41 728.565C1523.41 728.565 1535.45 741.627 1547.45 760.288L1545.33 765.854L1548.57 762.041C1552.32 767.985 1556.04 774.45 1559.34 781.213L1556.57 788.521L1561.28 785.32C1564.68 792.8 1567.52 800.573 1569.31 808.353L1566.42 815.962L1570.31 813.318C1571.5 820.267 1571.77 827.169 1570.79 833.805C1561.2 824.697 1554.3 815.363 1548.94 805.471Z" fill="#001514"/>
<path d="M1512.48 793.163L1504.37 790.429C1502.73 786.154 1501.39 781.746 1500.18 777.073L1504.97 776.08L1499.19 773.197C1498.11 768.774 1497.06 764.094 1495.89 759.066L1500.13 759.44L1495.12 755.826C1493.48 748.97 1491.56 741.464 1488.96 733.059C1488.96 733.059 1499.19 743.462 1509.23 759.186L1507.14 763.589L1510.69 761.513C1513.8 766.555 1516.82 772.097 1519.48 777.967L1517.1 782.589L1520.84 781.057C1526.39 794.311 1529.81 809.096 1527.7 823.75C1516.78 813.468 1510.46 804.321 1506.16 794.748L1512.48 793.163Z" fill="#001514"/>
<path d="M1477.55 780.328L1472.67 779.259C1468.9 771.105 1465.66 762.633 1463.59 755.174L1465.81 754.44L1463.23 753.818C1461.85 748.566 1461.08 743.865 1461.18 740.25C1465.07 744.099 1468.73 748.571 1472.09 753.394L1470.24 758.491L1473.53 755.501C1476 759.206 1478.28 763.087 1480.36 767.04L1479.01 771.983L1481.94 770.126C1483.58 773.452 1485.07 776.799 1486.4 780.112L1483.92 784.139L1487.35 782.55C1491.5 793.53 1493.72 803.899 1493.31 811.204C1487.37 806.241 1480.06 794.669 1473.91 781.885L1477.55 780.328Z" fill="#001514"/>
<path d="M1683.75 878.82L1687.93 883.087L1678.07 882.774C1667.39 890.383 1657.31 898.635 1647.2 907.529L1651.71 910.404L1643.49 910.822C1636.4 917.154 1629.25 923.797 1621.82 930.754L1628.18 932.298L1619.72 932.733C1609.58 942.238 1598.89 952.314 1587.07 962.962C1587.07 962.962 1612.79 951.319 1643.27 932.911L1645.48 925.455L1646.13 931.174C1655.75 925.285 1665.77 918.746 1675.56 911.715L1678.46 901.93L1681.42 907.423C1691.94 899.556 1702.01 891.139 1710.84 882.359L1713.87 872.164L1716.3 876.704C1723.69 868.714 1729.93 860.473 1734.43 852.104C1715.03 859.805 1698.7 868.712 1683.75 878.82Z" fill="#001514"/>
<path d="M1639.9 885.371L1626.14 884.764C1619.22 889.56 1612.55 894.691 1605.74 900.224L1610.97 904.032L1600.13 904.834C1593.78 910.109 1587.18 915.751 1580.04 921.777L1586.07 923.499L1575.42 925.665C1565.63 933.869 1554.74 942.786 1541.95 952.539C1541.95 952.539 1567.05 944.119 1597.81 928.57L1599.95 921.669L1602.32 926.257C1612.04 921.206 1622.2 915.471 1632.25 909.091L1634.25 901.745L1637.48 905.709C1659.57 891.092 1680.54 873.344 1694.05 852.873C1668.19 860.775 1649.66 869.566 1633.33 879.986L1639.9 885.371Z" fill="#001514"/>
<path d="M1568.97 854.52L1571 859.578L1562.97 856.643C1551.64 860.781 1540.61 865.676 1529.33 871.151L1532.11 875.008L1525.18 873.187C1517.25 877.112 1509.15 881.314 1500.73 885.728L1505.46 888.859L1498.33 886.979C1486.83 893.014 1474.68 899.421 1461.41 906.061C1461.41 906.061 1486.47 902.247 1517.71 893.481L1522 887.203L1520.64 892.65C1530.52 889.811 1540.95 886.477 1551.35 882.627L1556.98 874.391L1557.6 880.246C1568.87 875.829 1579.97 870.778 1590.15 865.057L1596.01 856.479L1596.53 861.311C1605.25 855.939 1613.12 850.02 1619.6 843.52C1601.06 845.406 1584.64 849.225 1568.97 854.52Z" fill="#001514"/>
<path d="M1589.69 885.503L1580.53 883.401C1562.48 893.104 1544.77 903.72 1530.39 913.67L1532.71 916.502L1527.79 915.488C1517.79 922.553 1509.56 929.224 1504.29 934.896C1516.07 931.94 1528.43 927.83 1540.86 922.958L1545.65 913.655L1546.25 920.799C1555.61 916.967 1564.97 912.722 1574.11 908.213L1579.43 899.534L1581.17 904.646C1588.7 900.774 1596.02 896.747 1603.04 892.639L1605.25 884.511L1608.16 889.601C1631.04 875.804 1650.01 861.473 1660.34 849.858C1643.72 852.966 1615.06 865.253 1586.39 880.286L1589.69 885.503Z" fill="#001514"/>
<path d="M1527.12 837.297L1527.95 841.743L1522.08 838.316C1512.55 840.347 1503.13 843.05 1493.44 846.197L1495.04 849.74L1489.88 847.369C1483.04 849.65 1476.04 852.134 1468.76 854.755L1472 857.941L1466.68 855.503C1456.73 859.086 1446.2 862.903 1434.77 866.774C1434.77 866.774 1455.04 866.709 1480.92 863.294L1485.24 858.614L1483.35 862.964C1491.55 861.831 1500.25 860.355 1509 858.449L1514.68 852.307L1514.27 857.246C1523.8 854.975 1533.3 852.153 1542.16 848.668L1548.07 842.271L1547.74 846.347C1555.41 842.967 1562.49 839.031 1568.57 834.434C1553.71 833.707 1540.24 834.842 1527.12 837.297Z" fill="#001514"/>
<path d="M1487.48 826.461L1480.51 822.107C1475.18 823.108 1469.87 824.403 1464.35 825.901L1465.73 829.797L1459.78 827.171C1454.59 828.644 1449.14 830.271 1443.26 831.987L1445.81 834.803L1439.46 833.087C1431.43 835.401 1422.57 837.84 1412.42 840.26C1412.42 840.26 1428.54 842.233 1450.14 841.369L1453.7 837.664L1453.33 841.217C1460.19 840.862 1467.55 840.202 1475.06 839.109L1478.71 835.08L1478.99 838.498C1495.74 835.718 1513 830.655 1527.33 821.726C1511 819.208 1498.19 819.368 1485.95 821.18L1487.48 826.461Z" fill="#001514"/>
<path d="M1454.29 811.96L1451.03 808.74C1440.6 809.414 1430.05 810.626 1421.1 812.288L1421.26 814.272L1419.48 812.6C1413.21 813.828 1407.8 815.275 1403.94 816.909C1409.77 818.179 1416.18 819.005 1422.84 819.459L1427.55 815.868L1425.74 819.63C1430.81 819.888 1435.98 819.94 1441.15 819.8L1445.9 816.655L1445.16 819.655C1449.46 819.462 1453.72 819.145 1457.87 818.717L1461.15 815.113L1460.91 818.38C1474.56 816.767 1486.72 813.966 1494.43 810.507C1486.51 808.177 1470.85 807.661 1454.4 808.54L1454.29 811.96Z" fill="#001514"/>
<path d="M1822.92 844.001C1790.72 848.361 1758.49 850.171 1726.64 849.934C1694.76 849.693 1663.24 847.391 1632.34 843.22C1570.53 834.852 1511.05 819.103 1456.25 795.848C1510.07 820.56 1568.98 837.947 1630.66 847.959C1661.52 852.943 1693.09 856.071 1725.17 857.124C1757.25 858.158 1789.85 857.141 1822.69 853.492L1822.92 844.001Z" fill="#001514"/>
<path d="M1750.65 298.832C1726.24 318.037 1692.19 326.376 1665.55 328.912C1630.26 332.273 1607.59 337.958 1590.35 344.179C1597.75 328.744 1604.73 308.373 1609.55 276.492C1613.18 252.423 1623.44 221.828 1645.38 200.308C1668.64 177.485 1695.09 165.23 1725.95 156.899C1752.7 149.682 1786.26 151.182 1813.24 148.245C1813.28 148.212 1813.32 148.18 1813.35 148.15C1813.35 148.176 1813.35 148.205 1813.34 148.235C1813.37 148.231 1813.41 148.23 1813.44 148.226C1813.4 148.26 1813.36 148.294 1813.33 148.322C1809.24 172.684 1809.84 203.157 1801.03 227.174C1790.87 254.892 1776.54 278.468 1750.65 298.832Z" fill="url(#paint4_linear_1_2)"/>
<path opacity="0.15" d="M1590.35 344.177C1597.75 328.741 1604.73 308.371 1609.55 276.492C1613.18 252.423 1623.44 221.828 1645.38 200.308C1668.64 177.485 1695.09 165.23 1725.95 156.899C1752.7 149.682 1786.26 151.182 1813.24 148.245C1813.28 148.212 1813.32 148.18 1813.35 148.15C1813.35 148.176 1813.35 148.205 1813.34 148.235L1590.35 344.177Z" fill="black"/>
<path d="M1625.68 312.304L1842.48 115.742L1850.07 122.849L1625.68 312.304Z" fill="url(#paint5_linear_1_2)"/>
<path d="M1628.39 889.213L1629.74 893.459L1623.43 890.679C1614.09 893.556 1604.93 897.068 1595.54 901.043L1597.55 904.34L1592.09 902.523C1585.48 905.384 1578.73 908.459 1571.7 911.696L1575.32 914.487L1569.69 912.621C1560.1 917.043 1549.96 921.746 1538.91 926.585C1538.91 926.585 1559.29 924.61 1584.92 918.846L1588.73 913.888L1587.33 918.298C1595.44 916.421 1604.03 914.165 1612.61 911.482L1617.6 904.981L1617.77 909.821C1627.09 906.711 1636.31 903.077 1644.84 898.843L1650.03 892.074L1650.17 896.069C1657.5 892.055 1664.17 887.556 1669.74 882.52C1654.73 883.209 1641.3 885.589 1628.39 889.213Z" fill="url(#paint6_linear_1_2)"/>
<path d="M1637.01 917.463L1630.22 914.532C1614.61 920.192 1599.12 926.641 1586.33 932.976L1587.69 935.618L1584.01 934.139C1575.09 938.665 1567.61 943.1 1562.6 947.095C1572.25 946.188 1582.53 944.411 1592.99 942.007L1598.21 934.952L1597.53 940.928C1605.43 938.987 1613.41 936.703 1621.24 934.176L1626.78 927.703L1627.31 932.151C1633.79 929.934 1640.15 927.564 1646.26 925.095L1649.29 918.67L1650.74 923.253C1670.76 914.847 1687.83 905.495 1697.73 897.258C1684.28 897.656 1660.01 904.053 1635.27 912.729L1637.01 917.463Z" fill="url(#paint7_linear_1_2)"/>
<path d="M1598.86 875.571L1600.21 878.947L1594.86 876.981C1587.3 879.735 1579.93 882.995 1572.41 886.639L1574.25 889.217L1569.64 887.994C1564.33 890.615 1558.93 893.409 1553.31 896.347L1556.46 898.444L1551.71 897.187C1544.03 901.202 1535.92 905.475 1527.06 909.894C1527.06 909.894 1543.79 907.366 1564.63 901.535L1567.5 897.347L1566.58 900.982C1573.18 899.094 1580.14 896.877 1587.08 894.314L1590.85 888.821L1591.26 892.729C1598.78 889.79 1606.18 886.427 1612.99 882.616L1616.9 876.896L1617.24 880.122C1623.07 876.542 1628.32 872.599 1632.64 868.268C1620.27 869.517 1609.32 872.051 1598.86 875.571Z" fill="url(#paint8_linear_1_2)"/>
<path d="M1568.3 867.162L1561.52 865.29C1557.39 867.104 1553.35 869.131 1549.19 871.354L1551.27 873.998L1545.75 873.214C1541.84 875.354 1537.77 877.657 1533.37 880.114L1536.14 881.719L1530.52 881.695C1524.5 885.026 1517.82 888.619 1510.08 892.455C1510.08 892.455 1523.79 890.724 1541.31 885.771L1543.33 882.285L1543.89 885.029C1549.44 883.389 1555.32 881.433 1561.21 879.117L1563.22 875.375L1564.28 877.88C1577.35 872.461 1590.27 865.227 1599.84 855.688C1585.82 857.056 1575.36 859.724 1565.76 863.519L1568.3 867.162Z" fill="url(#paint9_linear_1_2)"/>
<path d="M1538.27 859.729L1534.6 858.263C1526.37 861.442 1518.21 865.036 1511.48 868.544L1512.25 869.922L1510.27 869.184C1505.58 871.684 1501.66 874.119 1499.04 876.293C1504.18 875.696 1509.63 874.634 1515.17 873.239L1517.85 869.448L1517.58 872.612C1521.76 871.49 1525.97 870.187 1530.12 868.755L1532.97 865.267L1533.32 867.613C1536.74 866.362 1540.1 865.031 1543.32 863.654L1544.84 860.219L1545.69 862.621C1556.23 857.938 1565.19 852.788 1570.34 848.314C1563.18 848.688 1550.34 852.362 1537.28 857.244L1538.27 859.729Z" fill="url(#paint10_linear_1_2)"/>
<path d="M1609.51 847.465L1613.28 845.202L1607.29 844.706C1603.18 839.418 1599.63 833.788 1596.25 827.77L1599.8 826.37L1595.02 825.546C1592.67 821.274 1590.38 816.809 1588.03 812.137L1592.29 811.652L1587.36 810.81C1584.14 804.427 1580.77 797.66 1576.89 790.476C1576.89 790.476 1588.78 799.22 1601.49 812.336L1600.59 816.945L1602.68 813.572C1606.68 817.755 1610.71 822.361 1614.46 827.243L1613.26 833.296L1616.67 830.216C1620.6 835.647 1624.1 841.382 1626.76 847.239L1625.5 853.546L1628.32 851.003C1630.35 856.286 1631.6 861.65 1631.79 866.958C1622.51 861.002 1615.42 854.544 1609.51 847.465Z" fill="url(#paint11_linear_1_2)"/>
<path d="M1578.17 836.827L1570.85 836.399C1568.46 833.517 1566.29 830.478 1564.14 827.225L1567.83 825.528L1562.38 824.518C1560.42 821.416 1558.41 818.122 1556.22 814.589L1559.79 814.02L1554.79 812.316C1551.77 807.503 1548.36 802.262 1544.17 796.481C1544.17 796.481 1555.11 802.238 1567.19 812.019L1566.56 815.733L1568.96 813.474C1572.75 816.634 1576.58 820.18 1580.2 824.054L1579.38 827.995L1582.07 826.101C1589.87 834.924 1596.29 845.322 1598.14 856.725C1586.67 851.194 1579.24 845.599 1573.38 839.278L1578.17 836.827Z" fill="url(#paint12_linear_1_2)"/>
<path d="M1547.92 831.117L1543.63 831.608C1537.99 826.733 1532.67 821.487 1528.63 816.668L1530.19 815.569L1527.91 815.787C1525.12 812.372 1523.01 809.202 1521.93 806.58C1526.31 808.338 1530.7 810.6 1534.95 813.196L1535.07 817.331L1536.78 814.339C1539.96 816.36 1543.04 818.554 1545.98 820.854L1546.45 824.751L1548.24 822.663C1550.62 824.623 1552.89 826.642 1555.02 828.674L1554.29 832.205L1556.57 830.178C1563.41 836.988 1568.5 843.856 1570.49 849.206C1564.1 847.18 1554.51 840.757 1545.47 833.176L1547.92 831.117Z" fill="url(#paint13_linear_1_2)"/>
<path d="M1788.61 970.517C1772.87 954.129 1755.23 939.224 1736.3 925.685C1717.35 912.146 1697.1 899.968 1675.83 889.148C1633.26 867.545 1586.62 851.286 1537.19 841.447C1587.12 850.005 1634.64 865.061 1678.34 885.65C1700.19 895.96 1721.08 907.672 1740.75 920.823C1760.4 933.984 1778.84 948.578 1795.48 964.828L1788.61 970.517Z" fill="url(#paint14_linear_1_2)"/>
<path d="M1408.18 913.121C1400.11 911 1394.18 904.577 1390.68 898.804C1386.05 891.154 1382.06 886.905 1378.48 884.028C1383.69 882.866 1390.29 880.678 1399.98 875.823C1407.29 872.158 1417.17 868.819 1425.65 869.925C1434.64 871.097 1440.91 874.998 1446.52 880.676C1451.37 885.596 1454.42 893.754 1458.07 899.531C1458.08 899.534 1458.1 899.536 1458.11 899.538C1458.1 899.544 1458.09 899.549 1458.08 899.552C1458.09 899.56 1458.09 899.565 1458.1 899.573C1458.08 899.57 1458.07 899.568 1458.06 899.565C1450.61 903.18 1441.89 909.042 1434.05 911.487C1425.02 914.306 1416.73 915.372 1408.18 913.121Z" fill="url(#paint15_linear_1_2)"/>
<path opacity="0.15" d="M1378.48 884.028C1383.7 882.864 1390.29 880.678 1399.98 875.823C1407.29 872.158 1417.17 868.819 1425.65 869.925C1434.64 871.097 1440.91 874.998 1446.52 880.676C1451.37 885.596 1454.42 893.754 1458.07 899.531C1458.08 899.534 1458.1 899.536 1458.11 899.538C1458.1 899.544 1458.09 899.547 1458.08 899.552L1378.48 884.028Z" fill="black"/>
<path d="M1422.05 876.829L1443.66 895.691L1448.15 896.492L1422.05 876.829Z" fill="url(#paint16_linear_1_2)"/>
<path d="M1410.4 881.767L1425.09 892.144L1428.13 893.931L1429.54 893.524L1410.4 881.767Z" fill="url(#paint17_linear_1_2)"/>
<path d="M1398.6 882.91L1406.77 888.678L1408.46 889.671L1409.22 889.487L1398.6 882.91Z" fill="url(#paint18_linear_1_2)"/>
<path d="M1391.33 886.334L1470.47 900.286L1469.21 903.402L1391.33 886.334Z" fill="url(#paint19_linear_1_2)"/>
<path d="M1440.15 673.898C1433.32 669.845 1429.71 661.967 1428.16 655.317C1426.11 646.507 1423.67 641.275 1421.19 637.528C1426.35 637.593 1433.07 636.946 1443.43 634.346C1451.25 632.383 1461.35 631.354 1468.85 634.477C1476.82 637.787 1481.48 643.206 1485 650.257C1488.05 656.366 1488.5 665.312 1490.18 672.002C1490.19 672.01 1490.2 672.015 1490.22 672.02C1490.21 672.023 1490.2 672.025 1490.19 672.03C1490.19 672.037 1490.19 672.042 1490.19 672.055C1490.19 672.047 1490.17 672.042 1490.16 672.037C1482.24 673.916 1472.47 677.763 1464.53 678.372C1455.36 679.08 1447.4 678.192 1440.15 673.898Z" fill="url(#paint20_linear_1_2)"/>
<path opacity="0.15" d="M1421.19 637.531C1426.35 637.596 1433.07 636.953 1443.43 634.349C1451.25 632.385 1461.35 631.357 1468.85 634.479C1476.82 637.789 1481.48 643.208 1485 650.259C1488.05 656.369 1488.49 665.32 1490.18 672.009C1490.19 672.012 1490.2 672.018 1490.21 672.028C1490.2 672.031 1490.2 672.028 1490.19 672.033L1421.19 637.531Z" fill="black"/>
<path d="M1463.52 640.59L1477.99 664.725L1481.9 666.593L1463.52 640.59Z" fill="url(#paint21_linear_1_2)"/>
<path d="M1444.44 666.787L1476.75 666.341L1480.66 668.3L1444.44 666.787Z" fill="url(#paint22_linear_1_2)"/>
<path d="M1451.32 642.811L1461.87 656.75L1464.16 659.27L1465.58 659.192L1451.32 642.811Z" fill="url(#paint23_linear_1_2)"/>
<path d="M1441.12 656.82L1460.92 658.054L1464.68 658.554L1465.26 659.638L1441.12 656.82Z" fill="url(#paint24_linear_1_2)"/>
<path d="M1440.1 641.168L1445.96 648.921L1447.24 650.316L1448 650.313L1440.1 641.168Z" fill="url(#paint25_linear_1_2)"/>
<path d="M1435.14 649.488L1446.14 650.176L1448.04 650.729L1448.56 651.058L1435.14 649.488Z" fill="url(#paint26_linear_1_2)"/>
<path d="M1432.39 642.897L1501.41 675.707L1499.34 678.55L1432.39 642.897Z" fill="url(#paint27_linear_1_2)"/>
<path d="M1617.14 617.948C1605.7 611.158 1599.64 597.954 1597.05 586.813C1593.61 572.056 1589.51 563.288 1585.37 557.006C1594 557.115 1605.27 556.037 1622.63 551.673C1635.74 548.376 1652.65 546.663 1665.24 551.895C1678.58 557.441 1686.39 566.523 1692.29 578.335C1697.41 588.577 1698.15 603.571 1700.98 614.779C1700.99 614.789 1701.02 614.795 1701.04 614.806C1701.02 614.813 1701.01 614.813 1700.99 614.82C1700.99 614.83 1700.99 614.847 1701 614.858C1700.98 614.847 1700.96 614.837 1700.94 614.826C1687.66 617.984 1671.31 624.424 1657.99 625.448C1642.62 626.634 1629.29 625.143 1617.14 617.948Z" fill="url(#paint28_linear_1_2)"/>
<path opacity="0.15" d="M1585.37 557.006C1594 557.115 1605.27 556.035 1622.63 551.673C1635.73 548.381 1652.65 546.663 1665.24 551.895C1678.58 557.441 1686.39 566.523 1692.28 578.34C1697.41 588.574 1698.15 603.571 1700.98 614.779C1700.99 614.789 1701.01 614.8 1701.03 614.811C1701.02 614.813 1701 614.818 1700.99 614.82L1585.37 557.006Z" fill="black"/>
<path d="M1559.45 519.557C1552.14 522.118 1543.95 521.158 1537.98 519.427C1530.06 517.138 1524.6 516.53 1520.23 516.534C1523.49 513.394 1527.19 509.012 1531.69 501.607C1535.08 496.016 1540.59 489.412 1547.62 486.067C1555.07 482.518 1562.05 481.844 1569.56 482.528C1576.06 483.117 1583.08 486.45 1589.17 488.112C1589.18 488.108 1589.2 488.101 1589.21 488.096C1589.2 488.103 1589.19 488.113 1589.19 488.116C1589.2 488.121 1589.21 488.124 1589.21 488.124C1589.2 488.129 1589.18 488.136 1589.17 488.141C1585.66 493.757 1582.48 501.295 1577.99 506.412C1572.82 512.323 1567.2 516.842 1559.45 519.557Z" fill="url(#paint29_linear_1_2)"/>
<path opacity="0.15" d="M1520.23 516.536C1523.5 513.397 1527.19 509.015 1531.69 501.609C1535.08 496.02 1540.59 489.415 1547.62 486.069C1555.07 482.521 1562.06 481.847 1569.56 482.53C1576.06 483.12 1583.08 486.453 1589.17 488.115C1589.18 488.11 1589.2 488.103 1589.21 488.098C1589.2 488.106 1589.19 488.116 1589.19 488.119L1520.23 516.536Z" fill="black"/>
<path d="M1548.89 491.807L1576.1 492.651L1579.94 491.008L1548.89 491.807Z" fill="url(#paint30_linear_1_2)"/>
<path d="M1556.76 514.061L1576.54 494.072L1580.45 492.457L1556.76 514.061Z" fill="url(#paint31_linear_1_2)"/>
<path d="M1542.97 500.183L1560.05 499.327L1563.37 498.944L1564.2 498.039L1542.97 500.183Z" fill="url(#paint32_linear_1_2)"/>
<path d="M1547.18 512.083L1560.44 500.438L1563.16 498.333L1564.33 498.415L1547.18 512.083Z" fill="url(#paint33_linear_1_2)"/>
<path d="M1534.75 506.403L1544.24 505.929L1546.09 505.716L1546.56 505.247L1534.75 506.403Z" fill="url(#paint34_linear_1_2)"/>
<path d="M1537.93 512.801L1545.3 506.324L1546.9 505.378L1547.47 505.2L1537.93 512.801Z" fill="url(#paint35_linear_1_2)"/>
<path d="M1531.25 511.833L1598.96 482.711L1599.8 485.129L1531.25 511.833Z" fill="url(#paint36_linear_1_2)"/>
<path d="M1569.59 256.157C1562.28 258.718 1554.09 257.758 1548.12 256.027C1540.2 253.737 1534.74 253.13 1530.37 253.134C1533.63 249.994 1537.33 245.612 1541.83 238.207C1545.22 232.616 1550.73 226.012 1557.76 222.667C1565.21 219.116 1572.19 218.444 1579.7 219.127C1586.2 219.716 1593.22 223.05 1599.31 224.712C1599.32 224.708 1599.34 224.701 1599.35 224.696C1599.34 224.703 1599.33 224.713 1599.33 224.716C1599.34 224.721 1599.35 224.723 1599.35 224.723C1599.34 224.728 1599.33 224.731 1599.32 224.736C1595.8 230.357 1592.62 237.891 1588.13 243.012C1582.96 248.918 1577.34 253.442 1569.59 256.157Z" fill="url(#paint37_linear_1_2)"/>
<path opacity="0.15" d="M1530.37 253.134C1533.63 249.994 1537.33 245.612 1541.83 238.207C1545.22 232.616 1550.73 226.012 1557.76 222.667C1565.21 219.116 1572.19 218.444 1579.7 219.127C1586.2 219.716 1593.22 223.05 1599.31 224.712C1599.32 224.708 1599.34 224.701 1599.35 224.696C1599.34 224.703 1599.33 224.713 1599.33 224.716L1530.37 253.134Z" fill="black"/>
<path d="M1559.04 228.399L1586.24 229.251L1590.08 227.605L1559.04 228.399Z" fill="url(#paint38_linear_1_2)"/>
<path d="M1566.9 250.661L1586.68 230.67L1590.59 229.057L1566.9 250.661Z" fill="url(#paint39_linear_1_2)"/>
<path d="M1553.12 236.778L1570.19 235.924L1573.51 235.541L1574.34 234.632L1553.12 236.778Z" fill="url(#paint40_linear_1_2)"/>
<path d="M1557.32 248.681L1570.58 237.033L1573.3 234.931L1574.47 235.012L1557.32 248.681Z" fill="url(#paint41_linear_1_2)"/>
<path d="M1544.89 243.003L1554.38 242.529L1556.23 242.316L1556.71 241.842L1544.89 243.003Z" fill="url(#paint42_linear_1_2)"/>
<path d="M1548.08 249.397L1555.44 242.924L1557.04 241.978L1557.61 241.797L1548.08 249.397Z" fill="url(#paint43_linear_1_2)"/>
<path d="M1541.4 248.426L1609.1 219.309L1609.95 221.724L1541.4 248.426Z" fill="url(#paint44_linear_1_2)"/>
<path fill-rule="evenodd" clip-rule="evenodd" d="M1462.71 412.324C1468.5 412.042 1472.28 410.62 1474.52 409.66C1474.51 409.659 1474.51 409.652 1474.51 409.646C1473.67 408.826 1473.07 408.083 1472.78 407.442C1475.14 406.682 1476.88 406.691 1479.09 406.672C1479.14 406.696 1479.19 406.715 1479.24 406.742C1479.24 406.734 1479.23 406.726 1479.22 406.726C1478.81 406.396 1479.39 404.044 1479 403.724C1481.3 402.95 1484.84 403.929 1485.07 404.091C1486.23 404.876 1484.83 400.855 1484.94 400.818C1488.35 399.649 1492.68 401.521 1492.68 401.521C1492.68 401.521 1492.42 398.55 1491.83 398.643C1494.3 398.097 1498.12 399.382 1499.23 400.241C1499.34 400.311 1499.41 400.283 1499.46 400.185L1499.6 400.293C1499.74 399.743 1499.57 398.296 1498.93 397.316C1501.74 397.296 1503.84 397.401 1505.85 399.241C1506.14 398.419 1506.65 396.47 1506.42 395.828C1509.48 395.511 1511.79 396.757 1513.92 398.083C1514.41 397.318 1514.72 395.649 1514.62 394.841C1517.25 394.698 1518.96 395.872 1520.77 396.957C1520.8 396.772 1520.85 396.556 1520.91 396.325C1521.09 396.538 1521.27 396.76 1521.45 396.978C1521.29 396.746 1521.13 396.506 1520.96 396.282C1521.23 395.264 1521.89 393.765 1521.59 393.063C1524.28 392.946 1525.89 394.714 1527.81 396.035C1527.93 395.245 1528.9 393.324 1528.73 392.517C1531.32 392.784 1532.44 394.693 1534.37 395.718C1534.34 395.036 1534.86 392.992 1535.7 392.133C1538.1 392.9 1537.95 394.687 1539.86 395.705C1539.87 394.889 1540.83 393.629 1541.04 392.564C1542.54 392.888 1544.18 394.714 1545.25 396.091C1545.56 395.181 1546.64 393.696 1546.34 393.061C1549.43 393.476 1549.62 396.175 1551.4 396.869C1551.24 396.11 1551.74 395.27 1551.83 394.448C1556.37 395.304 1556.02 397.839 1557.45 399.92C1557.33 399.473 1559.54 396.941 1559.41 396.447C1562.18 397.892 1562.62 399.666 1563.35 402.498C1563.56 401.557 1565.28 400.741 1565.35 399.759C1567.91 401.035 1568.09 404.435 1569.42 406.975C1569.43 407.037 1569.46 407.095 1569.47 407.156C1569.58 406.484 1572.65 404.235 1572.74 403.594C1574.43 405.735 1573.75 409.906 1574.93 412.336C1575.02 411.553 1577.41 410.149 1577.8 409.377C1579.74 411.96 1578.19 414.977 1578.97 417.83C1579.26 417.14 1581.81 415.731 1582.11 415.046C1583.04 418.023 1580.91 422.784 1581.25 425.953C1582.04 425.093 1584.24 422.308 1585.53 421.919C1585.68 424.79 1585.67 428.099 1585.35 431.313C1584.73 437.413 1587.45 446.994 1590.27 452.871C1582.87 455.489 1572.14 460.798 1566.96 465.451C1564.23 467.901 1561.19 470.25 1558.44 472.2C1557.88 471.222 1558.89 468.06 1559.12 467.015C1555.97 469.08 1553.09 473.607 1549.7 475.199C1550.11 474.556 1549.61 472.176 1550.03 471.528C1546.86 473.13 1545.18 476.105 1541.43 476.883C1541.87 476.121 1541.47 473.833 1542.12 473.229C1539.05 474.307 1535.7 477.624 1532.52 478.218C1533.06 477.72 1532.95 474.458 1533.49 473.93C1533.42 473.965 1533.36 473.996 1533.29 474.028C1530.01 475.097 1526.76 477.413 1523.77 476.925C1524.62 476.188 1524.16 474.674 1524.88 473.902C1521.76 475.511 1519.81 476.523 1516.52 476.043C1517.06 475.773 1517.83 472.774 1518.32 472.52C1515.41 473.214 1513.33 475.198 1509.32 473.342C1510.01 472.709 1510.43 471.85 1511.24 471.402C1509.34 470.924 1506.73 472.734 1504.16 471.352C1504.96 471.061 1505.56 469.432 1506.18 468.614C1504.15 469.004 1501.31 469.406 1499.94 468.825C1500.78 467.961 1501.26 466.545 1502.01 465.957C1499.72 465.646 1498.17 466.993 1495.77 466.234C1495.97 465.174 1497.48 463.444 1498.13 462.977C1495.82 462.66 1493.27 463.396 1491.19 462.18C1492.06 461.699 1493.14 459.813 1493.78 459.188C1491.2 459.084 1488.44 459.455 1486.65 457.916C1487.49 457.581 1488.41 456.158 1489.16 455.299C1489.49 455.23 1489.82 455.143 1490.15 455.062C1489.83 455.115 1489.5 455.18 1489.16 455.235C1489.34 455.035 1489.5 454.85 1489.65 454.713C1487.37 454.486 1485.08 454.402 1483.35 452.868C1484.16 452.352 1485.48 451.003 1485.84 450.197C1483.11 449.977 1480.33 449.605 1478.46 447.718C1479.21 447.39 1480.65 445.741 1481.2 444.996C1478.09 445.21 1476.5 444.145 1474.52 442.6C1475.88 442.25 1477.34 441.325 1477.74 440.856L1477.55 440.856C1477.61 440.759 1477.57 440.697 1477.43 440.693C1475.86 440.699 1471.97 439.534 1470.73 437.806C1471.06 438.195 1473.97 436.23 1473.97 436.23C1473.97 436.23 1469.19 435.209 1467.85 432.529C1467.81 432.437 1472.5 430.358 1470.95 430.286C1470.64 430.28 1467.24 429.051 1466.33 427.243C1466.9 427.234 1468.65 425.258 1469.25 425.245C1469.25 425.25 1469.26 425.248 1469.27 425.248C1469.21 425.236 1469.16 425.225 1469.1 425.208C1467.56 423.995 1466.32 423.058 1465.35 421.24C1466.14 420.946 1467.25 420.745 1468.6 420.611C1468.6 420.614 1468.62 420.612 1468.62 420.612C1467.92 418.72 1466.55 415.663 1462.71 412.324ZM1538.57 471.487C1536.67 472.44 1535.07 473.155 1533.72 473.82C1534.28 473.58 1536.01 472.828 1538.57 471.487ZM1569.53 407.353C1569.88 408.559 1570.35 409.932 1570.82 411.638C1570.24 409.298 1569.71 407.828 1569.53 407.353Z" fill="url(#paint45_linear_1_2)"/>
<path fill-rule="evenodd" clip-rule="evenodd" d="M1623.7 471.123C1624.19 471.484 1624.18 472.182 1623.7 472.681C1623.22 473.187 1622.43 473.298 1621.95 472.938C1608.05 462.704 1586.85 452.422 1567.58 444.278C1556.09 454.873 1542.15 462.055 1526.76 464.125L1528.1 463.789C1544.01 459.965 1554.68 455.184 1566.7 443.911C1562.63 442.2 1558.66 440.591 1554.87 439.098C1545.32 447.638 1525 454.456 1512.74 455.847C1510.58 456.091 1509.83 456.087 1507.77 455.886C1509.61 455.88 1510.86 455.829 1512.75 455.556C1524.73 453.856 1544.54 447.133 1553.96 438.739C1552.26 438.072 1550.59 437.435 1548.97 436.819C1545.6 435.536 1542.16 434.258 1538.67 433.004C1527.51 440.028 1510.76 445.081 1498.35 446.791L1499.8 446.425C1512.92 443.277 1525.9 440.106 1537.64 432.645C1532.02 430.642 1526.25 428.703 1520.38 426.923C1511.21 432.08 1498.68 438.315 1488.47 439.13C1499.45 437.014 1509.45 432.214 1519.25 426.579C1514.09 425.029 1508.86 423.601 1503.58 422.352C1496.18 425.447 1488.31 427.705 1480.59 429.072C1482.44 428.462 1481.72 428.675 1483.57 428.159C1490.65 426.191 1495.57 424.852 1502.18 422.024C1494.07 420.151 1485.85 418.711 1477.65 417.896L1475.76 417.696C1483.64 417.542 1493.53 419.086 1503.63 421.375C1500.57 416.034 1497.67 412.789 1493.5 408.046C1492.43 406.832 1492.83 407.314 1491.84 406.023C1497.03 410.541 1501.59 415.879 1505.02 421.693C1510.2 422.894 1515.41 424.283 1520.43 425.72C1516.87 417.109 1512.48 409.1 1505.17 402.884C1512.94 407.757 1518.29 418.086 1521.72 426.091C1528.11 427.96 1534.13 429.906 1539.26 431.648C1537.09 420.111 1530.12 411.213 1523.03 402.258L1522.27 401.268C1530.14 408.81 1538.31 421.128 1540.37 432.028C1541.3 432.345 1542.2 432.655 1543.05 432.96C1546.83 434.286 1550.87 435.755 1555.06 437.346C1555.75 426.342 1548.1 411.299 1541.32 403.75C1540.23 402.534 1539.4 401.822 1538.1 400.809C1539.74 401.787 1540.29 402.197 1541.58 403.543C1548.86 411.05 1556.82 426.524 1556.02 437.712C1559.87 439.173 1563.83 440.74 1567.86 442.383C1569.76 427.802 1566.62 418.604 1558.85 407.228L1558.21 406.261C1567.26 416.158 1570.5 428.924 1568.8 442.772C1588.7 450.944 1609.8 461.077 1623.7 471.123ZM1520.39 426.918C1520.02 426.802 1519.64 426.686 1519.26 426.575L1520.39 426.918Z" fill="#316566"/>
<path fill-rule="evenodd" clip-rule="evenodd" d="M1355.05 775.493C1357.21 776.854 1359.02 777.181 1360.12 777.324C1360.12 777.324 1360.12 777.318 1360.12 777.312C1360.08 776.727 1360.1 776.237 1360.2 775.874C1361.28 776.136 1361.9 776.588 1362.7 777.146C1362.71 777.17 1362.72 777.195 1362.74 777.218L1362.73 777.206C1362.69 776.951 1363.64 776.04 1363.6 775.796C1364.67 776.036 1365.63 777.386 1365.66 777.516C1365.83 778.167 1366.59 775.999 1366.65 776.006C1368.24 776.358 1369.2 778.312 1369.2 778.312C1369.2 778.312 1370.05 776.904 1369.8 776.796C1370.86 777.184 1371.83 778.744 1371.96 779.418C1371.97 779.476 1372.01 779.483 1372.05 779.45L1372.07 779.534C1372.3 779.324 1372.69 778.625 1372.77 778.018C1373.79 778.734 1374.51 779.318 1374.65 780.663C1375.01 780.369 1375.81 779.621 1375.93 779.272C1377.13 779.913 1377.56 781.068 1377.91 782.215C1378.33 781.997 1378.96 781.32 1379.18 780.932C1380.17 781.544 1380.41 782.511 1380.72 783.466C1380.79 783.389 1380.88 783.305 1380.97 783.216C1380.97 783.361 1380.96 783.506 1380.96 783.648C1380.98 783.502 1381 783.354 1381.01 783.211C1381.42 782.82 1382.13 782.315 1382.25 781.923C1383.24 782.559 1383.27 783.77 1383.54 784.858C1383.83 784.533 1384.79 783.916 1384.98 783.509C1385.82 784.292 1385.63 785.444 1385.99 786.399C1386.2 786.084 1387.03 785.296 1387.6 785.126C1388.22 786.087 1387.61 786.854 1387.97 787.807C1388.23 787.442 1388.97 787.12 1389.38 786.694C1389.81 787.225 1389.83 788.468 1389.78 789.364C1390.18 789.036 1391.03 788.645 1391.13 788.279C1392.11 789.261 1391.32 790.525 1391.74 791.296C1391.92 790.912 1392.37 790.66 1392.66 790.317C1394.01 791.869 1393.09 792.922 1392.94 794.223C1393.04 793.992 1394.64 793.418 1394.74 793.164C1395.28 794.53 1394.89 795.44 1394.25 796.904C1394.62 796.531 1395.5 796.606 1395.83 796.184C1396.35 797.415 1395.34 798.992 1395.02 800.482C1395.01 800.512 1394.99 800.543 1394.98 800.574C1395.23 800.299 1397.04 800.075 1397.27 799.808C1397.21 801.209 1395.65 802.911 1395.31 804.311C1395.58 803.984 1396.88 803.963 1397.27 803.715C1397.15 805.376 1395.64 806.338 1395.02 807.825C1395.34 807.589 1396.7 807.605 1397.02 807.375C1396.42 808.954 1394.16 810.555 1393.27 812.068C1393.83 811.883 1395.5 811.193 1396.08 811.352C1395.23 812.684 1394.18 814.173 1393.06 815.537C1390.91 818.129 1388.86 823.143 1388.02 826.516C1384.54 825.799 1379.01 825.434 1375.69 826.202C1373.94 826.603 1372.11 826.884 1370.51 827.055C1370.61 826.473 1371.97 825.304 1372.38 824.894C1370.6 825.015 1368.14 826.316 1366.42 826.163C1366.78 825.98 1367.34 824.78 1367.7 824.595C1366.06 824.504 1364.52 825.41 1362.93 824.8C1363.33 824.569 1363.9 823.436 1364.33 823.33C1362.89 823.027 1360.64 823.662 1359.31 823.115C1359.66 823.028 1360.65 821.529 1361.01 821.431C1360.98 821.428 1360.94 821.425 1360.91 821.422C1359.4 821.064 1357.5 821.271 1356.58 820.282C1357.12 820.168 1357.43 819.367 1357.93 819.203C1356.31 819.126 1355.29 819.085 1354.26 818.022C1354.54 818.04 1355.76 816.884 1356.02 816.896C1354.75 816.46 1353.38 816.82 1352.53 814.955C1352.98 814.847 1353.4 814.568 1353.83 814.574C1353.31 813.871 1351.79 814.015 1351.31 812.733C1351.68 812.807 1352.42 812.226 1352.89 812.017C1352.04 811.671 1350.9 811.122 1350.6 810.509C1351.17 810.335 1351.79 809.819 1352.24 809.747C1351.51 809.017 1350.54 809.227 1349.92 808.271C1350.32 807.846 1351.41 807.452 1351.79 807.408C1351.06 806.675 1349.91 806.352 1349.55 805.269C1350.01 805.275 1350.99 804.706 1351.41 804.586C1350.53 803.877 1349.42 803.336 1349.26 802.183C1349.67 802.248 1350.44 801.842 1350.98 801.647C1351.12 801.702 1351.27 801.745 1351.41 801.794C1351.28 801.733 1351.14 801.679 1351 801.62C1351.13 801.574 1351.24 801.531 1351.34 801.511C1350.6 800.824 1349.8 800.195 1349.67 799.06C1350.12 799.034 1351.02 798.769 1351.4 798.496C1350.49 797.695 1349.61 796.814 1349.53 795.485C1349.9 795.532 1350.94 795.154 1351.38 794.96C1350.19 794.258 1349.96 793.369 1349.74 792.166C1350.33 792.358 1351.15 792.313 1351.44 792.204L1351.37 792.152C1351.42 792.125 1351.43 792.087 1351.38 792.048C1350.82 791.648 1349.79 790.125 1349.89 789.027C1349.89 789.287 1351.55 789.148 1351.55 789.148C1351.55 789.148 1350.16 787.462 1350.52 785.908C1350.54 785.857 1352.87 786.12 1352.34 785.693C1352.24 785.608 1351.4 784.182 1351.64 783.135C1351.85 783.278 1353.1 782.837 1353.32 782.984L1353.33 782.991C1353.31 782.969 1353.3 782.952 1353.28 782.928C1353.11 781.986 1352.96 781.243 1353.18 780.176C1353.56 780.243 1354.02 780.442 1354.55 780.727C1354.55 780.727 1354.55 780.729 1354.56 780.734C1354.9 779.715 1355.37 777.985 1355.05 775.493ZM1363.6 821.633C1362.62 821.572 1361.82 821.485 1361.12 821.436C1361.41 821.476 1362.26 821.581 1363.6 821.633ZM1394.93 800.675C1394.68 801.311 1394.41 802.048 1394.05 802.938C1394.58 801.738 1394.85 800.936 1394.93 800.675Z" fill="url(#paint46_linear_1_2)"/>
<path fill-rule="evenodd" clip-rule="evenodd" d="M1394.26 843.321C1394.32 843.609 1394.1 843.922 1393.77 844.025C1393.44 844.126 1393.12 843.975 1393.06 843.69C1391.3 835.508 1386.94 825.433 1382.59 816.817C1375.13 818.643 1367.87 818.299 1361.69 815.281L1362.28 815.474C1369.19 817.835 1374.53 818.417 1382.39 816.423C1381.47 814.61 1380.56 812.864 1379.67 811.217C1373.55 812.614 1364.11 810.47 1359.28 807.951C1358.43 807.509 1358.15 807.312 1357.48 806.69C1358.15 807.161 1358.61 807.459 1359.37 807.822C1364.21 810.129 1373.43 812.186 1379.46 810.82C1379.06 810.083 1378.66 809.368 1378.28 808.675C1377.47 807.231 1376.64 805.774 1375.79 804.313C1369.57 804.615 1361.97 802.589 1356.98 800.176L1357.61 800.382C1363.31 802.332 1368.97 804.234 1375.54 803.887C1374.15 801.54 1372.69 799.188 1371.15 796.878C1366.23 796.847 1359.77 796.438 1355.85 794.187C1360.46 796.051 1365.56 796.455 1370.85 796.432C1369.49 794.409 1368.06 792.422 1366.56 790.503C1362.93 790.002 1359.4 788.995 1356.2 787.632C1357.05 787.834 1356.73 787.744 1357.55 787.986C1360.71 788.916 1362.9 789.576 1366.16 789.996C1363.84 787.068 1361.35 784.312 1358.67 781.838L1358.05 781.264C1360.92 783.217 1363.99 786.451 1366.89 790.076C1367.47 786.879 1367.46 784.675 1367.46 781.465C1367.46 780.643 1367.45 780.965 1367.5 780.127C1367.94 783.496 1367.89 787.072 1367.29 790.572C1368.77 792.445 1370.2 794.407 1371.54 796.343C1372.98 791.549 1373.93 786.812 1373.27 782.134C1374.52 786.325 1373.18 792.351 1371.89 796.841C1373.59 799.325 1375.14 801.746 1376.43 803.848C1379.29 798.092 1379.6 792.293 1379.88 786.435L1379.92 785.794C1380.36 791.213 1379.41 798.862 1376.71 804.303C1376.94 804.684 1377.17 805.053 1377.38 805.411C1378.31 806.981 1379.3 808.678 1380.3 810.469C1384.02 805.689 1386.01 796.944 1385.97 791.801C1385.96 790.973 1385.89 790.438 1385.74 789.648C1386.02 790.509 1386.08 790.835 1386.12 791.775C1386.36 797.027 1384.34 806.045 1380.53 810.883C1381.44 812.53 1382.37 814.25 1383.3 816.026C1388.58 809.943 1390.35 804.991 1391.15 797.871L1391.23 797.27C1391.36 804.055 1388.49 810.638 1383.52 816.443C1388.06 825.243 1392.44 835.226 1394.26 843.321ZM1371.14 796.881C1371.04 796.73 1370.94 796.582 1370.84 796.434L1371.14 796.881Z" fill="#316566"/>
</g>
</g>
<defs>
<linearGradient id="paint0_linear_1_2" x1="1638.04" y1="18.5382" x2="188.352" y2="1091.65" gradientUnits="userSpaceOnUse">
<stop stop-color="#163D3E"/>
<stop offset="1" stop-color="#032222"/>
</linearGradient>
<linearGradient id="paint1_linear_1_2" x1="1587.16" y1="677.763" x2="1776.72" y2="856.586" gradientUnits="userSpaceOnUse">
<stop stop-color="#EBD000"/>
<stop offset="1" stop-color="#58D046"/>
</linearGradient>
<linearGradient id="paint2_linear_1_2" x1="1610.31" y1="705.242" x2="1769.2" y2="855.13" gradientUnits="userSpaceOnUse">
<stop stop-color="#208346"/>
<stop offset="1" stop-color="#005B46"/>
</linearGradient>
<linearGradient id="paint3_linear_1_2" x1="1616.36" y1="698.837" x2="1775.24" y2="848.723" gradientUnits="userSpaceOnUse">
<stop stop-color="#208346"/>
<stop offset="1" stop-color="#005B46"/>
</linearGradient>
<linearGradient id="paint4_linear_1_2" x1="1621.63" y1="316.688" x2="1797.25" y2="129.054" gradientUnits="userSpaceOnUse">
<stop stop-color="#EBD000"/>
<stop offset="1" stop-color="#58D046"/>
</linearGradient>
<linearGradient id="paint5_linear_1_2" x1="1648.21" y1="293.341" x2="1795.4" y2="136.073" gradientUnits="userSpaceOnUse">
<stop stop-color="#208346"/>
<stop offset="1" stop-color="#005B46"/>
</linearGradient>
<linearGradient id="paint6_linear_1_2" x1="1602.15" y1="923.3" x2="1600.21" y2="886.126" gradientUnits="userSpaceOnUse">
<stop stop-color="#EBD000"/>
<stop offset="1" stop-color="#58D046"/>
</linearGradient>
<linearGradient id="paint7_linear_1_2" x1="1627.66" y1="943.713" x2="1625.44" y2="901.001" gradientUnits="userSpaceOnUse">
<stop stop-color="#EBD000"/>
<stop offset="1" stop-color="#58D046"/>
</linearGradient>
<linearGradient id="paint8_linear_1_2" x1="1577.74" y1="907.26" x2="1575.87" y2="871.217" gradientUnits="userSpaceOnUse">
<stop stop-color="#EBD000"/>
<stop offset="1" stop-color="#58D046"/>
</linearGradient>
<linearGradient id="paint9_linear_1_2" x1="1553.1" y1="890.214" x2="1551.43" y2="858.199" gradientUnits="userSpaceOnUse">
<stop stop-color="#EBD000"/>
<stop offset="1" stop-color="#58D046"/>
</linearGradient>
<linearGradient id="paint10_linear_1_2" x1="1533.27" y1="874.513" x2="1532.02" y2="850.305" gradientUnits="userSpaceOnUse">
<stop stop-color="#EBD000"/>
<stop offset="1" stop-color="#58D046"/>
</linearGradient>
<linearGradient id="paint11_linear_1_2" x1="1599.7" y1="868.616" x2="1595.59" y2="789.499" gradientUnits="userSpaceOnUse">
<stop stop-color="#EBD000"/>
<stop offset="1" stop-color="#58D046"/>
</linearGradient>
<linearGradient id="paint12_linear_1_2" x1="1567.47" y1="858.314" x2="1564.2" y2="795.438" gradientUnits="userSpaceOnUse">
<stop stop-color="#EBD000"/>
<stop offset="1" stop-color="#58D046"/>
</linearGradient>
<linearGradient id="paint13_linear_1_2" x1="1543.57" y1="850.607" x2="1541.23" y2="805.581" gradientUnits="userSpaceOnUse">
<stop stop-color="#EBD000"/>
<stop offset="1" stop-color="#58D046"/>
</linearGradient>
<linearGradient id="paint14_linear_1_2" x1="1657.7" y1="977.318" x2="1650.34" y2="835.566" gradientUnits="userSpaceOnUse">
<stop stop-color="#208346"/>
<stop offset="1" stop-color="#005B46"/>
</linearGradient>
<linearGradient id="paint15_linear_1_2" x1="1389.65" y1="886.204" x2="1453.85" y2="912.176" gradientUnits="userSpaceOnUse">
<stop stop-color="#EBD000"/>
<stop offset="1" stop-color="#58D046"/>
</linearGradient>
<linearGradient id="paint16_linear_1_2" x1="1402.27" y1="880.294" x2="1456.09" y2="902.063" gradientUnits="userSpaceOnUse">
<stop stop-color="#208346"/>
<stop offset="1" stop-color="#005B46"/>
</linearGradient>
<linearGradient id="paint17_linear_1_2" x1="1400.68" y1="884.226" x2="1454.5" y2="905.995" gradientUnits="userSpaceOnUse">
<stop stop-color="#208346"/>
<stop offset="1" stop-color="#005B46"/>
</linearGradient>
<linearGradient id="paint18_linear_1_2" x1="1400.12" y1="885.626" x2="1453.93" y2="907.395" gradientUnits="userSpaceOnUse">
<stop stop-color="#208346"/>
<stop offset="1" stop-color="#005B46"/>
</linearGradient>
<linearGradient id="paint19_linear_1_2" x1="1399.14" y1="888.052" x2="1452.95" y2="909.821" gradientUnits="userSpaceOnUse">
<stop stop-color="#208346"/>
<stop offset="1" stop-color="#005B46"/>
</linearGradient>
<linearGradient id="paint20_linear_1_2" x1="1430.87" y1="642.37" x2="1484.37" y2="681.33" gradientUnits="userSpaceOnUse">
<stop stop-color="#EBD000"/>
<stop offset="1" stop-color="#58D046"/>
</linearGradient>
<linearGradient id="paint21_linear_1_2" x1="1444.25" y1="639.4" x2="1489.09" y2="672.054" gradientUnits="userSpaceOnUse">
<stop stop-color="#208346"/>
<stop offset="1" stop-color="#005B46"/>
</linearGradient>
<linearGradient id="paint22_linear_1_2" x1="1434.12" y1="653.322" x2="1478.96" y2="685.975" gradientUnits="userSpaceOnUse">
<stop stop-color="#208346"/>
<stop offset="1" stop-color="#005B46"/>
</linearGradient>
<linearGradient id="paint23_linear_1_2" x1="1441.63" y1="642.989" x2="1486.48" y2="675.644" gradientUnits="userSpaceOnUse">
<stop stop-color="#208346"/>
<stop offset="1" stop-color="#005B46"/>
</linearGradient>
<linearGradient id="paint24_linear_1_2" x1="1436.79" y1="649.637" x2="1481.64" y2="682.291" gradientUnits="userSpaceOnUse">
<stop stop-color="#208346"/>
<stop offset="1" stop-color="#005B46"/>
</linearGradient>
<linearGradient id="paint25_linear_1_2" x1="1440.7" y1="644.267" x2="1485.56" y2="676.917" gradientUnits="userSpaceOnUse">
<stop stop-color="#208346"/>
<stop offset="1" stop-color="#005B46"/>
</linearGradient>
<linearGradient id="paint26_linear_1_2" x1="1437.82" y1="648.226" x2="1482.67" y2="680.88" gradientUnits="userSpaceOnUse">
<stop stop-color="#208346"/>
<stop offset="1" stop-color="#005B46"/>
</linearGradient>
<linearGradient id="paint27_linear_1_2" x1="1439.1" y1="646.478" x2="1483.94" y2="679.132" gradientUnits="userSpaceOnUse">
<stop stop-color="#208346"/>
<stop offset="1" stop-color="#005B46"/>
</linearGradient>
<linearGradient id="paint28_linear_1_2" x1="1601.58" y1="565.119" x2="1691.25" y2="630.399" gradientUnits="userSpaceOnUse">
<stop stop-color="#EBD000"/>
<stop offset="1" stop-color="#58D046"/>
</linearGradient>
<linearGradient id="paint29_linear_1_2" x1="1529.91" y1="512.549" x2="1591.01" y2="490.968" gradientUnits="userSpaceOnUse">
<stop stop-color="#EBD000"/>
<stop offset="1" stop-color="#58D046"/>
</linearGradient>
<linearGradient id="paint30_linear_1_2" x1="1536.01" y1="503.144" x2="1587.21" y2="485.06" gradientUnits="userSpaceOnUse">
<stop stop-color="#208346"/>
<stop offset="1" stop-color="#005B46"/>
</linearGradient>
<linearGradient id="paint31_linear_1_2" x1="1540.18" y1="514.976" x2="1591.39" y2="496.887" gradientUnits="userSpaceOnUse">
<stop stop-color="#208346"/>
<stop offset="1" stop-color="#005B46"/>
</linearGradient>
<linearGradient id="paint32_linear_1_2" x1="1537.08" y1="506.196" x2="1588.29" y2="488.107" gradientUnits="userSpaceOnUse">
<stop stop-color="#208346"/>
<stop offset="1" stop-color="#005B46"/>
</linearGradient>
<linearGradient id="paint33_linear_1_2" x1="1539.08" y1="511.84" x2="1590.28" y2="493.757" gradientUnits="userSpaceOnUse">
<stop stop-color="#208346"/>
<stop offset="1" stop-color="#005B46"/>
</linearGradient>
<linearGradient id="paint34_linear_1_2" x1="1537.46" y1="507.278" x2="1588.67" y2="489.194" gradientUnits="userSpaceOnUse">
<stop stop-color="#208346"/>
<stop offset="1" stop-color="#005B46"/>
</linearGradient>
<linearGradient id="paint35_linear_1_2" x1="1538.65" y1="510.644" x2="1589.86" y2="492.555" gradientUnits="userSpaceOnUse">
<stop stop-color="#208346"/>
<stop offset="1" stop-color="#005B46"/>
</linearGradient>
<linearGradient id="paint36_linear_1_2" x1="1538.13" y1="509.161" x2="1589.33" y2="491.077" gradientUnits="userSpaceOnUse">
<stop stop-color="#208346"/>
<stop offset="1" stop-color="#005B46"/>
</linearGradient>
<linearGradient id="paint37_linear_1_2" x1="1540.06" y1="249.143" x2="1601.15" y2="227.567" gradientUnits="userSpaceOnUse">
<stop stop-color="#EBD000"/>
<stop offset="1" stop-color="#58D046"/>
</linearGradient>
<linearGradient id="paint38_linear_1_2" x1="1546.15" y1="239.742" x2="1597.35" y2="221.659" gradientUnits="userSpaceOnUse">
<stop stop-color="#208346"/>
<stop offset="1" stop-color="#005B46"/>
</linearGradient>
<linearGradient id="paint39_linear_1_2" x1="1550.32" y1="251.574" x2="1601.53" y2="233.487" gradientUnits="userSpaceOnUse">
<stop stop-color="#208346"/>
<stop offset="1" stop-color="#005B46"/>
</linearGradient>
<linearGradient id="paint40_linear_1_2" x1="1547.22" y1="242.789" x2="1598.43" y2="224.706" gradientUnits="userSpaceOnUse">
<stop stop-color="#208346"/>
<stop offset="1" stop-color="#005B46"/>
</linearGradient>
<linearGradient id="paint41_linear_1_2" x1="1549.22" y1="248.439" x2="1600.43" y2="230.351" gradientUnits="userSpaceOnUse">
<stop stop-color="#208346"/>
<stop offset="1" stop-color="#005B46"/>
</linearGradient>
<linearGradient id="paint42_linear_1_2" x1="1547.6" y1="243.876" x2="1598.81" y2="225.787" gradientUnits="userSpaceOnUse">
<stop stop-color="#208346"/>
<stop offset="1" stop-color="#005B46"/>
</linearGradient>
<linearGradient id="paint43_linear_1_2" x1="1548.79" y1="247.241" x2="1600" y2="229.153" gradientUnits="userSpaceOnUse">
<stop stop-color="#208346"/>
<stop offset="1" stop-color="#005B46"/>
</linearGradient>
<linearGradient id="paint44_linear_1_2" x1="1548.27" y1="245.759" x2="1599.47" y2="227.675" gradientUnits="userSpaceOnUse">
<stop stop-color="#208346"/>
<stop offset="1" stop-color="#005B46"/>
</linearGradient>
<linearGradient id="paint45_linear_1_2" x1="1465.46" y1="410.724" x2="1561.15" y2="465.753" gradientUnits="userSpaceOnUse">
<stop stop-color="#58FF88"/>
<stop offset="1" stop-color="#007C9B"/>
</linearGradient>
<linearGradient id="paint46_linear_1_2" x1="1356.54" y1="775.479" x2="1382.26" y2="819.76" gradientUnits="userSpaceOnUse">
<stop stop-color="#58FF88"/>
<stop offset="1" stop-color="#007C9B"/>
</linearGradient>
<clipPath id="clip0_1_2">
<rect width="1600" height="881" fill="white"/>
</clipPath>
</defs>
</svg>
