<svg width="213" height="81" viewBox="0 0 213 81" fill="none" xmlns="http://www.w3.org/2000/svg">
<rect width="213" height="81" fill="#1E1E1E"/>
<rect width="213" height="81" fill="white"/>
<g filter="url(#filter0_d_0_1)">
<path d="M53.648 52V29.6H62.768C65.1573 29.6 67.248 30.08 69.04 31.04C70.8533 31.9787 72.2613 33.2907 73.264 34.976C74.2667 36.6613 74.768 38.6027 74.768 40.8C74.768 42.9973 74.2667 44.9387 73.264 46.624C72.2613 48.3093 70.8533 49.632 69.04 50.592C67.248 51.5307 65.1573 52 62.768 52H53.648ZM56.016 49.952H62.64C64.624 49.952 66.3413 49.568 67.792 48.8C69.264 48.0107 70.4053 46.9333 71.216 45.568C72.0267 44.1813 72.432 42.592 72.432 40.8C72.432 38.9867 72.0267 37.3973 71.216 36.032C70.4053 34.6667 69.264 33.6 67.792 32.832C66.3413 32.0427 64.624 31.648 62.64 31.648H56.016V49.952ZM86.4535 52.16C84.8322 52.16 83.3708 51.7973 82.0695 51.072C80.7895 50.3253 79.7762 49.312 79.0295 48.032C78.2828 46.7307 77.9095 45.248 77.9095 43.584C77.9095 41.8987 78.2828 40.416 79.0295 39.136C79.7762 37.856 80.7895 36.8533 82.0695 36.128C83.3495 35.4027 84.8108 35.04 86.4535 35.04C88.1175 35.04 89.5895 35.4027 90.8695 36.128C92.1708 36.8533 93.1842 37.856 93.9095 39.136C94.6562 40.416 95.0295 41.8987 95.0295 43.584C95.0295 45.248 94.6562 46.7307 93.9095 48.032C93.1842 49.312 92.1708 50.3253 90.8695 51.072C89.5682 51.7973 88.0962 52.16 86.4535 52.16ZM86.4535 50.144C87.6695 50.144 88.7468 49.8773 89.6855 49.344C90.6242 48.7893 91.3602 48.0213 91.8935 47.04C92.4482 46.0373 92.7255 44.8853 92.7255 43.584C92.7255 42.2613 92.4482 41.1093 91.8935 40.128C91.3602 39.1467 90.6242 38.3893 89.6855 37.856C88.7468 37.3013 87.6802 37.024 86.4855 37.024C85.2908 37.024 84.2242 37.3013 83.2855 37.856C82.3468 38.3893 81.6002 39.1467 81.0455 40.128C80.4908 41.1093 80.2135 42.2613 80.2135 43.584C80.2135 44.8853 80.4908 46.0373 81.0455 47.04C81.6002 48.0213 82.3468 48.7893 83.2855 49.344C84.2242 49.8773 85.2802 50.144 86.4535 50.144ZM108.523 58.208V28.256H110.635V58.208H108.523ZM124.297 52.16C122.676 52.16 121.215 51.7973 119.913 51.072C118.633 50.3253 117.62 49.312 116.873 48.032C116.127 46.7307 115.753 45.248 115.753 43.584C115.753 41.8987 116.127 40.416 116.873 39.136C117.62 37.856 118.633 36.8533 119.913 36.128C121.193 35.4027 122.655 35.04 124.297 35.04C125.961 35.04 127.433 35.4027 128.713 36.128C130.015 36.8533 131.028 37.856 131.753 39.136C132.5 40.416 132.873 41.8987 132.873 43.584C132.873 45.248 132.5 46.7307 131.753 48.032C131.028 49.312 130.015 50.3253 128.713 51.072C127.412 51.7973 125.94 52.16 124.297 52.16ZM124.297 50.144C125.513 50.144 126.591 49.8773 127.529 49.344C128.468 48.7893 129.204 48.0213 129.737 47.04C130.292 46.0373 130.569 44.8853 130.569 43.584C130.569 42.2613 130.292 41.1093 129.737 40.128C129.204 39.1467 128.468 38.3893 127.529 37.856C126.591 37.3013 125.524 37.024 124.329 37.024C123.135 37.024 122.068 37.3013 121.129 37.856C120.191 38.3893 119.444 39.1467 118.889 40.128C118.335 41.1093 118.057 42.2613 118.057 43.584C118.057 44.8853 118.335 46.0373 118.889 47.04C119.444 48.0213 120.191 48.7893 121.129 49.344C122.068 49.8773 123.124 50.144 124.297 50.144ZM144.456 52.16C143.026 52.16 141.778 51.8933 140.712 51.36C139.645 50.8267 138.813 50.0267 138.216 48.96C137.64 47.8933 137.352 46.56 137.352 44.96V35.2H139.624V44.704C139.624 46.496 140.061 47.8507 140.936 48.768C141.832 49.664 143.08 50.112 144.68 50.112C145.853 50.112 146.866 49.8773 147.72 49.408C148.594 48.9173 149.256 48.2133 149.704 47.296C150.173 46.3787 150.408 45.28 150.408 44V35.2H152.68V52H150.504V47.392L150.856 48.224C150.322 49.4613 149.49 50.432 148.36 51.136C147.25 51.8187 145.949 52.16 144.456 52.16ZM159.012 52V35.2H161.188V39.776L160.964 38.976C161.433 37.696 162.222 36.7253 163.332 36.064C164.441 35.3813 165.817 35.04 167.46 35.04V37.248C167.374 37.248 167.289 37.248 167.204 37.248C167.118 37.2267 167.033 37.216 166.948 37.216C165.177 37.216 163.79 37.76 162.788 38.848C161.785 39.9147 161.284 41.44 161.284 43.424V52H159.012Z" fill="black"/>
</g>
<path d="M138.287 24.1451L138.298 23.939L136.954 23.8964C134.857 23.8295 133.311 23.5827 131.302 22.9934C130.006 22.6133 129.586 22.7292 129.87 23.3863C130.052 23.8069 130.564 24.1013 131.806 24.4994C132.991 24.8795 133.576 25.016 134.639 25.1597C135.829 25.3207 136.431 25.2904 137.171 25.0334C137.885 24.7861 138.257 24.4833 138.288 24.1451L138.287 24.1451Z" fill="black"/>
<path d="M139.774 22.2371L139.826 21.781H131.519L131.413 21.953C131.357 22.0477 131.332 22.1623 131.36 22.2074C131.498 22.4322 133.682 22.974 135.97 23.3502C136.83 23.4919 138.317 23.4842 138.761 23.336C139.371 23.1337 139.712 22.7666 139.775 22.2371L139.774 22.2371Z" fill="black"/>
<path d="M114.748 25.8879C117.794 24.1777 119.576 23.1213 120.803 22.3001L122.542 21.1364L123.543 21.1323C124.093 21.1301 125.205 21.1062 126.012 21.0793C127.432 21.032 127.507 21.0222 128.274 20.7858C128.899 20.5936 129.296 20.4018 130.13 19.8888C131.07 19.3109 131.624 18.8836 131.626 18.7369C131.626 18.7103 129.072 18.6886 125.952 18.6886H121.019C120.529 18.6886 120.043 18.7437 119.585 18.8512C118.549 19.0942 118.148 19.2366 117.793 19.4892C117.19 19.9168 117.124 20.4956 117.559 21.5446C117.745 21.9934 117.751 22.0694 117.62 22.2273C117.444 22.4392 112.561 24.8348 111.853 25.0571L111.459 25.1809L110.982 28.0409C111.742 27.5916 113.152 26.7849 114.748 25.888L114.748 25.8879Z" fill="black"/>
<path d="M132.039 30.7323C132.353 30.731 132.717 30.693 132.849 30.6473C133.226 30.5171 133.488 30.217 133.488 29.9135C133.489 29.6797 133.458 29.6398 133.276 29.6398C132.992 29.6398 131.57 29.27 129.922 28.7682C128.957 28.4738 128.373 28.2471 127.854 27.9637C127.456 27.7466 126.85 27.4161 126.508 27.2287C125.519 26.6882 124.923 26.5465 124.705 26.801C124.324 27.2428 125.011 27.8174 127.263 28.9402C128.604 29.6095 129.694 30.0874 130.798 30.4901C131.36 30.6949 131.562 30.7342 132.039 30.7323L132.039 30.7323Z" fill="black"/>
<path d="M130.18 20.8321L129.819 21.0017L135.274 21.0047C141.367 21.0081 141.202 21.0194 142.401 20.5403C143.435 20.1292 144.965 19.1511 144.965 18.9046C144.965 18.8326 143.931 18.8176 138.948 18.8177L132.92 18.8179L132.611 19.1881C132.307 19.5508 130.939 20.4765 130.18 20.8321L130.18 20.8321Z" fill="black"/>
<path d="M119.345 34.1488C119.201 33.9891 118.894 33.6702 118.665 33.4403C118.436 33.2097 117.964 32.6157 117.617 32.1197C116.649 30.7393 116.467 30.6059 115.548 30.6059C114.958 30.6059 114.834 30.7702 114.911 31.4485C114.991 32.1558 115.367 32.8972 116.124 33.839C117.267 35.2619 118.159 36.0008 119.106 36.308C119.473 36.4272 119.747 36.462 120.326 36.4646C121.015 36.4671 121.098 36.4523 121.437 36.2675C121.638 36.158 121.802 36.0478 121.802 36.0233C121.802 35.9995 121.309 35.633 120.706 35.2091C120.103 34.7852 119.491 34.3079 119.346 34.1488L119.345 34.1488Z" fill="black"/>
<path d="M116.612 35.7681C115.9 35.1284 114.468 32.9724 114.462 32.5299C114.455 32.117 113.658 31.42 113.106 31.3446C112.445 31.2538 112.086 31.5205 112.086 32.1021C112.086 32.8358 112.581 34.3741 113.081 35.198C113.999 36.7053 114.553 37.2458 115.446 37.5041C115.904 37.6368 116.691 37.6613 117.273 37.5608C117.715 37.4841 118.289 37.1743 118.289 37.0113C118.289 36.9495 117.982 36.7073 117.607 36.4734C117.231 36.2403 116.784 35.9227 116.612 35.7681L116.612 35.7681Z" fill="black"/>
<path d="M134.86 28.8018C135.164 28.6523 135.484 28.1814 135.434 27.9573C135.402 27.8181 135.331 27.7995 134.675 27.7544C133.166 27.652 131.847 27.2951 129.779 26.4287C127.581 25.5082 127.25 25.3884 126.904 25.3884C126.266 25.3884 126.32 25.8161 127.035 26.4216C127.683 26.9692 130.024 28.0462 131.668 28.5519C132.869 28.921 132.923 28.9312 133.748 28.9312C134.44 28.9312 134.644 28.9074 134.86 28.8018L134.86 28.8018Z" fill="black"/>
<path d="M119.154 28.9949C119.235 28.9421 119.374 28.7379 119.463 28.5414L119.626 28.1845L120.461 28.1092C120.921 28.0673 121.341 28.0158 121.396 27.9952C121.449 27.9739 121.495 27.8354 121.495 27.6872C121.498 27.1867 121.562 27.1275 122.101 27.1268C122.989 27.1262 123.294 27.0341 123.54 26.6927C123.661 26.5239 123.774 26.3287 123.791 26.2579C123.817 26.1477 123.922 26.1239 124.503 26.0968C124.878 26.0788 125.256 26.0279 125.342 25.9828C125.434 25.9351 125.528 25.7348 125.569 25.4997C125.706 24.7093 125.762 24.6629 126.68 24.585L127.162 24.5444L127.248 24.0832L127.335 23.622L127.749 23.5704C128.573 23.4687 128.641 23.4184 128.607 22.9437L128.576 22.5217L129.23 22.3208C129.968 22.0947 130.235 21.9549 130.133 21.8512C130.084 21.8022 129.025 21.781 126.683 21.7823L123.303 21.7842L117.34 25.1802C111.641 28.4261 111.376 28.5865 111.369 28.8055C111.365 28.9318 111.198 29.4768 111 30.0172C110.657 30.9493 110.554 31.4981 110.707 31.5935C110.744 31.6173 110.879 31.6366 111.005 31.6366C111.237 31.6366 111.331 31.5477 111.709 30.9751C111.797 30.8417 111.941 30.7155 112.027 30.6949C112.114 30.6742 112.438 30.7219 112.746 30.8018L113.305 30.9461L113.652 30.8089C113.842 30.7335 114.111 30.5763 114.248 30.4591C114.683 30.0887 114.958 30.0011 115.801 29.9637C116.55 29.9302 116.584 29.9218 116.807 29.7041C117.287 29.2377 117.268 29.2455 118.157 29.1662C118.632 29.1237 119.072 29.0484 119.154 28.9949Z" fill="black"/>
<path d="M136.533 26.9721C136.918 26.7898 137.156 26.5244 137.28 26.1572C137.332 25.9975 137.301 25.9678 137.125 25.9678C137.011 25.9678 136.135 25.8783 135.176 25.7688C133.381 25.564 132.424 25.363 131.598 25.0158C131.176 24.8386 130.78 24.7156 129.366 24.3226C128.56 24.0991 128.383 24.141 128.337 24.5648C128.306 24.8521 128.316 24.8618 129.061 25.2863C129.476 25.5234 130.071 25.8235 130.384 25.9536C131.311 26.3395 133.427 26.9804 134.127 27.0874C134.486 27.1421 135.085 27.1795 135.462 27.1711C136.032 27.1589 136.209 27.126 136.533 26.9721Z" fill="black"/>
<path d="M111.085 32.6512C110.898 32.3839 110.515 32.3169 110.345 32.5224C110.217 32.6757 110.122 36.2513 110.228 36.9066C110.339 37.5881 110.651 37.905 111.465 38.1588C111.924 38.3025 112.122 38.3302 112.499 38.3012C113.473 38.2258 114.174 38.1202 114.364 38.0203C114.555 37.9205 114.536 37.8954 113.807 37.2924C113.39 36.9485 112.907 36.4995 112.732 36.294C112.377 35.876 111.466 34.0008 111.463 33.68C111.459 33.4004 111.292 32.9457 111.085 32.6513L111.085 32.6512Z" fill="black"/>
<path d="M151.063 23.971H139.701L139.442 24.2448C139.246 24.4587 138.656 25.4365 138.656 25.557C138.656 25.5705 143.133 25.5808 148.602 25.5808L158.559 25.5802L159.727 25.3309C160.379 25.1924 161.144 24.9772 161.443 24.8484C161.929 24.639 162.436 24.2287 162.436 24.0425C162.436 23.9903 159.355 23.971 151.063 23.971L151.063 23.971Z" fill="black"/>
<path d="M138.451 26.2255L138.131 26.4992C137.955 26.6493 137.717 26.8954 137.604 27.0455C137.49 27.1988 137.242 27.3766 137.045 27.4533C136.802 27.5467 136.694 27.6368 136.694 27.7444V27.9003L145.968 27.899C153.619 27.8977 155.376 27.8816 155.976 27.8056C156.844 27.6942 159.171 26.9804 159.45 26.7408C159.553 26.6519 159.667 26.4999 159.708 26.4026L159.77 26.2255H138.451L138.451 26.2255Z" fill="black"/>
<path d="M156.666 18.8175H146.969L146.297 19.2523C145.924 19.4914 145.49 19.7886 145.325 19.9126C145.056 20.1259 144.425 20.4789 143.763 20.7959L143.464 20.9385L152.82 20.924C161.577 20.9104 162.219 20.9019 162.746 20.7915C164.71 20.3847 166.364 19.5431 166.364 18.9527V18.8175L156.666 18.8175Z" fill="black"/>
<path d="M146.017 28.5453L136.536 28.5459L135.58 29.1901C134.907 29.6436 134.624 29.8819 134.624 29.9946L134.624 30.155H142.688C148.127 30.155 150.918 30.1319 151.29 30.0842C152.097 29.9792 153.151 29.6449 154.402 29.0947C155.012 28.8255 155.508 28.5916 155.508 28.5749C155.508 28.5582 151.238 28.5446 146.017 28.5453L146.017 28.5453Z" fill="black"/>
<path d="M153.047 21.7963L141.499 21.8131L140.858 22.5539C140.496 22.961 140.207 23.332 140.207 23.3777C140.207 23.4447 142.161 23.457 150.566 23.4422L160.936 23.4235L161.691 23.2509C162.114 23.1555 162.714 22.9816 163.024 22.8643C163.614 22.6453 164.606 22.0153 164.606 21.864C164.606 21.7957 162.497 21.7828 153.047 21.7963L153.047 21.7963Z" fill="black"/>
<path d="M133.832 30.7991L133.367 30.991C132.6 31.3073 131.761 31.9064 131.366 32.4191C131.168 32.6774 131.005 32.9254 131.005 32.9712C131.005 33.1315 138.264 33.0491 141.189 32.8558C143.009 32.7354 144.767 32.452 146.804 31.9489C147.786 31.7073 149.068 31.2448 149.461 30.9948L149.761 30.799H133.832L133.832 30.7991Z" fill="black"/>
<path d="M123.478 33.6451C121.949 32.7007 121.633 32.4502 121.035 31.7094C120.446 30.9796 119.545 30.166 119.131 29.9908C118.673 29.7969 118.134 29.7808 117.983 29.9573C117.819 30.1479 117.854 30.5267 118.086 31.0582C118.375 31.7223 118.441 31.8163 119.283 32.7401C120.269 33.8216 120.697 34.2332 121.315 34.6964C121.913 35.1434 122.049 35.2104 122.534 35.298C123.438 35.461 124.906 35.061 124.906 34.6513C124.906 34.5772 124.33 34.1714 123.478 33.6451Z" fill="black"/>
<path d="M126.922 32.5177C126.189 32.2484 125.341 31.7177 124.227 30.8313C121.669 28.797 120.71 28.3281 120.365 28.9433C120.191 29.2563 120.234 29.8315 120.455 30.1362C120.684 30.4493 122.459 32.0668 123.423 32.8398C124.216 33.4762 124.807 33.7886 125.602 33.9928C126.324 34.1777 126.807 34.188 127.286 34.0289C127.698 33.8924 128.318 33.4228 128.318 33.2469C128.318 33.1103 127.808 32.8437 126.922 32.5177Z" fill="black"/>
<path d="M130.858 31.4155C130.754 31.3775 130.058 31.0941 129.314 30.7856C127.306 29.9546 126.005 29.3014 125.395 28.8183C124.311 27.9583 123.444 27.5764 122.882 27.7091C122.616 27.7722 122.608 27.7896 122.66 28.1484C122.756 28.8086 123.325 29.3278 125.627 30.8545C126.977 31.7499 127.951 32.2794 128.542 32.4391C128.733 32.4907 129.092 32.5345 129.342 32.5358C129.73 32.5377 129.845 32.5048 130.143 32.3084C130.334 32.1815 130.616 31.9444 130.77 31.7815C131.035 31.5 131.039 31.4813 130.858 31.4156L130.858 31.4155Z" fill="black"/>
<path d="M80.7153 24.1451L80.7049 23.939L82.049 23.8964C84.1457 23.8295 85.6914 23.5827 87.701 22.9934C88.9964 22.6133 89.4172 22.7292 89.1329 23.3863C88.9509 23.8069 88.4392 24.1013 87.1964 24.4994C86.0116 24.8795 85.4264 25.016 84.3636 25.1597C83.1736 25.3207 82.5719 25.2904 81.8316 25.0334C81.1182 24.7861 80.746 24.4833 80.715 24.1451L80.7153 24.1451Z" fill="black"/>
<path d="M79.2261 22.2371L79.1744 21.781H87.4816L87.587 21.953C87.6439 22.0477 87.6687 22.1623 87.6408 22.2074C87.5023 22.4322 85.3187 22.974 83.0307 23.3502C82.1705 23.4919 80.6838 23.4842 80.2392 23.336C79.6293 23.1337 79.2881 22.7666 79.226 22.2371L79.2261 22.2371Z" fill="black"/>
<path d="M104.252 25.8879C101.206 24.1777 99.4237 23.1213 98.1966 22.3001L96.4576 21.1364L95.4568 21.1323C94.9068 21.1301 93.7954 21.1062 92.9879 21.0793C91.5683 21.032 91.4929 21.0222 90.7257 20.7858C90.1013 20.5936 89.7042 20.4018 88.8699 19.8888C87.9301 19.3109 87.376 18.8836 87.3739 18.7369C87.3739 18.7103 89.9276 18.6886 93.0477 18.6886H97.9805C98.4706 18.6886 98.9567 18.7437 99.4155 18.8512C100.451 19.0942 100.852 19.2366 101.207 19.4892C101.81 19.9168 101.876 20.4956 101.441 21.5446C101.255 21.9934 101.249 22.0694 101.38 22.2273C101.556 22.4392 106.439 24.8348 107.147 25.0571L107.541 25.1809L108.018 28.0409C107.258 27.5916 105.848 26.7849 104.252 25.888L104.252 25.8879Z" fill="black"/>
<path d="M86.962 30.7323C86.6477 30.731 86.2838 30.693 86.1525 30.6473C85.7752 30.5171 85.5136 30.217 85.5136 29.9135C85.5125 29.6797 85.5436 29.6398 85.7255 29.6398C86.0088 29.6398 87.4315 29.27 89.0794 28.7682C90.0441 28.4738 90.6282 28.2471 91.1472 27.9637C91.5453 27.7466 92.1511 27.4161 92.4933 27.2287C93.4817 26.6882 94.0783 26.5465 94.2964 26.801C94.6769 27.2428 93.9904 27.8174 91.7385 28.9402C90.3976 29.6095 89.3068 30.0874 88.2026 30.4901C87.6413 30.6949 87.4386 30.7342 86.962 30.7323L86.962 30.7323Z" fill="black"/>
<path d="M88.8207 20.8321L89.1826 21.0017L83.7268 21.0047C77.6342 21.0081 77.7993 21.0194 76.6004 20.5403C75.5665 20.1292 74.0364 19.1511 74.0364 18.9046C74.0364 18.8326 75.0703 18.8176 80.0536 18.8177L86.0811 18.8179L86.3902 19.1881C86.6942 19.5508 88.062 20.4765 88.8209 20.8321L88.8207 20.8321Z" fill="black"/>
<path d="M99.6518 34.1488C99.7966 33.9891 100.104 33.6702 100.332 33.4403C100.562 33.2097 101.033 32.6157 101.38 32.1197C102.348 30.7393 102.53 30.6059 103.449 30.6059C104.04 30.6059 104.164 30.7702 104.086 31.4485C104.006 32.1558 103.63 32.8972 102.873 33.839C101.73 35.2619 100.839 36.0008 99.8916 36.308C99.5246 36.4272 99.2506 36.462 98.6716 36.4646C97.9821 36.4671 97.8993 36.4523 97.5602 36.2675C97.3596 36.158 97.1953 36.0478 97.1953 36.0233C97.1953 35.9995 97.6884 35.633 98.2912 35.2091C98.8939 34.7852 99.506 34.3079 99.6518 34.1488L99.6518 34.1488Z" fill="black"/>
<path d="M102.387 35.7681C103.1 35.1284 104.532 32.9724 104.538 32.5299C104.544 32.117 105.341 31.42 105.893 31.3446C106.555 31.2538 106.914 31.5205 106.914 32.1021C106.914 32.8358 106.418 34.3741 105.918 35.198C105.001 36.7053 104.447 37.2458 103.554 37.5041C103.096 37.6368 102.309 37.6613 101.727 37.5608C101.284 37.4841 100.71 37.1743 100.71 37.0113C100.71 36.9495 101.017 36.7073 101.393 36.4734C101.768 36.2403 102.216 35.9227 102.387 35.7681L102.387 35.7681Z" fill="black"/>
<path d="M84.1385 28.8018C83.8345 28.6523 83.514 28.1814 83.5647 27.9573C83.5968 27.8181 83.6671 27.7995 84.3236 27.7544C85.832 27.652 87.1513 27.2951 89.219 26.4287C91.4171 25.5082 91.7479 25.3884 92.0943 25.3884C92.7322 25.3884 92.6785 25.8161 91.963 26.4216C91.3158 26.9692 88.974 28.0462 87.3302 28.5519C86.1298 28.921 86.075 28.9312 85.25 28.9312C84.5583 28.9312 84.3546 28.9074 84.1385 28.8018L84.1385 28.8018Z" fill="black"/>
<path d="M99.8453 28.9949C99.7647 28.9421 99.6251 28.7379 99.5362 28.5414L99.3739 28.1845L98.5385 28.1092C98.0784 28.0673 97.6587 28.0158 97.6039 27.9952C97.5501 27.9739 97.5046 27.8354 97.5046 27.6872C97.5015 27.1867 97.4374 27.1275 96.8987 27.1268C96.0106 27.1262 95.7056 27.0341 95.4596 26.6927C95.3386 26.5239 95.2259 26.3287 95.2084 26.2579C95.1825 26.1477 95.077 26.1239 94.496 26.0968C94.1217 26.0788 93.7433 26.0279 93.6575 25.9828C93.5655 25.9351 93.4714 25.7348 93.4301 25.4997C93.2936 24.7093 93.2378 24.6629 92.3197 24.585L91.8379 24.5444L91.751 24.0832L91.6642 23.622L91.2506 23.5704C90.4266 23.4687 90.3584 23.4184 90.3925 22.9437L90.4235 22.5217L89.7691 22.3208C89.0319 22.0947 88.7641 21.9549 88.8665 21.8512C88.9151 21.8022 89.9748 21.781 92.3165 21.7823L95.6963 21.7842L101.66 25.1802C107.359 28.4261 107.623 28.5865 107.631 28.8055C107.635 28.9318 107.801 29.4768 108 30.0172C108.343 30.9493 108.445 31.4981 108.292 31.5935C108.255 31.6173 108.121 31.6366 107.995 31.6366C107.763 31.6366 107.669 31.5477 107.29 30.9751C107.203 30.8417 107.059 30.7155 106.972 30.6949C106.885 30.6742 106.562 30.7219 106.253 30.8018L105.694 30.9461L105.348 30.8089C105.157 30.7335 104.889 30.5763 104.751 30.4591C104.317 30.0887 104.042 30.0011 103.198 29.9637C102.45 29.9302 102.416 29.9218 102.192 29.7041C101.713 29.2377 101.731 29.2455 100.842 29.1662C100.367 29.1237 99.927 29.0484 99.8453 28.9949Z" fill="black"/>
<path d="M82.4657 26.9721C82.0801 26.7898 81.8423 26.5244 81.7182 26.1572C81.6665 25.9975 81.6975 25.9678 81.8733 25.9678C81.987 25.9678 82.8637 25.8783 83.8221 25.7688C85.6169 25.564 86.5743 25.363 87.4004 25.0158C87.8222 24.8386 88.2182 24.7156 89.6325 24.3226C90.4379 24.0991 90.6158 24.141 90.6613 24.5648C90.6923 24.8521 90.6819 24.8618 89.9375 25.2863C89.5219 25.5234 88.9275 25.8235 88.6142 25.9536C87.6878 26.3395 85.5714 26.9804 84.8715 27.0874C84.5128 27.1421 83.9131 27.1795 83.5368 27.1711C82.966 27.1589 82.7893 27.126 82.4657 26.9721Z" fill="black"/>
<path d="M107.915 32.6512C108.102 32.3839 108.485 32.3169 108.655 32.5224C108.783 32.6757 108.878 36.2513 108.772 36.9066C108.661 37.5881 108.349 37.905 107.535 38.1588C107.076 38.3025 106.878 38.3302 106.501 38.3012C105.527 38.2258 104.826 38.1202 104.636 38.0203C104.445 37.9205 104.464 37.8954 105.193 37.2924C105.61 36.9485 106.093 36.4995 106.268 36.294C106.623 35.876 107.534 34.0008 107.537 33.68C107.541 33.4004 107.708 32.9457 107.915 32.6513L107.915 32.6512Z" fill="black"/>
<path d="M67.9364 23.971H79.2988L79.5573 24.2448C79.7538 24.4587 80.343 25.4365 80.343 25.557C80.343 25.5705 75.8663 25.5808 70.397 25.5808L60.4406 25.5802L59.2723 25.3309C58.6209 25.1924 57.8559 24.9772 57.556 24.8484C57.0701 24.639 56.5635 24.2287 56.5635 24.0425C56.5635 23.9903 59.6445 23.971 67.9363 23.971L67.9364 23.971Z" fill="black"/>
<path d="M80.5496 26.2255L80.8701 26.4992C81.0459 26.6493 81.2837 26.8954 81.3974 27.0455C81.5111 27.1988 81.7593 27.3766 81.9557 27.4533C82.1987 27.5467 82.3072 27.6368 82.3072 27.7444V27.9003L73.033 27.899C65.3824 27.8977 63.6249 27.8816 63.0252 27.8056C62.1568 27.6942 59.8305 26.9804 59.5514 26.7408C59.448 26.6519 59.3342 26.4999 59.2929 26.4026L59.2309 26.2255H80.5498L80.5496 26.2255Z" fill="black"/>
<path d="M62.3325 18.8175H72.0304L72.7024 19.2523C73.0746 19.4914 73.5088 19.7886 73.6743 19.9126C73.9431 20.1259 74.5737 20.4789 75.2354 20.7959L75.5352 20.9385L66.1785 20.924C57.4214 20.9104 56.7802 20.9019 56.2532 20.7915C54.2888 20.3847 52.6346 19.5431 52.6346 18.9527V18.8175L62.3325 18.8175Z" fill="black"/>
<path d="M72.9816 28.5453L82.4624 28.5459L83.4188 29.1901C84.0918 29.6436 84.3751 29.8819 84.3751 29.9946L84.3751 30.155H76.3106C70.8724 30.155 68.0811 30.1319 67.7088 30.0842C66.9024 29.9792 65.8478 29.6449 64.5968 29.0947C63.9869 28.8255 63.4906 28.5916 63.4906 28.5749C63.4906 28.5582 67.7606 28.5446 72.9818 28.5453L72.9816 28.5453Z" fill="black"/>
<path d="M65.9514 21.7963L77.4998 21.8131L78.1408 22.5539C78.5027 22.961 78.7922 23.332 78.7922 23.3777C78.7922 23.4447 76.8382 23.457 68.4328 23.4422L58.0631 23.4235L57.3084 23.2509C56.8845 23.1555 56.2848 22.9816 55.9746 22.8643C55.3853 22.6453 54.3928 22.0153 54.3928 21.864C54.3928 21.7957 56.5019 21.7828 65.9515 21.7963L65.9514 21.7963Z" fill="black"/>
<path d="M85.1673 30.7991L85.6326 30.991C86.3997 31.3073 87.2382 31.9064 87.6331 32.4191C87.8316 32.6774 87.994 32.9254 87.994 32.9712C87.994 33.1315 80.7359 33.0491 77.8101 32.8558C75.9905 32.7354 74.2329 32.452 72.1959 31.9489C71.2137 31.7073 69.9317 31.2448 69.5388 30.9948L69.239 30.799H85.1672L85.1673 30.7991Z" fill="black"/>
<path d="M95.5217 33.6451C97.0509 32.7007 97.3672 32.4502 97.9648 31.7094C98.5541 30.9796 99.4546 30.166 99.8692 29.9908C100.327 29.7969 100.866 29.7808 101.017 29.9573C101.181 30.1479 101.146 30.5267 100.914 31.0582C100.625 31.7223 100.559 31.8163 99.7172 32.7401C98.7309 33.8216 98.3029 34.2332 97.6846 34.6964C97.087 35.1434 96.9505 35.2104 96.4656 35.298C95.5621 35.461 94.0939 35.061 94.0939 34.6513C94.0939 34.5772 94.6698 34.1714 95.5217 33.6451Z" fill="black"/>
<path d="M92.0777 32.5177C92.8108 32.2484 93.6585 31.7177 94.7731 30.8313C97.3309 28.797 98.2903 28.3281 98.6346 28.9433C98.8093 29.2563 98.7659 29.8315 98.5447 30.1362C98.3162 30.4493 96.541 32.0668 95.5774 32.8398C94.7844 33.4762 94.193 33.7886 93.398 33.9928C92.6763 34.1777 92.1935 34.188 91.7138 34.0289C91.3023 33.8924 90.682 33.4228 90.682 33.2469C90.682 33.1103 91.1917 32.8437 92.0777 32.5177Z" fill="black"/>
<path d="M88.1439 31.4155C88.2484 31.3775 88.9441 31.0941 89.6885 30.7856C91.6963 29.9546 92.997 29.3014 93.607 28.8183C94.6915 27.9583 95.5579 27.5764 96.1203 27.7091C96.386 27.7722 96.3943 27.7896 96.3426 28.1484C96.2465 28.8086 95.6768 29.3278 93.3754 30.8545C92.0251 31.7499 91.0512 32.2794 90.4598 32.4391C90.2696 32.4907 89.9098 32.5345 89.6607 32.5358C89.2719 32.5377 89.1572 32.5048 88.8594 32.3084C88.6681 32.1815 88.3859 31.9444 88.2318 31.7815C87.9672 31.5 87.963 31.4813 88.1439 31.4156L88.1439 31.4155Z" fill="black"/>
<defs>
<filter id="filter0_d_0_1" x="49.648" y="28.256" width="121.812" height="37.952" filterUnits="userSpaceOnUse" color-interpolation-filters="sRGB">
<feFlood flood-opacity="0" result="BackgroundImageFix"/>
<feColorMatrix in="SourceAlpha" type="matrix" values="0 0 0 0 0 0 0 0 0 0 0 0 0 0 0 0 0 0 127 0" result="hardAlpha"/>
<feOffset dy="4"/>
<feGaussianBlur stdDeviation="2"/>
<feComposite in2="hardAlpha" operator="out"/>
<feColorMatrix type="matrix" values="0 0 0 0 0 0 0 0 0 0 0 0 0 0 0 0 0 0 0.5 0"/>
<feBlend mode="normal" in2="BackgroundImageFix" result="effect1_dropShadow_0_1"/>
<feBlend mode="normal" in="SourceGraphic" in2="effect1_dropShadow_0_1" result="shape"/>
</filter>
</defs>
</svg>
